G04 #@! TF.GenerationSoftware,KiCad,Pcbnew,9.0.7*
G04 #@! TF.CreationDate,2026-03-05T15:01:29-06:00*
G04 #@! TF.ProjectId,betaspray-pcb,62657461-7370-4726-9179-2d7063622e6b,rev?*
G04 #@! TF.SameCoordinates,Original*
G04 #@! TF.FileFunction,Legend,Top*
G04 #@! TF.FilePolarity,Positive*
%FSLAX46Y46*%
G04 Gerber Fmt 4.6, Leading zero omitted, Abs format (unit mm)*
G04 Created by KiCad (PCBNEW 9.0.7) date 2026-03-05 15:01:29*
%MOMM*%
%LPD*%
G01*
G04 APERTURE LIST*
%ADD10C,0.100000*%
%ADD11C,0.150000*%
%ADD12C,0.300000*%
%ADD13C,0.400000*%
%ADD14C,0.120000*%
%ADD15C,0.127000*%
%ADD16C,0.200000*%
G04 APERTURE END LIST*
D10*
D11*
X177002200Y-166007200D02*
X285002200Y-166007200D01*
X285002200Y-198007200D01*
X177002200Y-198007200D01*
X177002200Y-166007200D01*
D10*
D11*
X10000000Y-10000000D02*
X287002200Y-10000000D01*
X287002200Y-200007200D01*
X10000000Y-200007200D01*
X10000000Y-10000000D01*
D10*
D11*
X12000000Y-12000000D02*
X285002200Y-12000000D01*
X285002200Y-198007200D01*
X12000000Y-198007200D01*
X12000000Y-12000000D01*
D10*
D11*
X60000000Y-12000000D02*
X60000000Y-10000000D01*
D10*
D11*
X110000000Y-12000000D02*
X110000000Y-10000000D01*
D10*
D11*
X160000000Y-12000000D02*
X160000000Y-10000000D01*
D10*
D11*
X210000000Y-12000000D02*
X210000000Y-10000000D01*
D10*
D11*
X260000000Y-12000000D02*
X260000000Y-10000000D01*
D10*
D11*
X36089160Y-11593604D02*
X35346303Y-11593604D01*
X35717731Y-11593604D02*
X35717731Y-10293604D01*
X35717731Y-10293604D02*
X35593922Y-10479319D01*
X35593922Y-10479319D02*
X35470112Y-10603128D01*
X35470112Y-10603128D02*
X35346303Y-10665033D01*
D10*
D11*
X85346303Y-10417414D02*
X85408207Y-10355509D01*
X85408207Y-10355509D02*
X85532017Y-10293604D01*
X85532017Y-10293604D02*
X85841541Y-10293604D01*
X85841541Y-10293604D02*
X85965350Y-10355509D01*
X85965350Y-10355509D02*
X86027255Y-10417414D01*
X86027255Y-10417414D02*
X86089160Y-10541223D01*
X86089160Y-10541223D02*
X86089160Y-10665033D01*
X86089160Y-10665033D02*
X86027255Y-10850747D01*
X86027255Y-10850747D02*
X85284398Y-11593604D01*
X85284398Y-11593604D02*
X86089160Y-11593604D01*
D10*
D11*
X135284398Y-10293604D02*
X136089160Y-10293604D01*
X136089160Y-10293604D02*
X135655826Y-10788842D01*
X135655826Y-10788842D02*
X135841541Y-10788842D01*
X135841541Y-10788842D02*
X135965350Y-10850747D01*
X135965350Y-10850747D02*
X136027255Y-10912652D01*
X136027255Y-10912652D02*
X136089160Y-11036461D01*
X136089160Y-11036461D02*
X136089160Y-11345985D01*
X136089160Y-11345985D02*
X136027255Y-11469795D01*
X136027255Y-11469795D02*
X135965350Y-11531700D01*
X135965350Y-11531700D02*
X135841541Y-11593604D01*
X135841541Y-11593604D02*
X135470112Y-11593604D01*
X135470112Y-11593604D02*
X135346303Y-11531700D01*
X135346303Y-11531700D02*
X135284398Y-11469795D01*
D10*
D11*
X185965350Y-10726938D02*
X185965350Y-11593604D01*
X185655826Y-10231700D02*
X185346303Y-11160271D01*
X185346303Y-11160271D02*
X186151064Y-11160271D01*
D10*
D11*
X236027255Y-10293604D02*
X235408207Y-10293604D01*
X235408207Y-10293604D02*
X235346303Y-10912652D01*
X235346303Y-10912652D02*
X235408207Y-10850747D01*
X235408207Y-10850747D02*
X235532017Y-10788842D01*
X235532017Y-10788842D02*
X235841541Y-10788842D01*
X235841541Y-10788842D02*
X235965350Y-10850747D01*
X235965350Y-10850747D02*
X236027255Y-10912652D01*
X236027255Y-10912652D02*
X236089160Y-11036461D01*
X236089160Y-11036461D02*
X236089160Y-11345985D01*
X236089160Y-11345985D02*
X236027255Y-11469795D01*
X236027255Y-11469795D02*
X235965350Y-11531700D01*
X235965350Y-11531700D02*
X235841541Y-11593604D01*
X235841541Y-11593604D02*
X235532017Y-11593604D01*
X235532017Y-11593604D02*
X235408207Y-11531700D01*
X235408207Y-11531700D02*
X235346303Y-11469795D01*
D10*
D11*
X285965350Y-10293604D02*
X285717731Y-10293604D01*
X285717731Y-10293604D02*
X285593922Y-10355509D01*
X285593922Y-10355509D02*
X285532017Y-10417414D01*
X285532017Y-10417414D02*
X285408207Y-10603128D01*
X285408207Y-10603128D02*
X285346303Y-10850747D01*
X285346303Y-10850747D02*
X285346303Y-11345985D01*
X285346303Y-11345985D02*
X285408207Y-11469795D01*
X285408207Y-11469795D02*
X285470112Y-11531700D01*
X285470112Y-11531700D02*
X285593922Y-11593604D01*
X285593922Y-11593604D02*
X285841541Y-11593604D01*
X285841541Y-11593604D02*
X285965350Y-11531700D01*
X285965350Y-11531700D02*
X286027255Y-11469795D01*
X286027255Y-11469795D02*
X286089160Y-11345985D01*
X286089160Y-11345985D02*
X286089160Y-11036461D01*
X286089160Y-11036461D02*
X286027255Y-10912652D01*
X286027255Y-10912652D02*
X285965350Y-10850747D01*
X285965350Y-10850747D02*
X285841541Y-10788842D01*
X285841541Y-10788842D02*
X285593922Y-10788842D01*
X285593922Y-10788842D02*
X285470112Y-10850747D01*
X285470112Y-10850747D02*
X285408207Y-10912652D01*
X285408207Y-10912652D02*
X285346303Y-11036461D01*
D10*
D11*
X60000000Y-198007200D02*
X60000000Y-200007200D01*
D10*
D11*
X110000000Y-198007200D02*
X110000000Y-200007200D01*
D10*
D11*
X160000000Y-198007200D02*
X160000000Y-200007200D01*
D10*
D11*
X210000000Y-198007200D02*
X210000000Y-200007200D01*
D10*
D11*
X260000000Y-198007200D02*
X260000000Y-200007200D01*
D10*
D11*
X36089160Y-199600804D02*
X35346303Y-199600804D01*
X35717731Y-199600804D02*
X35717731Y-198300804D01*
X35717731Y-198300804D02*
X35593922Y-198486519D01*
X35593922Y-198486519D02*
X35470112Y-198610328D01*
X35470112Y-198610328D02*
X35346303Y-198672233D01*
D10*
D11*
X85346303Y-198424614D02*
X85408207Y-198362709D01*
X85408207Y-198362709D02*
X85532017Y-198300804D01*
X85532017Y-198300804D02*
X85841541Y-198300804D01*
X85841541Y-198300804D02*
X85965350Y-198362709D01*
X85965350Y-198362709D02*
X86027255Y-198424614D01*
X86027255Y-198424614D02*
X86089160Y-198548423D01*
X86089160Y-198548423D02*
X86089160Y-198672233D01*
X86089160Y-198672233D02*
X86027255Y-198857947D01*
X86027255Y-198857947D02*
X85284398Y-199600804D01*
X85284398Y-199600804D02*
X86089160Y-199600804D01*
D10*
D11*
X135284398Y-198300804D02*
X136089160Y-198300804D01*
X136089160Y-198300804D02*
X135655826Y-198796042D01*
X135655826Y-198796042D02*
X135841541Y-198796042D01*
X135841541Y-198796042D02*
X135965350Y-198857947D01*
X135965350Y-198857947D02*
X136027255Y-198919852D01*
X136027255Y-198919852D02*
X136089160Y-199043661D01*
X136089160Y-199043661D02*
X136089160Y-199353185D01*
X136089160Y-199353185D02*
X136027255Y-199476995D01*
X136027255Y-199476995D02*
X135965350Y-199538900D01*
X135965350Y-199538900D02*
X135841541Y-199600804D01*
X135841541Y-199600804D02*
X135470112Y-199600804D01*
X135470112Y-199600804D02*
X135346303Y-199538900D01*
X135346303Y-199538900D02*
X135284398Y-199476995D01*
D10*
D11*
X185965350Y-198734138D02*
X185965350Y-199600804D01*
X185655826Y-198238900D02*
X185346303Y-199167471D01*
X185346303Y-199167471D02*
X186151064Y-199167471D01*
D10*
D11*
X236027255Y-198300804D02*
X235408207Y-198300804D01*
X235408207Y-198300804D02*
X235346303Y-198919852D01*
X235346303Y-198919852D02*
X235408207Y-198857947D01*
X235408207Y-198857947D02*
X235532017Y-198796042D01*
X235532017Y-198796042D02*
X235841541Y-198796042D01*
X235841541Y-198796042D02*
X235965350Y-198857947D01*
X235965350Y-198857947D02*
X236027255Y-198919852D01*
X236027255Y-198919852D02*
X236089160Y-199043661D01*
X236089160Y-199043661D02*
X236089160Y-199353185D01*
X236089160Y-199353185D02*
X236027255Y-199476995D01*
X236027255Y-199476995D02*
X235965350Y-199538900D01*
X235965350Y-199538900D02*
X235841541Y-199600804D01*
X235841541Y-199600804D02*
X235532017Y-199600804D01*
X235532017Y-199600804D02*
X235408207Y-199538900D01*
X235408207Y-199538900D02*
X235346303Y-199476995D01*
D10*
D11*
X285965350Y-198300804D02*
X285717731Y-198300804D01*
X285717731Y-198300804D02*
X285593922Y-198362709D01*
X285593922Y-198362709D02*
X285532017Y-198424614D01*
X285532017Y-198424614D02*
X285408207Y-198610328D01*
X285408207Y-198610328D02*
X285346303Y-198857947D01*
X285346303Y-198857947D02*
X285346303Y-199353185D01*
X285346303Y-199353185D02*
X285408207Y-199476995D01*
X285408207Y-199476995D02*
X285470112Y-199538900D01*
X285470112Y-199538900D02*
X285593922Y-199600804D01*
X285593922Y-199600804D02*
X285841541Y-199600804D01*
X285841541Y-199600804D02*
X285965350Y-199538900D01*
X285965350Y-199538900D02*
X286027255Y-199476995D01*
X286027255Y-199476995D02*
X286089160Y-199353185D01*
X286089160Y-199353185D02*
X286089160Y-199043661D01*
X286089160Y-199043661D02*
X286027255Y-198919852D01*
X286027255Y-198919852D02*
X285965350Y-198857947D01*
X285965350Y-198857947D02*
X285841541Y-198796042D01*
X285841541Y-198796042D02*
X285593922Y-198796042D01*
X285593922Y-198796042D02*
X285470112Y-198857947D01*
X285470112Y-198857947D02*
X285408207Y-198919852D01*
X285408207Y-198919852D02*
X285346303Y-199043661D01*
D10*
D11*
X10000000Y-60000000D02*
X12000000Y-60000000D01*
D10*
D11*
X10000000Y-110000000D02*
X12000000Y-110000000D01*
D10*
D11*
X10000000Y-160000000D02*
X12000000Y-160000000D01*
D10*
D11*
X10690476Y-35222176D02*
X11309523Y-35222176D01*
X10566666Y-35593604D02*
X10999999Y-34293604D01*
X10999999Y-34293604D02*
X11433333Y-35593604D01*
D10*
D11*
X11092857Y-84912652D02*
X11278571Y-84974557D01*
X11278571Y-84974557D02*
X11340476Y-85036461D01*
X11340476Y-85036461D02*
X11402380Y-85160271D01*
X11402380Y-85160271D02*
X11402380Y-85345985D01*
X11402380Y-85345985D02*
X11340476Y-85469795D01*
X11340476Y-85469795D02*
X11278571Y-85531700D01*
X11278571Y-85531700D02*
X11154761Y-85593604D01*
X11154761Y-85593604D02*
X10659523Y-85593604D01*
X10659523Y-85593604D02*
X10659523Y-84293604D01*
X10659523Y-84293604D02*
X11092857Y-84293604D01*
X11092857Y-84293604D02*
X11216666Y-84355509D01*
X11216666Y-84355509D02*
X11278571Y-84417414D01*
X11278571Y-84417414D02*
X11340476Y-84541223D01*
X11340476Y-84541223D02*
X11340476Y-84665033D01*
X11340476Y-84665033D02*
X11278571Y-84788842D01*
X11278571Y-84788842D02*
X11216666Y-84850747D01*
X11216666Y-84850747D02*
X11092857Y-84912652D01*
X11092857Y-84912652D02*
X10659523Y-84912652D01*
D10*
D11*
X11402380Y-135469795D02*
X11340476Y-135531700D01*
X11340476Y-135531700D02*
X11154761Y-135593604D01*
X11154761Y-135593604D02*
X11030952Y-135593604D01*
X11030952Y-135593604D02*
X10845238Y-135531700D01*
X10845238Y-135531700D02*
X10721428Y-135407890D01*
X10721428Y-135407890D02*
X10659523Y-135284080D01*
X10659523Y-135284080D02*
X10597619Y-135036461D01*
X10597619Y-135036461D02*
X10597619Y-134850747D01*
X10597619Y-134850747D02*
X10659523Y-134603128D01*
X10659523Y-134603128D02*
X10721428Y-134479319D01*
X10721428Y-134479319D02*
X10845238Y-134355509D01*
X10845238Y-134355509D02*
X11030952Y-134293604D01*
X11030952Y-134293604D02*
X11154761Y-134293604D01*
X11154761Y-134293604D02*
X11340476Y-134355509D01*
X11340476Y-134355509D02*
X11402380Y-134417414D01*
D10*
D11*
X10659523Y-185593604D02*
X10659523Y-184293604D01*
X10659523Y-184293604D02*
X10969047Y-184293604D01*
X10969047Y-184293604D02*
X11154761Y-184355509D01*
X11154761Y-184355509D02*
X11278571Y-184479319D01*
X11278571Y-184479319D02*
X11340476Y-184603128D01*
X11340476Y-184603128D02*
X11402380Y-184850747D01*
X11402380Y-184850747D02*
X11402380Y-185036461D01*
X11402380Y-185036461D02*
X11340476Y-185284080D01*
X11340476Y-185284080D02*
X11278571Y-185407890D01*
X11278571Y-185407890D02*
X11154761Y-185531700D01*
X11154761Y-185531700D02*
X10969047Y-185593604D01*
X10969047Y-185593604D02*
X10659523Y-185593604D01*
D10*
D11*
X287002200Y-60000000D02*
X285002200Y-60000000D01*
D10*
D11*
X287002200Y-110000000D02*
X285002200Y-110000000D01*
D10*
D11*
X287002200Y-160000000D02*
X285002200Y-160000000D01*
D10*
D11*
X285692676Y-35222176D02*
X286311723Y-35222176D01*
X285568866Y-35593604D02*
X286002199Y-34293604D01*
X286002199Y-34293604D02*
X286435533Y-35593604D01*
D10*
D11*
X286095057Y-84912652D02*
X286280771Y-84974557D01*
X286280771Y-84974557D02*
X286342676Y-85036461D01*
X286342676Y-85036461D02*
X286404580Y-85160271D01*
X286404580Y-85160271D02*
X286404580Y-85345985D01*
X286404580Y-85345985D02*
X286342676Y-85469795D01*
X286342676Y-85469795D02*
X286280771Y-85531700D01*
X286280771Y-85531700D02*
X286156961Y-85593604D01*
X286156961Y-85593604D02*
X285661723Y-85593604D01*
X285661723Y-85593604D02*
X285661723Y-84293604D01*
X285661723Y-84293604D02*
X286095057Y-84293604D01*
X286095057Y-84293604D02*
X286218866Y-84355509D01*
X286218866Y-84355509D02*
X286280771Y-84417414D01*
X286280771Y-84417414D02*
X286342676Y-84541223D01*
X286342676Y-84541223D02*
X286342676Y-84665033D01*
X286342676Y-84665033D02*
X286280771Y-84788842D01*
X286280771Y-84788842D02*
X286218866Y-84850747D01*
X286218866Y-84850747D02*
X286095057Y-84912652D01*
X286095057Y-84912652D02*
X285661723Y-84912652D01*
D10*
D11*
X286404580Y-135469795D02*
X286342676Y-135531700D01*
X286342676Y-135531700D02*
X286156961Y-135593604D01*
X286156961Y-135593604D02*
X286033152Y-135593604D01*
X286033152Y-135593604D02*
X285847438Y-135531700D01*
X285847438Y-135531700D02*
X285723628Y-135407890D01*
X285723628Y-135407890D02*
X285661723Y-135284080D01*
X285661723Y-135284080D02*
X285599819Y-135036461D01*
X285599819Y-135036461D02*
X285599819Y-134850747D01*
X285599819Y-134850747D02*
X285661723Y-134603128D01*
X285661723Y-134603128D02*
X285723628Y-134479319D01*
X285723628Y-134479319D02*
X285847438Y-134355509D01*
X285847438Y-134355509D02*
X286033152Y-134293604D01*
X286033152Y-134293604D02*
X286156961Y-134293604D01*
X286156961Y-134293604D02*
X286342676Y-134355509D01*
X286342676Y-134355509D02*
X286404580Y-134417414D01*
D10*
D11*
X285661723Y-185593604D02*
X285661723Y-184293604D01*
X285661723Y-184293604D02*
X285971247Y-184293604D01*
X285971247Y-184293604D02*
X286156961Y-184355509D01*
X286156961Y-184355509D02*
X286280771Y-184479319D01*
X286280771Y-184479319D02*
X286342676Y-184603128D01*
X286342676Y-184603128D02*
X286404580Y-184850747D01*
X286404580Y-184850747D02*
X286404580Y-185036461D01*
X286404580Y-185036461D02*
X286342676Y-185284080D01*
X286342676Y-185284080D02*
X286280771Y-185407890D01*
X286280771Y-185407890D02*
X286156961Y-185531700D01*
X286156961Y-185531700D02*
X285971247Y-185593604D01*
X285971247Y-185593604D02*
X285661723Y-185593604D01*
D10*
D11*
X200458026Y-193793328D02*
X200458026Y-192293328D01*
X200458026Y-192293328D02*
X200815169Y-192293328D01*
X200815169Y-192293328D02*
X201029455Y-192364757D01*
X201029455Y-192364757D02*
X201172312Y-192507614D01*
X201172312Y-192507614D02*
X201243741Y-192650471D01*
X201243741Y-192650471D02*
X201315169Y-192936185D01*
X201315169Y-192936185D02*
X201315169Y-193150471D01*
X201315169Y-193150471D02*
X201243741Y-193436185D01*
X201243741Y-193436185D02*
X201172312Y-193579042D01*
X201172312Y-193579042D02*
X201029455Y-193721900D01*
X201029455Y-193721900D02*
X200815169Y-193793328D01*
X200815169Y-193793328D02*
X200458026Y-193793328D01*
X202600884Y-193793328D02*
X202600884Y-193007614D01*
X202600884Y-193007614D02*
X202529455Y-192864757D01*
X202529455Y-192864757D02*
X202386598Y-192793328D01*
X202386598Y-192793328D02*
X202100884Y-192793328D01*
X202100884Y-192793328D02*
X201958026Y-192864757D01*
X202600884Y-193721900D02*
X202458026Y-193793328D01*
X202458026Y-193793328D02*
X202100884Y-193793328D01*
X202100884Y-193793328D02*
X201958026Y-193721900D01*
X201958026Y-193721900D02*
X201886598Y-193579042D01*
X201886598Y-193579042D02*
X201886598Y-193436185D01*
X201886598Y-193436185D02*
X201958026Y-193293328D01*
X201958026Y-193293328D02*
X202100884Y-193221900D01*
X202100884Y-193221900D02*
X202458026Y-193221900D01*
X202458026Y-193221900D02*
X202600884Y-193150471D01*
X203100884Y-192793328D02*
X203672312Y-192793328D01*
X203315169Y-192293328D02*
X203315169Y-193579042D01*
X203315169Y-193579042D02*
X203386598Y-193721900D01*
X203386598Y-193721900D02*
X203529455Y-193793328D01*
X203529455Y-193793328D02*
X203672312Y-193793328D01*
X204743741Y-193721900D02*
X204600884Y-193793328D01*
X204600884Y-193793328D02*
X204315170Y-193793328D01*
X204315170Y-193793328D02*
X204172312Y-193721900D01*
X204172312Y-193721900D02*
X204100884Y-193579042D01*
X204100884Y-193579042D02*
X204100884Y-193007614D01*
X204100884Y-193007614D02*
X204172312Y-192864757D01*
X204172312Y-192864757D02*
X204315170Y-192793328D01*
X204315170Y-192793328D02*
X204600884Y-192793328D01*
X204600884Y-192793328D02*
X204743741Y-192864757D01*
X204743741Y-192864757D02*
X204815170Y-193007614D01*
X204815170Y-193007614D02*
X204815170Y-193150471D01*
X204815170Y-193150471D02*
X204100884Y-193293328D01*
X205458026Y-193650471D02*
X205529455Y-193721900D01*
X205529455Y-193721900D02*
X205458026Y-193793328D01*
X205458026Y-193793328D02*
X205386598Y-193721900D01*
X205386598Y-193721900D02*
X205458026Y-193650471D01*
X205458026Y-193650471D02*
X205458026Y-193793328D01*
X205458026Y-192864757D02*
X205529455Y-192936185D01*
X205529455Y-192936185D02*
X205458026Y-193007614D01*
X205458026Y-193007614D02*
X205386598Y-192936185D01*
X205386598Y-192936185D02*
X205458026Y-192864757D01*
X205458026Y-192864757D02*
X205458026Y-193007614D01*
D10*
D11*
X177002200Y-194507200D02*
X285002200Y-194507200D01*
D10*
D11*
X178458026Y-196593328D02*
X178458026Y-195093328D01*
X179315169Y-196593328D02*
X178672312Y-195736185D01*
X179315169Y-195093328D02*
X178458026Y-195950471D01*
X179958026Y-196593328D02*
X179958026Y-195593328D01*
X179958026Y-195093328D02*
X179886598Y-195164757D01*
X179886598Y-195164757D02*
X179958026Y-195236185D01*
X179958026Y-195236185D02*
X180029455Y-195164757D01*
X180029455Y-195164757D02*
X179958026Y-195093328D01*
X179958026Y-195093328D02*
X179958026Y-195236185D01*
X181529455Y-196450471D02*
X181458027Y-196521900D01*
X181458027Y-196521900D02*
X181243741Y-196593328D01*
X181243741Y-196593328D02*
X181100884Y-196593328D01*
X181100884Y-196593328D02*
X180886598Y-196521900D01*
X180886598Y-196521900D02*
X180743741Y-196379042D01*
X180743741Y-196379042D02*
X180672312Y-196236185D01*
X180672312Y-196236185D02*
X180600884Y-195950471D01*
X180600884Y-195950471D02*
X180600884Y-195736185D01*
X180600884Y-195736185D02*
X180672312Y-195450471D01*
X180672312Y-195450471D02*
X180743741Y-195307614D01*
X180743741Y-195307614D02*
X180886598Y-195164757D01*
X180886598Y-195164757D02*
X181100884Y-195093328D01*
X181100884Y-195093328D02*
X181243741Y-195093328D01*
X181243741Y-195093328D02*
X181458027Y-195164757D01*
X181458027Y-195164757D02*
X181529455Y-195236185D01*
X182815170Y-196593328D02*
X182815170Y-195807614D01*
X182815170Y-195807614D02*
X182743741Y-195664757D01*
X182743741Y-195664757D02*
X182600884Y-195593328D01*
X182600884Y-195593328D02*
X182315170Y-195593328D01*
X182315170Y-195593328D02*
X182172312Y-195664757D01*
X182815170Y-196521900D02*
X182672312Y-196593328D01*
X182672312Y-196593328D02*
X182315170Y-196593328D01*
X182315170Y-196593328D02*
X182172312Y-196521900D01*
X182172312Y-196521900D02*
X182100884Y-196379042D01*
X182100884Y-196379042D02*
X182100884Y-196236185D01*
X182100884Y-196236185D02*
X182172312Y-196093328D01*
X182172312Y-196093328D02*
X182315170Y-196021900D01*
X182315170Y-196021900D02*
X182672312Y-196021900D01*
X182672312Y-196021900D02*
X182815170Y-195950471D01*
X184172313Y-196593328D02*
X184172313Y-195093328D01*
X184172313Y-196521900D02*
X184029455Y-196593328D01*
X184029455Y-196593328D02*
X183743741Y-196593328D01*
X183743741Y-196593328D02*
X183600884Y-196521900D01*
X183600884Y-196521900D02*
X183529455Y-196450471D01*
X183529455Y-196450471D02*
X183458027Y-196307614D01*
X183458027Y-196307614D02*
X183458027Y-195879042D01*
X183458027Y-195879042D02*
X183529455Y-195736185D01*
X183529455Y-195736185D02*
X183600884Y-195664757D01*
X183600884Y-195664757D02*
X183743741Y-195593328D01*
X183743741Y-195593328D02*
X184029455Y-195593328D01*
X184029455Y-195593328D02*
X184172313Y-195664757D01*
X186029455Y-195807614D02*
X186529455Y-195807614D01*
X186743741Y-196593328D02*
X186029455Y-196593328D01*
X186029455Y-196593328D02*
X186029455Y-195093328D01*
X186029455Y-195093328D02*
X186743741Y-195093328D01*
X187386598Y-196450471D02*
X187458027Y-196521900D01*
X187458027Y-196521900D02*
X187386598Y-196593328D01*
X187386598Y-196593328D02*
X187315170Y-196521900D01*
X187315170Y-196521900D02*
X187386598Y-196450471D01*
X187386598Y-196450471D02*
X187386598Y-196593328D01*
X188100884Y-196593328D02*
X188100884Y-195093328D01*
X188100884Y-195093328D02*
X188458027Y-195093328D01*
X188458027Y-195093328D02*
X188672313Y-195164757D01*
X188672313Y-195164757D02*
X188815170Y-195307614D01*
X188815170Y-195307614D02*
X188886599Y-195450471D01*
X188886599Y-195450471D02*
X188958027Y-195736185D01*
X188958027Y-195736185D02*
X188958027Y-195950471D01*
X188958027Y-195950471D02*
X188886599Y-196236185D01*
X188886599Y-196236185D02*
X188815170Y-196379042D01*
X188815170Y-196379042D02*
X188672313Y-196521900D01*
X188672313Y-196521900D02*
X188458027Y-196593328D01*
X188458027Y-196593328D02*
X188100884Y-196593328D01*
X189600884Y-196450471D02*
X189672313Y-196521900D01*
X189672313Y-196521900D02*
X189600884Y-196593328D01*
X189600884Y-196593328D02*
X189529456Y-196521900D01*
X189529456Y-196521900D02*
X189600884Y-196450471D01*
X189600884Y-196450471D02*
X189600884Y-196593328D01*
X190243742Y-196164757D02*
X190958028Y-196164757D01*
X190100885Y-196593328D02*
X190600885Y-195093328D01*
X190600885Y-195093328D02*
X191100885Y-196593328D01*
X191600884Y-196450471D02*
X191672313Y-196521900D01*
X191672313Y-196521900D02*
X191600884Y-196593328D01*
X191600884Y-196593328D02*
X191529456Y-196521900D01*
X191529456Y-196521900D02*
X191600884Y-196450471D01*
X191600884Y-196450471D02*
X191600884Y-196593328D01*
X193529456Y-196593328D02*
X193815170Y-196593328D01*
X193815170Y-196593328D02*
X193958027Y-196521900D01*
X193958027Y-196521900D02*
X194029456Y-196450471D01*
X194029456Y-196450471D02*
X194172313Y-196236185D01*
X194172313Y-196236185D02*
X194243742Y-195950471D01*
X194243742Y-195950471D02*
X194243742Y-195379042D01*
X194243742Y-195379042D02*
X194172313Y-195236185D01*
X194172313Y-195236185D02*
X194100885Y-195164757D01*
X194100885Y-195164757D02*
X193958027Y-195093328D01*
X193958027Y-195093328D02*
X193672313Y-195093328D01*
X193672313Y-195093328D02*
X193529456Y-195164757D01*
X193529456Y-195164757D02*
X193458027Y-195236185D01*
X193458027Y-195236185D02*
X193386599Y-195379042D01*
X193386599Y-195379042D02*
X193386599Y-195736185D01*
X193386599Y-195736185D02*
X193458027Y-195879042D01*
X193458027Y-195879042D02*
X193529456Y-195950471D01*
X193529456Y-195950471D02*
X193672313Y-196021900D01*
X193672313Y-196021900D02*
X193958027Y-196021900D01*
X193958027Y-196021900D02*
X194100885Y-195950471D01*
X194100885Y-195950471D02*
X194172313Y-195879042D01*
X194172313Y-195879042D02*
X194243742Y-195736185D01*
X194886598Y-196450471D02*
X194958027Y-196521900D01*
X194958027Y-196521900D02*
X194886598Y-196593328D01*
X194886598Y-196593328D02*
X194815170Y-196521900D01*
X194815170Y-196521900D02*
X194886598Y-196450471D01*
X194886598Y-196450471D02*
X194886598Y-196593328D01*
X195886599Y-195093328D02*
X196029456Y-195093328D01*
X196029456Y-195093328D02*
X196172313Y-195164757D01*
X196172313Y-195164757D02*
X196243742Y-195236185D01*
X196243742Y-195236185D02*
X196315170Y-195379042D01*
X196315170Y-195379042D02*
X196386599Y-195664757D01*
X196386599Y-195664757D02*
X196386599Y-196021900D01*
X196386599Y-196021900D02*
X196315170Y-196307614D01*
X196315170Y-196307614D02*
X196243742Y-196450471D01*
X196243742Y-196450471D02*
X196172313Y-196521900D01*
X196172313Y-196521900D02*
X196029456Y-196593328D01*
X196029456Y-196593328D02*
X195886599Y-196593328D01*
X195886599Y-196593328D02*
X195743742Y-196521900D01*
X195743742Y-196521900D02*
X195672313Y-196450471D01*
X195672313Y-196450471D02*
X195600884Y-196307614D01*
X195600884Y-196307614D02*
X195529456Y-196021900D01*
X195529456Y-196021900D02*
X195529456Y-195664757D01*
X195529456Y-195664757D02*
X195600884Y-195379042D01*
X195600884Y-195379042D02*
X195672313Y-195236185D01*
X195672313Y-195236185D02*
X195743742Y-195164757D01*
X195743742Y-195164757D02*
X195886599Y-195093328D01*
X197029455Y-196450471D02*
X197100884Y-196521900D01*
X197100884Y-196521900D02*
X197029455Y-196593328D01*
X197029455Y-196593328D02*
X196958027Y-196521900D01*
X196958027Y-196521900D02*
X197029455Y-196450471D01*
X197029455Y-196450471D02*
X197029455Y-196593328D01*
X197600884Y-195093328D02*
X198600884Y-195093328D01*
X198600884Y-195093328D02*
X197958027Y-196593328D01*
D10*
D11*
X177002200Y-191507200D02*
X285002200Y-191507200D01*
D10*
D12*
X264413853Y-193785528D02*
X263913853Y-193071242D01*
X263556710Y-193785528D02*
X263556710Y-192285528D01*
X263556710Y-192285528D02*
X264128139Y-192285528D01*
X264128139Y-192285528D02*
X264270996Y-192356957D01*
X264270996Y-192356957D02*
X264342425Y-192428385D01*
X264342425Y-192428385D02*
X264413853Y-192571242D01*
X264413853Y-192571242D02*
X264413853Y-192785528D01*
X264413853Y-192785528D02*
X264342425Y-192928385D01*
X264342425Y-192928385D02*
X264270996Y-192999814D01*
X264270996Y-192999814D02*
X264128139Y-193071242D01*
X264128139Y-193071242D02*
X263556710Y-193071242D01*
X265628139Y-193714100D02*
X265485282Y-193785528D01*
X265485282Y-193785528D02*
X265199568Y-193785528D01*
X265199568Y-193785528D02*
X265056710Y-193714100D01*
X265056710Y-193714100D02*
X264985282Y-193571242D01*
X264985282Y-193571242D02*
X264985282Y-192999814D01*
X264985282Y-192999814D02*
X265056710Y-192856957D01*
X265056710Y-192856957D02*
X265199568Y-192785528D01*
X265199568Y-192785528D02*
X265485282Y-192785528D01*
X265485282Y-192785528D02*
X265628139Y-192856957D01*
X265628139Y-192856957D02*
X265699568Y-192999814D01*
X265699568Y-192999814D02*
X265699568Y-193142671D01*
X265699568Y-193142671D02*
X264985282Y-193285528D01*
X266199567Y-192785528D02*
X266556710Y-193785528D01*
X266556710Y-193785528D02*
X266913853Y-192785528D01*
X267485281Y-193642671D02*
X267556710Y-193714100D01*
X267556710Y-193714100D02*
X267485281Y-193785528D01*
X267485281Y-193785528D02*
X267413853Y-193714100D01*
X267413853Y-193714100D02*
X267485281Y-193642671D01*
X267485281Y-193642671D02*
X267485281Y-193785528D01*
X267485281Y-192856957D02*
X267556710Y-192928385D01*
X267556710Y-192928385D02*
X267485281Y-192999814D01*
X267485281Y-192999814D02*
X267413853Y-192928385D01*
X267413853Y-192928385D02*
X267485281Y-192856957D01*
X267485281Y-192856957D02*
X267485281Y-192999814D01*
D10*
D11*
X178386598Y-193721900D02*
X178600884Y-193793328D01*
X178600884Y-193793328D02*
X178958026Y-193793328D01*
X178958026Y-193793328D02*
X179100884Y-193721900D01*
X179100884Y-193721900D02*
X179172312Y-193650471D01*
X179172312Y-193650471D02*
X179243741Y-193507614D01*
X179243741Y-193507614D02*
X179243741Y-193364757D01*
X179243741Y-193364757D02*
X179172312Y-193221900D01*
X179172312Y-193221900D02*
X179100884Y-193150471D01*
X179100884Y-193150471D02*
X178958026Y-193079042D01*
X178958026Y-193079042D02*
X178672312Y-193007614D01*
X178672312Y-193007614D02*
X178529455Y-192936185D01*
X178529455Y-192936185D02*
X178458026Y-192864757D01*
X178458026Y-192864757D02*
X178386598Y-192721900D01*
X178386598Y-192721900D02*
X178386598Y-192579042D01*
X178386598Y-192579042D02*
X178458026Y-192436185D01*
X178458026Y-192436185D02*
X178529455Y-192364757D01*
X178529455Y-192364757D02*
X178672312Y-192293328D01*
X178672312Y-192293328D02*
X179029455Y-192293328D01*
X179029455Y-192293328D02*
X179243741Y-192364757D01*
X179886597Y-193793328D02*
X179886597Y-192793328D01*
X179886597Y-192293328D02*
X179815169Y-192364757D01*
X179815169Y-192364757D02*
X179886597Y-192436185D01*
X179886597Y-192436185D02*
X179958026Y-192364757D01*
X179958026Y-192364757D02*
X179886597Y-192293328D01*
X179886597Y-192293328D02*
X179886597Y-192436185D01*
X180458026Y-192793328D02*
X181243741Y-192793328D01*
X181243741Y-192793328D02*
X180458026Y-193793328D01*
X180458026Y-193793328D02*
X181243741Y-193793328D01*
X182386598Y-193721900D02*
X182243741Y-193793328D01*
X182243741Y-193793328D02*
X181958027Y-193793328D01*
X181958027Y-193793328D02*
X181815169Y-193721900D01*
X181815169Y-193721900D02*
X181743741Y-193579042D01*
X181743741Y-193579042D02*
X181743741Y-193007614D01*
X181743741Y-193007614D02*
X181815169Y-192864757D01*
X181815169Y-192864757D02*
X181958027Y-192793328D01*
X181958027Y-192793328D02*
X182243741Y-192793328D01*
X182243741Y-192793328D02*
X182386598Y-192864757D01*
X182386598Y-192864757D02*
X182458027Y-193007614D01*
X182458027Y-193007614D02*
X182458027Y-193150471D01*
X182458027Y-193150471D02*
X181743741Y-193293328D01*
X183100883Y-193650471D02*
X183172312Y-193721900D01*
X183172312Y-193721900D02*
X183100883Y-193793328D01*
X183100883Y-193793328D02*
X183029455Y-193721900D01*
X183029455Y-193721900D02*
X183100883Y-193650471D01*
X183100883Y-193650471D02*
X183100883Y-193793328D01*
X183100883Y-192864757D02*
X183172312Y-192936185D01*
X183172312Y-192936185D02*
X183100883Y-193007614D01*
X183100883Y-193007614D02*
X183029455Y-192936185D01*
X183029455Y-192936185D02*
X183100883Y-192864757D01*
X183100883Y-192864757D02*
X183100883Y-193007614D01*
X184886598Y-193364757D02*
X185600884Y-193364757D01*
X184743741Y-193793328D02*
X185243741Y-192293328D01*
X185243741Y-192293328D02*
X185743741Y-193793328D01*
X186886598Y-192793328D02*
X186886598Y-193793328D01*
X186529455Y-192221900D02*
X186172312Y-193293328D01*
X186172312Y-193293328D02*
X187100883Y-193293328D01*
D10*
D11*
X263458026Y-196593328D02*
X263458026Y-195093328D01*
X264815170Y-196593328D02*
X264815170Y-195093328D01*
X264815170Y-196521900D02*
X264672312Y-196593328D01*
X264672312Y-196593328D02*
X264386598Y-196593328D01*
X264386598Y-196593328D02*
X264243741Y-196521900D01*
X264243741Y-196521900D02*
X264172312Y-196450471D01*
X264172312Y-196450471D02*
X264100884Y-196307614D01*
X264100884Y-196307614D02*
X264100884Y-195879042D01*
X264100884Y-195879042D02*
X264172312Y-195736185D01*
X264172312Y-195736185D02*
X264243741Y-195664757D01*
X264243741Y-195664757D02*
X264386598Y-195593328D01*
X264386598Y-195593328D02*
X264672312Y-195593328D01*
X264672312Y-195593328D02*
X264815170Y-195664757D01*
X265529455Y-196450471D02*
X265600884Y-196521900D01*
X265600884Y-196521900D02*
X265529455Y-196593328D01*
X265529455Y-196593328D02*
X265458027Y-196521900D01*
X265458027Y-196521900D02*
X265529455Y-196450471D01*
X265529455Y-196450471D02*
X265529455Y-196593328D01*
X265529455Y-195664757D02*
X265600884Y-195736185D01*
X265600884Y-195736185D02*
X265529455Y-195807614D01*
X265529455Y-195807614D02*
X265458027Y-195736185D01*
X265458027Y-195736185D02*
X265529455Y-195664757D01*
X265529455Y-195664757D02*
X265529455Y-195807614D01*
X268100884Y-195093328D02*
X267386598Y-195093328D01*
X267386598Y-195093328D02*
X267315170Y-195807614D01*
X267315170Y-195807614D02*
X267386598Y-195736185D01*
X267386598Y-195736185D02*
X267529456Y-195664757D01*
X267529456Y-195664757D02*
X267886598Y-195664757D01*
X267886598Y-195664757D02*
X268029456Y-195736185D01*
X268029456Y-195736185D02*
X268100884Y-195807614D01*
X268100884Y-195807614D02*
X268172313Y-195950471D01*
X268172313Y-195950471D02*
X268172313Y-196307614D01*
X268172313Y-196307614D02*
X268100884Y-196450471D01*
X268100884Y-196450471D02*
X268029456Y-196521900D01*
X268029456Y-196521900D02*
X267886598Y-196593328D01*
X267886598Y-196593328D02*
X267529456Y-196593328D01*
X267529456Y-196593328D02*
X267386598Y-196521900D01*
X267386598Y-196521900D02*
X267315170Y-196450471D01*
X269886598Y-195021900D02*
X268600884Y-196950471D01*
X270458027Y-196593328D02*
X270743741Y-196593328D01*
X270743741Y-196593328D02*
X270886598Y-196521900D01*
X270886598Y-196521900D02*
X270958027Y-196450471D01*
X270958027Y-196450471D02*
X271100884Y-196236185D01*
X271100884Y-196236185D02*
X271172313Y-195950471D01*
X271172313Y-195950471D02*
X271172313Y-195379042D01*
X271172313Y-195379042D02*
X271100884Y-195236185D01*
X271100884Y-195236185D02*
X271029456Y-195164757D01*
X271029456Y-195164757D02*
X270886598Y-195093328D01*
X270886598Y-195093328D02*
X270600884Y-195093328D01*
X270600884Y-195093328D02*
X270458027Y-195164757D01*
X270458027Y-195164757D02*
X270386598Y-195236185D01*
X270386598Y-195236185D02*
X270315170Y-195379042D01*
X270315170Y-195379042D02*
X270315170Y-195736185D01*
X270315170Y-195736185D02*
X270386598Y-195879042D01*
X270386598Y-195879042D02*
X270458027Y-195950471D01*
X270458027Y-195950471D02*
X270600884Y-196021900D01*
X270600884Y-196021900D02*
X270886598Y-196021900D01*
X270886598Y-196021900D02*
X271029456Y-195950471D01*
X271029456Y-195950471D02*
X271100884Y-195879042D01*
X271100884Y-195879042D02*
X271172313Y-195736185D01*
D10*
D11*
X177002200Y-187507200D02*
X285002200Y-187507200D01*
D10*
D13*
X178693928Y-188211638D02*
X179836785Y-188211638D01*
X179015357Y-190211638D02*
X179265357Y-188211638D01*
X180253452Y-190211638D02*
X180420119Y-188878304D01*
X180503452Y-188211638D02*
X180396309Y-188306876D01*
X180396309Y-188306876D02*
X180479643Y-188402114D01*
X180479643Y-188402114D02*
X180586786Y-188306876D01*
X180586786Y-188306876D02*
X180503452Y-188211638D01*
X180503452Y-188211638D02*
X180479643Y-188402114D01*
X181086786Y-188878304D02*
X181848690Y-188878304D01*
X181455833Y-188211638D02*
X181241548Y-189925923D01*
X181241548Y-189925923D02*
X181312976Y-190116400D01*
X181312976Y-190116400D02*
X181491548Y-190211638D01*
X181491548Y-190211638D02*
X181682024Y-190211638D01*
X182634405Y-190211638D02*
X182455833Y-190116400D01*
X182455833Y-190116400D02*
X182384405Y-189925923D01*
X182384405Y-189925923D02*
X182598690Y-188211638D01*
X184170119Y-190116400D02*
X183967738Y-190211638D01*
X183967738Y-190211638D02*
X183586785Y-190211638D01*
X183586785Y-190211638D02*
X183408214Y-190116400D01*
X183408214Y-190116400D02*
X183336785Y-189925923D01*
X183336785Y-189925923D02*
X183432024Y-189164019D01*
X183432024Y-189164019D02*
X183551071Y-188973542D01*
X183551071Y-188973542D02*
X183753452Y-188878304D01*
X183753452Y-188878304D02*
X184134404Y-188878304D01*
X184134404Y-188878304D02*
X184312976Y-188973542D01*
X184312976Y-188973542D02*
X184384404Y-189164019D01*
X184384404Y-189164019D02*
X184360595Y-189354495D01*
X184360595Y-189354495D02*
X183384404Y-189544971D01*
X185134405Y-190021161D02*
X185217738Y-190116400D01*
X185217738Y-190116400D02*
X185110595Y-190211638D01*
X185110595Y-190211638D02*
X185027262Y-190116400D01*
X185027262Y-190116400D02*
X185134405Y-190021161D01*
X185134405Y-190021161D02*
X185110595Y-190211638D01*
X185265357Y-188973542D02*
X185348690Y-189068780D01*
X185348690Y-189068780D02*
X185241548Y-189164019D01*
X185241548Y-189164019D02*
X185158214Y-189068780D01*
X185158214Y-189068780D02*
X185265357Y-188973542D01*
X185265357Y-188973542D02*
X185241548Y-189164019D01*
D10*
D11*
X178958026Y-185607614D02*
X178458026Y-185607614D01*
X178458026Y-186393328D02*
X178458026Y-184893328D01*
X178458026Y-184893328D02*
X179172312Y-184893328D01*
X179743740Y-186393328D02*
X179743740Y-185393328D01*
X179743740Y-184893328D02*
X179672312Y-184964757D01*
X179672312Y-184964757D02*
X179743740Y-185036185D01*
X179743740Y-185036185D02*
X179815169Y-184964757D01*
X179815169Y-184964757D02*
X179743740Y-184893328D01*
X179743740Y-184893328D02*
X179743740Y-185036185D01*
X180672312Y-186393328D02*
X180529455Y-186321900D01*
X180529455Y-186321900D02*
X180458026Y-186179042D01*
X180458026Y-186179042D02*
X180458026Y-184893328D01*
X181815169Y-186321900D02*
X181672312Y-186393328D01*
X181672312Y-186393328D02*
X181386598Y-186393328D01*
X181386598Y-186393328D02*
X181243740Y-186321900D01*
X181243740Y-186321900D02*
X181172312Y-186179042D01*
X181172312Y-186179042D02*
X181172312Y-185607614D01*
X181172312Y-185607614D02*
X181243740Y-185464757D01*
X181243740Y-185464757D02*
X181386598Y-185393328D01*
X181386598Y-185393328D02*
X181672312Y-185393328D01*
X181672312Y-185393328D02*
X181815169Y-185464757D01*
X181815169Y-185464757D02*
X181886598Y-185607614D01*
X181886598Y-185607614D02*
X181886598Y-185750471D01*
X181886598Y-185750471D02*
X181172312Y-185893328D01*
X182529454Y-186250471D02*
X182600883Y-186321900D01*
X182600883Y-186321900D02*
X182529454Y-186393328D01*
X182529454Y-186393328D02*
X182458026Y-186321900D01*
X182458026Y-186321900D02*
X182529454Y-186250471D01*
X182529454Y-186250471D02*
X182529454Y-186393328D01*
X182529454Y-185464757D02*
X182600883Y-185536185D01*
X182600883Y-185536185D02*
X182529454Y-185607614D01*
X182529454Y-185607614D02*
X182458026Y-185536185D01*
X182458026Y-185536185D02*
X182529454Y-185464757D01*
X182529454Y-185464757D02*
X182529454Y-185607614D01*
X184386597Y-186393328D02*
X184386597Y-184893328D01*
X184386597Y-185464757D02*
X184529455Y-185393328D01*
X184529455Y-185393328D02*
X184815169Y-185393328D01*
X184815169Y-185393328D02*
X184958026Y-185464757D01*
X184958026Y-185464757D02*
X185029455Y-185536185D01*
X185029455Y-185536185D02*
X185100883Y-185679042D01*
X185100883Y-185679042D02*
X185100883Y-186107614D01*
X185100883Y-186107614D02*
X185029455Y-186250471D01*
X185029455Y-186250471D02*
X184958026Y-186321900D01*
X184958026Y-186321900D02*
X184815169Y-186393328D01*
X184815169Y-186393328D02*
X184529455Y-186393328D01*
X184529455Y-186393328D02*
X184386597Y-186321900D01*
X186315169Y-186321900D02*
X186172312Y-186393328D01*
X186172312Y-186393328D02*
X185886598Y-186393328D01*
X185886598Y-186393328D02*
X185743740Y-186321900D01*
X185743740Y-186321900D02*
X185672312Y-186179042D01*
X185672312Y-186179042D02*
X185672312Y-185607614D01*
X185672312Y-185607614D02*
X185743740Y-185464757D01*
X185743740Y-185464757D02*
X185886598Y-185393328D01*
X185886598Y-185393328D02*
X186172312Y-185393328D01*
X186172312Y-185393328D02*
X186315169Y-185464757D01*
X186315169Y-185464757D02*
X186386598Y-185607614D01*
X186386598Y-185607614D02*
X186386598Y-185750471D01*
X186386598Y-185750471D02*
X185672312Y-185893328D01*
X186815169Y-185393328D02*
X187386597Y-185393328D01*
X187029454Y-184893328D02*
X187029454Y-186179042D01*
X187029454Y-186179042D02*
X187100883Y-186321900D01*
X187100883Y-186321900D02*
X187243740Y-186393328D01*
X187243740Y-186393328D02*
X187386597Y-186393328D01*
X188529455Y-186393328D02*
X188529455Y-185607614D01*
X188529455Y-185607614D02*
X188458026Y-185464757D01*
X188458026Y-185464757D02*
X188315169Y-185393328D01*
X188315169Y-185393328D02*
X188029455Y-185393328D01*
X188029455Y-185393328D02*
X187886597Y-185464757D01*
X188529455Y-186321900D02*
X188386597Y-186393328D01*
X188386597Y-186393328D02*
X188029455Y-186393328D01*
X188029455Y-186393328D02*
X187886597Y-186321900D01*
X187886597Y-186321900D02*
X187815169Y-186179042D01*
X187815169Y-186179042D02*
X187815169Y-186036185D01*
X187815169Y-186036185D02*
X187886597Y-185893328D01*
X187886597Y-185893328D02*
X188029455Y-185821900D01*
X188029455Y-185821900D02*
X188386597Y-185821900D01*
X188386597Y-185821900D02*
X188529455Y-185750471D01*
X189172312Y-186321900D02*
X189315169Y-186393328D01*
X189315169Y-186393328D02*
X189600883Y-186393328D01*
X189600883Y-186393328D02*
X189743740Y-186321900D01*
X189743740Y-186321900D02*
X189815169Y-186179042D01*
X189815169Y-186179042D02*
X189815169Y-186107614D01*
X189815169Y-186107614D02*
X189743740Y-185964757D01*
X189743740Y-185964757D02*
X189600883Y-185893328D01*
X189600883Y-185893328D02*
X189386598Y-185893328D01*
X189386598Y-185893328D02*
X189243740Y-185821900D01*
X189243740Y-185821900D02*
X189172312Y-185679042D01*
X189172312Y-185679042D02*
X189172312Y-185607614D01*
X189172312Y-185607614D02*
X189243740Y-185464757D01*
X189243740Y-185464757D02*
X189386598Y-185393328D01*
X189386598Y-185393328D02*
X189600883Y-185393328D01*
X189600883Y-185393328D02*
X189743740Y-185464757D01*
X190458026Y-185393328D02*
X190458026Y-186893328D01*
X190458026Y-185464757D02*
X190600884Y-185393328D01*
X190600884Y-185393328D02*
X190886598Y-185393328D01*
X190886598Y-185393328D02*
X191029455Y-185464757D01*
X191029455Y-185464757D02*
X191100884Y-185536185D01*
X191100884Y-185536185D02*
X191172312Y-185679042D01*
X191172312Y-185679042D02*
X191172312Y-186107614D01*
X191172312Y-186107614D02*
X191100884Y-186250471D01*
X191100884Y-186250471D02*
X191029455Y-186321900D01*
X191029455Y-186321900D02*
X190886598Y-186393328D01*
X190886598Y-186393328D02*
X190600884Y-186393328D01*
X190600884Y-186393328D02*
X190458026Y-186321900D01*
X191815169Y-186393328D02*
X191815169Y-185393328D01*
X191815169Y-185679042D02*
X191886598Y-185536185D01*
X191886598Y-185536185D02*
X191958027Y-185464757D01*
X191958027Y-185464757D02*
X192100884Y-185393328D01*
X192100884Y-185393328D02*
X192243741Y-185393328D01*
X193386598Y-186393328D02*
X193386598Y-185607614D01*
X193386598Y-185607614D02*
X193315169Y-185464757D01*
X193315169Y-185464757D02*
X193172312Y-185393328D01*
X193172312Y-185393328D02*
X192886598Y-185393328D01*
X192886598Y-185393328D02*
X192743740Y-185464757D01*
X193386598Y-186321900D02*
X193243740Y-186393328D01*
X193243740Y-186393328D02*
X192886598Y-186393328D01*
X192886598Y-186393328D02*
X192743740Y-186321900D01*
X192743740Y-186321900D02*
X192672312Y-186179042D01*
X192672312Y-186179042D02*
X192672312Y-186036185D01*
X192672312Y-186036185D02*
X192743740Y-185893328D01*
X192743740Y-185893328D02*
X192886598Y-185821900D01*
X192886598Y-185821900D02*
X193243740Y-185821900D01*
X193243740Y-185821900D02*
X193386598Y-185750471D01*
X193958026Y-185393328D02*
X194315169Y-186393328D01*
X194672312Y-185393328D02*
X194315169Y-186393328D01*
X194315169Y-186393328D02*
X194172312Y-186750471D01*
X194172312Y-186750471D02*
X194100883Y-186821900D01*
X194100883Y-186821900D02*
X193958026Y-186893328D01*
X195243740Y-185821900D02*
X196386598Y-185821900D01*
X197100883Y-185393328D02*
X197100883Y-186893328D01*
X197100883Y-185464757D02*
X197243741Y-185393328D01*
X197243741Y-185393328D02*
X197529455Y-185393328D01*
X197529455Y-185393328D02*
X197672312Y-185464757D01*
X197672312Y-185464757D02*
X197743741Y-185536185D01*
X197743741Y-185536185D02*
X197815169Y-185679042D01*
X197815169Y-185679042D02*
X197815169Y-186107614D01*
X197815169Y-186107614D02*
X197743741Y-186250471D01*
X197743741Y-186250471D02*
X197672312Y-186321900D01*
X197672312Y-186321900D02*
X197529455Y-186393328D01*
X197529455Y-186393328D02*
X197243741Y-186393328D01*
X197243741Y-186393328D02*
X197100883Y-186321900D01*
X199100884Y-186321900D02*
X198958026Y-186393328D01*
X198958026Y-186393328D02*
X198672312Y-186393328D01*
X198672312Y-186393328D02*
X198529455Y-186321900D01*
X198529455Y-186321900D02*
X198458026Y-186250471D01*
X198458026Y-186250471D02*
X198386598Y-186107614D01*
X198386598Y-186107614D02*
X198386598Y-185679042D01*
X198386598Y-185679042D02*
X198458026Y-185536185D01*
X198458026Y-185536185D02*
X198529455Y-185464757D01*
X198529455Y-185464757D02*
X198672312Y-185393328D01*
X198672312Y-185393328D02*
X198958026Y-185393328D01*
X198958026Y-185393328D02*
X199100884Y-185464757D01*
X199743740Y-186393328D02*
X199743740Y-184893328D01*
X199743740Y-185464757D02*
X199886598Y-185393328D01*
X199886598Y-185393328D02*
X200172312Y-185393328D01*
X200172312Y-185393328D02*
X200315169Y-185464757D01*
X200315169Y-185464757D02*
X200386598Y-185536185D01*
X200386598Y-185536185D02*
X200458026Y-185679042D01*
X200458026Y-185679042D02*
X200458026Y-186107614D01*
X200458026Y-186107614D02*
X200386598Y-186250471D01*
X200386598Y-186250471D02*
X200315169Y-186321900D01*
X200315169Y-186321900D02*
X200172312Y-186393328D01*
X200172312Y-186393328D02*
X199886598Y-186393328D01*
X199886598Y-186393328D02*
X199743740Y-186321900D01*
X201100883Y-186250471D02*
X201172312Y-186321900D01*
X201172312Y-186321900D02*
X201100883Y-186393328D01*
X201100883Y-186393328D02*
X201029455Y-186321900D01*
X201029455Y-186321900D02*
X201100883Y-186250471D01*
X201100883Y-186250471D02*
X201100883Y-186393328D01*
X201815169Y-186393328D02*
X201815169Y-184893328D01*
X201958027Y-185821900D02*
X202386598Y-186393328D01*
X202386598Y-185393328D02*
X201815169Y-185964757D01*
X203029455Y-186393328D02*
X203029455Y-185393328D01*
X203029455Y-184893328D02*
X202958027Y-184964757D01*
X202958027Y-184964757D02*
X203029455Y-185036185D01*
X203029455Y-185036185D02*
X203100884Y-184964757D01*
X203100884Y-184964757D02*
X203029455Y-184893328D01*
X203029455Y-184893328D02*
X203029455Y-185036185D01*
X204386599Y-186321900D02*
X204243741Y-186393328D01*
X204243741Y-186393328D02*
X203958027Y-186393328D01*
X203958027Y-186393328D02*
X203815170Y-186321900D01*
X203815170Y-186321900D02*
X203743741Y-186250471D01*
X203743741Y-186250471D02*
X203672313Y-186107614D01*
X203672313Y-186107614D02*
X203672313Y-185679042D01*
X203672313Y-185679042D02*
X203743741Y-185536185D01*
X203743741Y-185536185D02*
X203815170Y-185464757D01*
X203815170Y-185464757D02*
X203958027Y-185393328D01*
X203958027Y-185393328D02*
X204243741Y-185393328D01*
X204243741Y-185393328D02*
X204386599Y-185464757D01*
X205672313Y-186393328D02*
X205672313Y-185607614D01*
X205672313Y-185607614D02*
X205600884Y-185464757D01*
X205600884Y-185464757D02*
X205458027Y-185393328D01*
X205458027Y-185393328D02*
X205172313Y-185393328D01*
X205172313Y-185393328D02*
X205029455Y-185464757D01*
X205672313Y-186321900D02*
X205529455Y-186393328D01*
X205529455Y-186393328D02*
X205172313Y-186393328D01*
X205172313Y-186393328D02*
X205029455Y-186321900D01*
X205029455Y-186321900D02*
X204958027Y-186179042D01*
X204958027Y-186179042D02*
X204958027Y-186036185D01*
X204958027Y-186036185D02*
X205029455Y-185893328D01*
X205029455Y-185893328D02*
X205172313Y-185821900D01*
X205172313Y-185821900D02*
X205529455Y-185821900D01*
X205529455Y-185821900D02*
X205672313Y-185750471D01*
X207029456Y-186393328D02*
X207029456Y-184893328D01*
X207029456Y-186321900D02*
X206886598Y-186393328D01*
X206886598Y-186393328D02*
X206600884Y-186393328D01*
X206600884Y-186393328D02*
X206458027Y-186321900D01*
X206458027Y-186321900D02*
X206386598Y-186250471D01*
X206386598Y-186250471D02*
X206315170Y-186107614D01*
X206315170Y-186107614D02*
X206315170Y-185679042D01*
X206315170Y-185679042D02*
X206386598Y-185536185D01*
X206386598Y-185536185D02*
X206458027Y-185464757D01*
X206458027Y-185464757D02*
X206600884Y-185393328D01*
X206600884Y-185393328D02*
X206886598Y-185393328D01*
X206886598Y-185393328D02*
X207029456Y-185464757D01*
X207386599Y-186536185D02*
X208529456Y-186536185D01*
X208886598Y-185393328D02*
X208886598Y-186893328D01*
X208886598Y-185464757D02*
X209029456Y-185393328D01*
X209029456Y-185393328D02*
X209315170Y-185393328D01*
X209315170Y-185393328D02*
X209458027Y-185464757D01*
X209458027Y-185464757D02*
X209529456Y-185536185D01*
X209529456Y-185536185D02*
X209600884Y-185679042D01*
X209600884Y-185679042D02*
X209600884Y-186107614D01*
X209600884Y-186107614D02*
X209529456Y-186250471D01*
X209529456Y-186250471D02*
X209458027Y-186321900D01*
X209458027Y-186321900D02*
X209315170Y-186393328D01*
X209315170Y-186393328D02*
X209029456Y-186393328D01*
X209029456Y-186393328D02*
X208886598Y-186321900D01*
X210886599Y-186321900D02*
X210743741Y-186393328D01*
X210743741Y-186393328D02*
X210458027Y-186393328D01*
X210458027Y-186393328D02*
X210315170Y-186321900D01*
X210315170Y-186321900D02*
X210243741Y-186250471D01*
X210243741Y-186250471D02*
X210172313Y-186107614D01*
X210172313Y-186107614D02*
X210172313Y-185679042D01*
X210172313Y-185679042D02*
X210243741Y-185536185D01*
X210243741Y-185536185D02*
X210315170Y-185464757D01*
X210315170Y-185464757D02*
X210458027Y-185393328D01*
X210458027Y-185393328D02*
X210743741Y-185393328D01*
X210743741Y-185393328D02*
X210886599Y-185464757D01*
X211529455Y-186393328D02*
X211529455Y-184893328D01*
X211529455Y-185464757D02*
X211672313Y-185393328D01*
X211672313Y-185393328D02*
X211958027Y-185393328D01*
X211958027Y-185393328D02*
X212100884Y-185464757D01*
X212100884Y-185464757D02*
X212172313Y-185536185D01*
X212172313Y-185536185D02*
X212243741Y-185679042D01*
X212243741Y-185679042D02*
X212243741Y-186107614D01*
X212243741Y-186107614D02*
X212172313Y-186250471D01*
X212172313Y-186250471D02*
X212100884Y-186321900D01*
X212100884Y-186321900D02*
X211958027Y-186393328D01*
X211958027Y-186393328D02*
X211672313Y-186393328D01*
X211672313Y-186393328D02*
X211529455Y-186321900D01*
D10*
D11*
X177002200Y-181507200D02*
X285002200Y-181507200D01*
D10*
D11*
X178386598Y-183621900D02*
X178600884Y-183693328D01*
X178600884Y-183693328D02*
X178958026Y-183693328D01*
X178958026Y-183693328D02*
X179100884Y-183621900D01*
X179100884Y-183621900D02*
X179172312Y-183550471D01*
X179172312Y-183550471D02*
X179243741Y-183407614D01*
X179243741Y-183407614D02*
X179243741Y-183264757D01*
X179243741Y-183264757D02*
X179172312Y-183121900D01*
X179172312Y-183121900D02*
X179100884Y-183050471D01*
X179100884Y-183050471D02*
X178958026Y-182979042D01*
X178958026Y-182979042D02*
X178672312Y-182907614D01*
X178672312Y-182907614D02*
X178529455Y-182836185D01*
X178529455Y-182836185D02*
X178458026Y-182764757D01*
X178458026Y-182764757D02*
X178386598Y-182621900D01*
X178386598Y-182621900D02*
X178386598Y-182479042D01*
X178386598Y-182479042D02*
X178458026Y-182336185D01*
X178458026Y-182336185D02*
X178529455Y-182264757D01*
X178529455Y-182264757D02*
X178672312Y-182193328D01*
X178672312Y-182193328D02*
X179029455Y-182193328D01*
X179029455Y-182193328D02*
X179243741Y-182264757D01*
X179886597Y-183693328D02*
X179886597Y-182193328D01*
X180529455Y-183693328D02*
X180529455Y-182907614D01*
X180529455Y-182907614D02*
X180458026Y-182764757D01*
X180458026Y-182764757D02*
X180315169Y-182693328D01*
X180315169Y-182693328D02*
X180100883Y-182693328D01*
X180100883Y-182693328D02*
X179958026Y-182764757D01*
X179958026Y-182764757D02*
X179886597Y-182836185D01*
X181815169Y-183621900D02*
X181672312Y-183693328D01*
X181672312Y-183693328D02*
X181386598Y-183693328D01*
X181386598Y-183693328D02*
X181243740Y-183621900D01*
X181243740Y-183621900D02*
X181172312Y-183479042D01*
X181172312Y-183479042D02*
X181172312Y-182907614D01*
X181172312Y-182907614D02*
X181243740Y-182764757D01*
X181243740Y-182764757D02*
X181386598Y-182693328D01*
X181386598Y-182693328D02*
X181672312Y-182693328D01*
X181672312Y-182693328D02*
X181815169Y-182764757D01*
X181815169Y-182764757D02*
X181886598Y-182907614D01*
X181886598Y-182907614D02*
X181886598Y-183050471D01*
X181886598Y-183050471D02*
X181172312Y-183193328D01*
X183100883Y-183621900D02*
X182958026Y-183693328D01*
X182958026Y-183693328D02*
X182672312Y-183693328D01*
X182672312Y-183693328D02*
X182529454Y-183621900D01*
X182529454Y-183621900D02*
X182458026Y-183479042D01*
X182458026Y-183479042D02*
X182458026Y-182907614D01*
X182458026Y-182907614D02*
X182529454Y-182764757D01*
X182529454Y-182764757D02*
X182672312Y-182693328D01*
X182672312Y-182693328D02*
X182958026Y-182693328D01*
X182958026Y-182693328D02*
X183100883Y-182764757D01*
X183100883Y-182764757D02*
X183172312Y-182907614D01*
X183172312Y-182907614D02*
X183172312Y-183050471D01*
X183172312Y-183050471D02*
X182458026Y-183193328D01*
X183600883Y-182693328D02*
X184172311Y-182693328D01*
X183815168Y-182193328D02*
X183815168Y-183479042D01*
X183815168Y-183479042D02*
X183886597Y-183621900D01*
X183886597Y-183621900D02*
X184029454Y-183693328D01*
X184029454Y-183693328D02*
X184172311Y-183693328D01*
X184672311Y-183550471D02*
X184743740Y-183621900D01*
X184743740Y-183621900D02*
X184672311Y-183693328D01*
X184672311Y-183693328D02*
X184600883Y-183621900D01*
X184600883Y-183621900D02*
X184672311Y-183550471D01*
X184672311Y-183550471D02*
X184672311Y-183693328D01*
X184672311Y-182764757D02*
X184743740Y-182836185D01*
X184743740Y-182836185D02*
X184672311Y-182907614D01*
X184672311Y-182907614D02*
X184600883Y-182836185D01*
X184600883Y-182836185D02*
X184672311Y-182764757D01*
X184672311Y-182764757D02*
X184672311Y-182907614D01*
D10*
D11*
X197002200Y-191507200D02*
X197002200Y-194507200D01*
D10*
D11*
X261002200Y-191507200D02*
X261002200Y-198007200D01*
X172574833Y-67259580D02*
X172527214Y-67307200D01*
X172527214Y-67307200D02*
X172384357Y-67354819D01*
X172384357Y-67354819D02*
X172289119Y-67354819D01*
X172289119Y-67354819D02*
X172146262Y-67307200D01*
X172146262Y-67307200D02*
X172051024Y-67211961D01*
X172051024Y-67211961D02*
X172003405Y-67116723D01*
X172003405Y-67116723D02*
X171955786Y-66926247D01*
X171955786Y-66926247D02*
X171955786Y-66783390D01*
X171955786Y-66783390D02*
X172003405Y-66592914D01*
X172003405Y-66592914D02*
X172051024Y-66497676D01*
X172051024Y-66497676D02*
X172146262Y-66402438D01*
X172146262Y-66402438D02*
X172289119Y-66354819D01*
X172289119Y-66354819D02*
X172384357Y-66354819D01*
X172384357Y-66354819D02*
X172527214Y-66402438D01*
X172527214Y-66402438D02*
X172574833Y-66450057D01*
X172955786Y-66450057D02*
X173003405Y-66402438D01*
X173003405Y-66402438D02*
X173098643Y-66354819D01*
X173098643Y-66354819D02*
X173336738Y-66354819D01*
X173336738Y-66354819D02*
X173431976Y-66402438D01*
X173431976Y-66402438D02*
X173479595Y-66450057D01*
X173479595Y-66450057D02*
X173527214Y-66545295D01*
X173527214Y-66545295D02*
X173527214Y-66640533D01*
X173527214Y-66640533D02*
X173479595Y-66783390D01*
X173479595Y-66783390D02*
X172908167Y-67354819D01*
X172908167Y-67354819D02*
X173527214Y-67354819D01*
X186269333Y-52396819D02*
X185936000Y-51920628D01*
X185697905Y-52396819D02*
X185697905Y-51396819D01*
X185697905Y-51396819D02*
X186078857Y-51396819D01*
X186078857Y-51396819D02*
X186174095Y-51444438D01*
X186174095Y-51444438D02*
X186221714Y-51492057D01*
X186221714Y-51492057D02*
X186269333Y-51587295D01*
X186269333Y-51587295D02*
X186269333Y-51730152D01*
X186269333Y-51730152D02*
X186221714Y-51825390D01*
X186221714Y-51825390D02*
X186174095Y-51873009D01*
X186174095Y-51873009D02*
X186078857Y-51920628D01*
X186078857Y-51920628D02*
X185697905Y-51920628D01*
X186650286Y-51492057D02*
X186697905Y-51444438D01*
X186697905Y-51444438D02*
X186793143Y-51396819D01*
X186793143Y-51396819D02*
X187031238Y-51396819D01*
X187031238Y-51396819D02*
X187126476Y-51444438D01*
X187126476Y-51444438D02*
X187174095Y-51492057D01*
X187174095Y-51492057D02*
X187221714Y-51587295D01*
X187221714Y-51587295D02*
X187221714Y-51682533D01*
X187221714Y-51682533D02*
X187174095Y-51825390D01*
X187174095Y-51825390D02*
X186602667Y-52396819D01*
X186602667Y-52396819D02*
X187221714Y-52396819D01*
X172574833Y-70307580D02*
X172527214Y-70355200D01*
X172527214Y-70355200D02*
X172384357Y-70402819D01*
X172384357Y-70402819D02*
X172289119Y-70402819D01*
X172289119Y-70402819D02*
X172146262Y-70355200D01*
X172146262Y-70355200D02*
X172051024Y-70259961D01*
X172051024Y-70259961D02*
X172003405Y-70164723D01*
X172003405Y-70164723D02*
X171955786Y-69974247D01*
X171955786Y-69974247D02*
X171955786Y-69831390D01*
X171955786Y-69831390D02*
X172003405Y-69640914D01*
X172003405Y-69640914D02*
X172051024Y-69545676D01*
X172051024Y-69545676D02*
X172146262Y-69450438D01*
X172146262Y-69450438D02*
X172289119Y-69402819D01*
X172289119Y-69402819D02*
X172384357Y-69402819D01*
X172384357Y-69402819D02*
X172527214Y-69450438D01*
X172527214Y-69450438D02*
X172574833Y-69498057D01*
X173527214Y-70402819D02*
X172955786Y-70402819D01*
X173241500Y-70402819D02*
X173241500Y-69402819D01*
X173241500Y-69402819D02*
X173146262Y-69545676D01*
X173146262Y-69545676D02*
X173051024Y-69640914D01*
X173051024Y-69640914D02*
X172955786Y-69688533D01*
X148156819Y-64666666D02*
X147680628Y-64999999D01*
X148156819Y-65238094D02*
X147156819Y-65238094D01*
X147156819Y-65238094D02*
X147156819Y-64857142D01*
X147156819Y-64857142D02*
X147204438Y-64761904D01*
X147204438Y-64761904D02*
X147252057Y-64714285D01*
X147252057Y-64714285D02*
X147347295Y-64666666D01*
X147347295Y-64666666D02*
X147490152Y-64666666D01*
X147490152Y-64666666D02*
X147585390Y-64714285D01*
X147585390Y-64714285D02*
X147633009Y-64761904D01*
X147633009Y-64761904D02*
X147680628Y-64857142D01*
X147680628Y-64857142D02*
X147680628Y-65238094D01*
X147156819Y-64333332D02*
X147156819Y-63714285D01*
X147156819Y-63714285D02*
X147537771Y-64047618D01*
X147537771Y-64047618D02*
X147537771Y-63904761D01*
X147537771Y-63904761D02*
X147585390Y-63809523D01*
X147585390Y-63809523D02*
X147633009Y-63761904D01*
X147633009Y-63761904D02*
X147728247Y-63714285D01*
X147728247Y-63714285D02*
X147966342Y-63714285D01*
X147966342Y-63714285D02*
X148061580Y-63761904D01*
X148061580Y-63761904D02*
X148109200Y-63809523D01*
X148109200Y-63809523D02*
X148156819Y-63904761D01*
X148156819Y-63904761D02*
X148156819Y-64190475D01*
X148156819Y-64190475D02*
X148109200Y-64285713D01*
X148109200Y-64285713D02*
X148061580Y-64333332D01*
X107442095Y-118682819D02*
X107442095Y-117682819D01*
X107442095Y-118159009D02*
X108013523Y-118159009D01*
X108013523Y-118682819D02*
X108013523Y-117682819D01*
X108394476Y-117682819D02*
X109013523Y-117682819D01*
X109013523Y-117682819D02*
X108680190Y-118063771D01*
X108680190Y-118063771D02*
X108823047Y-118063771D01*
X108823047Y-118063771D02*
X108918285Y-118111390D01*
X108918285Y-118111390D02*
X108965904Y-118159009D01*
X108965904Y-118159009D02*
X109013523Y-118254247D01*
X109013523Y-118254247D02*
X109013523Y-118492342D01*
X109013523Y-118492342D02*
X108965904Y-118587580D01*
X108965904Y-118587580D02*
X108918285Y-118635200D01*
X108918285Y-118635200D02*
X108823047Y-118682819D01*
X108823047Y-118682819D02*
X108537333Y-118682819D01*
X108537333Y-118682819D02*
X108442095Y-118635200D01*
X108442095Y-118635200D02*
X108394476Y-118587580D01*
X150645905Y-75764819D02*
X150645905Y-74764819D01*
X150645905Y-74764819D02*
X150884000Y-74764819D01*
X150884000Y-74764819D02*
X151026857Y-74812438D01*
X151026857Y-74812438D02*
X151122095Y-74907676D01*
X151122095Y-74907676D02*
X151169714Y-75002914D01*
X151169714Y-75002914D02*
X151217333Y-75193390D01*
X151217333Y-75193390D02*
X151217333Y-75336247D01*
X151217333Y-75336247D02*
X151169714Y-75526723D01*
X151169714Y-75526723D02*
X151122095Y-75621961D01*
X151122095Y-75621961D02*
X151026857Y-75717200D01*
X151026857Y-75717200D02*
X150884000Y-75764819D01*
X150884000Y-75764819D02*
X150645905Y-75764819D01*
X152169714Y-75764819D02*
X151598286Y-75764819D01*
X151884000Y-75764819D02*
X151884000Y-74764819D01*
X151884000Y-74764819D02*
X151788762Y-74907676D01*
X151788762Y-74907676D02*
X151693524Y-75002914D01*
X151693524Y-75002914D02*
X151598286Y-75050533D01*
X122594476Y-80542819D02*
X122594476Y-81257104D01*
X122594476Y-81257104D02*
X122546857Y-81399961D01*
X122546857Y-81399961D02*
X122451619Y-81495200D01*
X122451619Y-81495200D02*
X122308762Y-81542819D01*
X122308762Y-81542819D02*
X122213524Y-81542819D01*
X123594476Y-81542819D02*
X123023048Y-81542819D01*
X123308762Y-81542819D02*
X123308762Y-80542819D01*
X123308762Y-80542819D02*
X123213524Y-80685676D01*
X123213524Y-80685676D02*
X123118286Y-80780914D01*
X123118286Y-80780914D02*
X123023048Y-80828533D01*
X123927810Y-80542819D02*
X124594476Y-80542819D01*
X124594476Y-80542819D02*
X124165905Y-81542819D01*
X122594476Y-51266819D02*
X122594476Y-51981104D01*
X122594476Y-51981104D02*
X122546857Y-52123961D01*
X122546857Y-52123961D02*
X122451619Y-52219200D01*
X122451619Y-52219200D02*
X122308762Y-52266819D01*
X122308762Y-52266819D02*
X122213524Y-52266819D01*
X123594476Y-52266819D02*
X123023048Y-52266819D01*
X123308762Y-52266819D02*
X123308762Y-51266819D01*
X123308762Y-51266819D02*
X123213524Y-51409676D01*
X123213524Y-51409676D02*
X123118286Y-51504914D01*
X123118286Y-51504914D02*
X123023048Y-51552533D01*
X124451619Y-51266819D02*
X124261143Y-51266819D01*
X124261143Y-51266819D02*
X124165905Y-51314438D01*
X124165905Y-51314438D02*
X124118286Y-51362057D01*
X124118286Y-51362057D02*
X124023048Y-51504914D01*
X124023048Y-51504914D02*
X123975429Y-51695390D01*
X123975429Y-51695390D02*
X123975429Y-52076342D01*
X123975429Y-52076342D02*
X124023048Y-52171580D01*
X124023048Y-52171580D02*
X124070667Y-52219200D01*
X124070667Y-52219200D02*
X124165905Y-52266819D01*
X124165905Y-52266819D02*
X124356381Y-52266819D01*
X124356381Y-52266819D02*
X124451619Y-52219200D01*
X124451619Y-52219200D02*
X124499238Y-52171580D01*
X124499238Y-52171580D02*
X124546857Y-52076342D01*
X124546857Y-52076342D02*
X124546857Y-51838247D01*
X124546857Y-51838247D02*
X124499238Y-51743009D01*
X124499238Y-51743009D02*
X124451619Y-51695390D01*
X124451619Y-51695390D02*
X124356381Y-51647771D01*
X124356381Y-51647771D02*
X124165905Y-51647771D01*
X124165905Y-51647771D02*
X124070667Y-51695390D01*
X124070667Y-51695390D02*
X124023048Y-51743009D01*
X124023048Y-51743009D02*
X123975429Y-51838247D01*
X143597333Y-112471580D02*
X143549714Y-112519200D01*
X143549714Y-112519200D02*
X143406857Y-112566819D01*
X143406857Y-112566819D02*
X143311619Y-112566819D01*
X143311619Y-112566819D02*
X143168762Y-112519200D01*
X143168762Y-112519200D02*
X143073524Y-112423961D01*
X143073524Y-112423961D02*
X143025905Y-112328723D01*
X143025905Y-112328723D02*
X142978286Y-112138247D01*
X142978286Y-112138247D02*
X142978286Y-111995390D01*
X142978286Y-111995390D02*
X143025905Y-111804914D01*
X143025905Y-111804914D02*
X143073524Y-111709676D01*
X143073524Y-111709676D02*
X143168762Y-111614438D01*
X143168762Y-111614438D02*
X143311619Y-111566819D01*
X143311619Y-111566819D02*
X143406857Y-111566819D01*
X143406857Y-111566819D02*
X143549714Y-111614438D01*
X143549714Y-111614438D02*
X143597333Y-111662057D01*
X144454476Y-111566819D02*
X144264000Y-111566819D01*
X144264000Y-111566819D02*
X144168762Y-111614438D01*
X144168762Y-111614438D02*
X144121143Y-111662057D01*
X144121143Y-111662057D02*
X144025905Y-111804914D01*
X144025905Y-111804914D02*
X143978286Y-111995390D01*
X143978286Y-111995390D02*
X143978286Y-112376342D01*
X143978286Y-112376342D02*
X144025905Y-112471580D01*
X144025905Y-112471580D02*
X144073524Y-112519200D01*
X144073524Y-112519200D02*
X144168762Y-112566819D01*
X144168762Y-112566819D02*
X144359238Y-112566819D01*
X144359238Y-112566819D02*
X144454476Y-112519200D01*
X144454476Y-112519200D02*
X144502095Y-112471580D01*
X144502095Y-112471580D02*
X144549714Y-112376342D01*
X144549714Y-112376342D02*
X144549714Y-112138247D01*
X144549714Y-112138247D02*
X144502095Y-112043009D01*
X144502095Y-112043009D02*
X144454476Y-111995390D01*
X144454476Y-111995390D02*
X144359238Y-111947771D01*
X144359238Y-111947771D02*
X144168762Y-111947771D01*
X144168762Y-111947771D02*
X144073524Y-111995390D01*
X144073524Y-111995390D02*
X144025905Y-112043009D01*
X144025905Y-112043009D02*
X143978286Y-112138247D01*
X194310095Y-118682819D02*
X194310095Y-117682819D01*
X194310095Y-118159009D02*
X194881523Y-118159009D01*
X194881523Y-118682819D02*
X194881523Y-117682819D01*
X195786285Y-118016152D02*
X195786285Y-118682819D01*
X195548190Y-117635200D02*
X195310095Y-118349485D01*
X195310095Y-118349485D02*
X195929142Y-118349485D01*
X142060819Y-42822666D02*
X141584628Y-43155999D01*
X142060819Y-43394094D02*
X141060819Y-43394094D01*
X141060819Y-43394094D02*
X141060819Y-43013142D01*
X141060819Y-43013142D02*
X141108438Y-42917904D01*
X141108438Y-42917904D02*
X141156057Y-42870285D01*
X141156057Y-42870285D02*
X141251295Y-42822666D01*
X141251295Y-42822666D02*
X141394152Y-42822666D01*
X141394152Y-42822666D02*
X141489390Y-42870285D01*
X141489390Y-42870285D02*
X141537009Y-42917904D01*
X141537009Y-42917904D02*
X141584628Y-43013142D01*
X141584628Y-43013142D02*
X141584628Y-43394094D01*
X141060819Y-42489332D02*
X141060819Y-41822666D01*
X141060819Y-41822666D02*
X142060819Y-42251237D01*
X163140819Y-113466666D02*
X162664628Y-113799999D01*
X163140819Y-114038094D02*
X162140819Y-114038094D01*
X162140819Y-114038094D02*
X162140819Y-113657142D01*
X162140819Y-113657142D02*
X162188438Y-113561904D01*
X162188438Y-113561904D02*
X162236057Y-113514285D01*
X162236057Y-113514285D02*
X162331295Y-113466666D01*
X162331295Y-113466666D02*
X162474152Y-113466666D01*
X162474152Y-113466666D02*
X162569390Y-113514285D01*
X162569390Y-113514285D02*
X162617009Y-113561904D01*
X162617009Y-113561904D02*
X162664628Y-113657142D01*
X162664628Y-113657142D02*
X162664628Y-114038094D01*
X162140819Y-112561904D02*
X162140819Y-113038094D01*
X162140819Y-113038094D02*
X162617009Y-113085713D01*
X162617009Y-113085713D02*
X162569390Y-113038094D01*
X162569390Y-113038094D02*
X162521771Y-112942856D01*
X162521771Y-112942856D02*
X162521771Y-112704761D01*
X162521771Y-112704761D02*
X162569390Y-112609523D01*
X162569390Y-112609523D02*
X162617009Y-112561904D01*
X162617009Y-112561904D02*
X162712247Y-112514285D01*
X162712247Y-112514285D02*
X162950342Y-112514285D01*
X162950342Y-112514285D02*
X163045580Y-112561904D01*
X163045580Y-112561904D02*
X163093200Y-112609523D01*
X163093200Y-112609523D02*
X163140819Y-112704761D01*
X163140819Y-112704761D02*
X163140819Y-112942856D01*
X163140819Y-112942856D02*
X163093200Y-113038094D01*
X163093200Y-113038094D02*
X163045580Y-113085713D01*
X122594476Y-90542819D02*
X122594476Y-91257104D01*
X122594476Y-91257104D02*
X122546857Y-91399961D01*
X122546857Y-91399961D02*
X122451619Y-91495200D01*
X122451619Y-91495200D02*
X122308762Y-91542819D01*
X122308762Y-91542819D02*
X122213524Y-91542819D01*
X123594476Y-91542819D02*
X123023048Y-91542819D01*
X123308762Y-91542819D02*
X123308762Y-90542819D01*
X123308762Y-90542819D02*
X123213524Y-90685676D01*
X123213524Y-90685676D02*
X123118286Y-90780914D01*
X123118286Y-90780914D02*
X123023048Y-90828533D01*
X124165905Y-90971390D02*
X124070667Y-90923771D01*
X124070667Y-90923771D02*
X124023048Y-90876152D01*
X124023048Y-90876152D02*
X123975429Y-90780914D01*
X123975429Y-90780914D02*
X123975429Y-90733295D01*
X123975429Y-90733295D02*
X124023048Y-90638057D01*
X124023048Y-90638057D02*
X124070667Y-90590438D01*
X124070667Y-90590438D02*
X124165905Y-90542819D01*
X124165905Y-90542819D02*
X124356381Y-90542819D01*
X124356381Y-90542819D02*
X124451619Y-90590438D01*
X124451619Y-90590438D02*
X124499238Y-90638057D01*
X124499238Y-90638057D02*
X124546857Y-90733295D01*
X124546857Y-90733295D02*
X124546857Y-90780914D01*
X124546857Y-90780914D02*
X124499238Y-90876152D01*
X124499238Y-90876152D02*
X124451619Y-90923771D01*
X124451619Y-90923771D02*
X124356381Y-90971390D01*
X124356381Y-90971390D02*
X124165905Y-90971390D01*
X124165905Y-90971390D02*
X124070667Y-91019009D01*
X124070667Y-91019009D02*
X124023048Y-91066628D01*
X124023048Y-91066628D02*
X123975429Y-91161866D01*
X123975429Y-91161866D02*
X123975429Y-91352342D01*
X123975429Y-91352342D02*
X124023048Y-91447580D01*
X124023048Y-91447580D02*
X124070667Y-91495200D01*
X124070667Y-91495200D02*
X124165905Y-91542819D01*
X124165905Y-91542819D02*
X124356381Y-91542819D01*
X124356381Y-91542819D02*
X124451619Y-91495200D01*
X124451619Y-91495200D02*
X124499238Y-91447580D01*
X124499238Y-91447580D02*
X124546857Y-91352342D01*
X124546857Y-91352342D02*
X124546857Y-91161866D01*
X124546857Y-91161866D02*
X124499238Y-91066628D01*
X124499238Y-91066628D02*
X124451619Y-91019009D01*
X124451619Y-91019009D02*
X124356381Y-90971390D01*
X143878952Y-116213200D02*
X144021809Y-116260819D01*
X144021809Y-116260819D02*
X144259904Y-116260819D01*
X144259904Y-116260819D02*
X144355142Y-116213200D01*
X144355142Y-116213200D02*
X144402761Y-116165580D01*
X144402761Y-116165580D02*
X144450380Y-116070342D01*
X144450380Y-116070342D02*
X144450380Y-115975104D01*
X144450380Y-115975104D02*
X144402761Y-115879866D01*
X144402761Y-115879866D02*
X144355142Y-115832247D01*
X144355142Y-115832247D02*
X144259904Y-115784628D01*
X144259904Y-115784628D02*
X144069428Y-115737009D01*
X144069428Y-115737009D02*
X143974190Y-115689390D01*
X143974190Y-115689390D02*
X143926571Y-115641771D01*
X143926571Y-115641771D02*
X143878952Y-115546533D01*
X143878952Y-115546533D02*
X143878952Y-115451295D01*
X143878952Y-115451295D02*
X143926571Y-115356057D01*
X143926571Y-115356057D02*
X143974190Y-115308438D01*
X143974190Y-115308438D02*
X144069428Y-115260819D01*
X144069428Y-115260819D02*
X144307523Y-115260819D01*
X144307523Y-115260819D02*
X144450380Y-115308438D01*
X145450380Y-116260819D02*
X145117047Y-115784628D01*
X144878952Y-116260819D02*
X144878952Y-115260819D01*
X144878952Y-115260819D02*
X145259904Y-115260819D01*
X145259904Y-115260819D02*
X145355142Y-115308438D01*
X145355142Y-115308438D02*
X145402761Y-115356057D01*
X145402761Y-115356057D02*
X145450380Y-115451295D01*
X145450380Y-115451295D02*
X145450380Y-115594152D01*
X145450380Y-115594152D02*
X145402761Y-115689390D01*
X145402761Y-115689390D02*
X145355142Y-115737009D01*
X145355142Y-115737009D02*
X145259904Y-115784628D01*
X145259904Y-115784628D02*
X144878952Y-115784628D01*
X145831333Y-116213200D02*
X145974190Y-116260819D01*
X145974190Y-116260819D02*
X146212285Y-116260819D01*
X146212285Y-116260819D02*
X146307523Y-116213200D01*
X146307523Y-116213200D02*
X146355142Y-116165580D01*
X146355142Y-116165580D02*
X146402761Y-116070342D01*
X146402761Y-116070342D02*
X146402761Y-115975104D01*
X146402761Y-115975104D02*
X146355142Y-115879866D01*
X146355142Y-115879866D02*
X146307523Y-115832247D01*
X146307523Y-115832247D02*
X146212285Y-115784628D01*
X146212285Y-115784628D02*
X146021809Y-115737009D01*
X146021809Y-115737009D02*
X145926571Y-115689390D01*
X145926571Y-115689390D02*
X145878952Y-115641771D01*
X145878952Y-115641771D02*
X145831333Y-115546533D01*
X145831333Y-115546533D02*
X145831333Y-115451295D01*
X145831333Y-115451295D02*
X145878952Y-115356057D01*
X145878952Y-115356057D02*
X145926571Y-115308438D01*
X145926571Y-115308438D02*
X146021809Y-115260819D01*
X146021809Y-115260819D02*
X146259904Y-115260819D01*
X146259904Y-115260819D02*
X146402761Y-115308438D01*
X146688476Y-115260819D02*
X147259904Y-115260819D01*
X146974190Y-116260819D02*
X146974190Y-115260819D01*
X148117047Y-116260819D02*
X147545619Y-116260819D01*
X147831333Y-116260819D02*
X147831333Y-115260819D01*
X147831333Y-115260819D02*
X147736095Y-115403676D01*
X147736095Y-115403676D02*
X147640857Y-115498914D01*
X147640857Y-115498914D02*
X147545619Y-115546533D01*
X155302833Y-112471580D02*
X155255214Y-112519200D01*
X155255214Y-112519200D02*
X155112357Y-112566819D01*
X155112357Y-112566819D02*
X155017119Y-112566819D01*
X155017119Y-112566819D02*
X154874262Y-112519200D01*
X154874262Y-112519200D02*
X154779024Y-112423961D01*
X154779024Y-112423961D02*
X154731405Y-112328723D01*
X154731405Y-112328723D02*
X154683786Y-112138247D01*
X154683786Y-112138247D02*
X154683786Y-111995390D01*
X154683786Y-111995390D02*
X154731405Y-111804914D01*
X154731405Y-111804914D02*
X154779024Y-111709676D01*
X154779024Y-111709676D02*
X154874262Y-111614438D01*
X154874262Y-111614438D02*
X155017119Y-111566819D01*
X155017119Y-111566819D02*
X155112357Y-111566819D01*
X155112357Y-111566819D02*
X155255214Y-111614438D01*
X155255214Y-111614438D02*
X155302833Y-111662057D01*
X155636167Y-111566819D02*
X156302833Y-111566819D01*
X156302833Y-111566819D02*
X155874262Y-112566819D01*
X186269333Y-48840819D02*
X185936000Y-48364628D01*
X185697905Y-48840819D02*
X185697905Y-47840819D01*
X185697905Y-47840819D02*
X186078857Y-47840819D01*
X186078857Y-47840819D02*
X186174095Y-47888438D01*
X186174095Y-47888438D02*
X186221714Y-47936057D01*
X186221714Y-47936057D02*
X186269333Y-48031295D01*
X186269333Y-48031295D02*
X186269333Y-48174152D01*
X186269333Y-48174152D02*
X186221714Y-48269390D01*
X186221714Y-48269390D02*
X186174095Y-48317009D01*
X186174095Y-48317009D02*
X186078857Y-48364628D01*
X186078857Y-48364628D02*
X185697905Y-48364628D01*
X187221714Y-48840819D02*
X186650286Y-48840819D01*
X186936000Y-48840819D02*
X186936000Y-47840819D01*
X186936000Y-47840819D02*
X186840762Y-47983676D01*
X186840762Y-47983676D02*
X186745524Y-48078914D01*
X186745524Y-48078914D02*
X186650286Y-48126533D01*
X129709666Y-30144819D02*
X129709666Y-30859104D01*
X129709666Y-30859104D02*
X129662047Y-31001961D01*
X129662047Y-31001961D02*
X129566809Y-31097200D01*
X129566809Y-31097200D02*
X129423952Y-31144819D01*
X129423952Y-31144819D02*
X129328714Y-31144819D01*
X130138238Y-30240057D02*
X130185857Y-30192438D01*
X130185857Y-30192438D02*
X130281095Y-30144819D01*
X130281095Y-30144819D02*
X130519190Y-30144819D01*
X130519190Y-30144819D02*
X130614428Y-30192438D01*
X130614428Y-30192438D02*
X130662047Y-30240057D01*
X130662047Y-30240057D02*
X130709666Y-30335295D01*
X130709666Y-30335295D02*
X130709666Y-30430533D01*
X130709666Y-30430533D02*
X130662047Y-30573390D01*
X130662047Y-30573390D02*
X130090619Y-31144819D01*
X130090619Y-31144819D02*
X130709666Y-31144819D01*
X188766819Y-85977333D02*
X189481104Y-85977333D01*
X189481104Y-85977333D02*
X189623961Y-86024952D01*
X189623961Y-86024952D02*
X189719200Y-86120190D01*
X189719200Y-86120190D02*
X189766819Y-86263047D01*
X189766819Y-86263047D02*
X189766819Y-86358285D01*
X189195390Y-85358285D02*
X189147771Y-85453523D01*
X189147771Y-85453523D02*
X189100152Y-85501142D01*
X189100152Y-85501142D02*
X189004914Y-85548761D01*
X189004914Y-85548761D02*
X188957295Y-85548761D01*
X188957295Y-85548761D02*
X188862057Y-85501142D01*
X188862057Y-85501142D02*
X188814438Y-85453523D01*
X188814438Y-85453523D02*
X188766819Y-85358285D01*
X188766819Y-85358285D02*
X188766819Y-85167809D01*
X188766819Y-85167809D02*
X188814438Y-85072571D01*
X188814438Y-85072571D02*
X188862057Y-85024952D01*
X188862057Y-85024952D02*
X188957295Y-84977333D01*
X188957295Y-84977333D02*
X189004914Y-84977333D01*
X189004914Y-84977333D02*
X189100152Y-85024952D01*
X189100152Y-85024952D02*
X189147771Y-85072571D01*
X189147771Y-85072571D02*
X189195390Y-85167809D01*
X189195390Y-85167809D02*
X189195390Y-85358285D01*
X189195390Y-85358285D02*
X189243009Y-85453523D01*
X189243009Y-85453523D02*
X189290628Y-85501142D01*
X189290628Y-85501142D02*
X189385866Y-85548761D01*
X189385866Y-85548761D02*
X189576342Y-85548761D01*
X189576342Y-85548761D02*
X189671580Y-85501142D01*
X189671580Y-85501142D02*
X189719200Y-85453523D01*
X189719200Y-85453523D02*
X189766819Y-85358285D01*
X189766819Y-85358285D02*
X189766819Y-85167809D01*
X189766819Y-85167809D02*
X189719200Y-85072571D01*
X189719200Y-85072571D02*
X189671580Y-85024952D01*
X189671580Y-85024952D02*
X189576342Y-84977333D01*
X189576342Y-84977333D02*
X189385866Y-84977333D01*
X189385866Y-84977333D02*
X189290628Y-85024952D01*
X189290628Y-85024952D02*
X189243009Y-85072571D01*
X189243009Y-85072571D02*
X189195390Y-85167809D01*
X109907142Y-80221580D02*
X109859523Y-80269200D01*
X109859523Y-80269200D02*
X109716666Y-80316819D01*
X109716666Y-80316819D02*
X109621428Y-80316819D01*
X109621428Y-80316819D02*
X109478571Y-80269200D01*
X109478571Y-80269200D02*
X109383333Y-80173961D01*
X109383333Y-80173961D02*
X109335714Y-80078723D01*
X109335714Y-80078723D02*
X109288095Y-79888247D01*
X109288095Y-79888247D02*
X109288095Y-79745390D01*
X109288095Y-79745390D02*
X109335714Y-79554914D01*
X109335714Y-79554914D02*
X109383333Y-79459676D01*
X109383333Y-79459676D02*
X109478571Y-79364438D01*
X109478571Y-79364438D02*
X109621428Y-79316819D01*
X109621428Y-79316819D02*
X109716666Y-79316819D01*
X109716666Y-79316819D02*
X109859523Y-79364438D01*
X109859523Y-79364438D02*
X109907142Y-79412057D01*
X110859523Y-80316819D02*
X110288095Y-80316819D01*
X110573809Y-80316819D02*
X110573809Y-79316819D01*
X110573809Y-79316819D02*
X110478571Y-79459676D01*
X110478571Y-79459676D02*
X110383333Y-79554914D01*
X110383333Y-79554914D02*
X110288095Y-79602533D01*
X111811904Y-80316819D02*
X111240476Y-80316819D01*
X111526190Y-80316819D02*
X111526190Y-79316819D01*
X111526190Y-79316819D02*
X111430952Y-79459676D01*
X111430952Y-79459676D02*
X111335714Y-79554914D01*
X111335714Y-79554914D02*
X111240476Y-79602533D01*
X153336866Y-63877666D02*
X154470200Y-63877666D01*
X154470200Y-63877666D02*
X154603533Y-63811000D01*
X154603533Y-63811000D02*
X154670200Y-63744333D01*
X154670200Y-63744333D02*
X154736866Y-63611000D01*
X154736866Y-63611000D02*
X154736866Y-63344333D01*
X154736866Y-63344333D02*
X154670200Y-63211000D01*
X154670200Y-63211000D02*
X154603533Y-63144333D01*
X154603533Y-63144333D02*
X154470200Y-63077666D01*
X154470200Y-63077666D02*
X153336866Y-63077666D01*
X153470200Y-62477666D02*
X153403533Y-62410999D01*
X153403533Y-62410999D02*
X153336866Y-62277666D01*
X153336866Y-62277666D02*
X153336866Y-61944333D01*
X153336866Y-61944333D02*
X153403533Y-61810999D01*
X153403533Y-61810999D02*
X153470200Y-61744333D01*
X153470200Y-61744333D02*
X153603533Y-61677666D01*
X153603533Y-61677666D02*
X153736866Y-61677666D01*
X153736866Y-61677666D02*
X153936866Y-61744333D01*
X153936866Y-61744333D02*
X154736866Y-62544333D01*
X154736866Y-62544333D02*
X154736866Y-61677666D01*
X155963580Y-60597166D02*
X156011200Y-60644785D01*
X156011200Y-60644785D02*
X156058819Y-60787642D01*
X156058819Y-60787642D02*
X156058819Y-60882880D01*
X156058819Y-60882880D02*
X156011200Y-61025737D01*
X156011200Y-61025737D02*
X155915961Y-61120975D01*
X155915961Y-61120975D02*
X155820723Y-61168594D01*
X155820723Y-61168594D02*
X155630247Y-61216213D01*
X155630247Y-61216213D02*
X155487390Y-61216213D01*
X155487390Y-61216213D02*
X155296914Y-61168594D01*
X155296914Y-61168594D02*
X155201676Y-61120975D01*
X155201676Y-61120975D02*
X155106438Y-61025737D01*
X155106438Y-61025737D02*
X155058819Y-60882880D01*
X155058819Y-60882880D02*
X155058819Y-60787642D01*
X155058819Y-60787642D02*
X155106438Y-60644785D01*
X155106438Y-60644785D02*
X155154057Y-60597166D01*
X155058819Y-59692404D02*
X155058819Y-60168594D01*
X155058819Y-60168594D02*
X155535009Y-60216213D01*
X155535009Y-60216213D02*
X155487390Y-60168594D01*
X155487390Y-60168594D02*
X155439771Y-60073356D01*
X155439771Y-60073356D02*
X155439771Y-59835261D01*
X155439771Y-59835261D02*
X155487390Y-59740023D01*
X155487390Y-59740023D02*
X155535009Y-59692404D01*
X155535009Y-59692404D02*
X155630247Y-59644785D01*
X155630247Y-59644785D02*
X155868342Y-59644785D01*
X155868342Y-59644785D02*
X155963580Y-59692404D01*
X155963580Y-59692404D02*
X156011200Y-59740023D01*
X156011200Y-59740023D02*
X156058819Y-59835261D01*
X156058819Y-59835261D02*
X156058819Y-60073356D01*
X156058819Y-60073356D02*
X156011200Y-60168594D01*
X156011200Y-60168594D02*
X155963580Y-60216213D01*
X152095580Y-67201166D02*
X152143200Y-67248785D01*
X152143200Y-67248785D02*
X152190819Y-67391642D01*
X152190819Y-67391642D02*
X152190819Y-67486880D01*
X152190819Y-67486880D02*
X152143200Y-67629737D01*
X152143200Y-67629737D02*
X152047961Y-67724975D01*
X152047961Y-67724975D02*
X151952723Y-67772594D01*
X151952723Y-67772594D02*
X151762247Y-67820213D01*
X151762247Y-67820213D02*
X151619390Y-67820213D01*
X151619390Y-67820213D02*
X151428914Y-67772594D01*
X151428914Y-67772594D02*
X151333676Y-67724975D01*
X151333676Y-67724975D02*
X151238438Y-67629737D01*
X151238438Y-67629737D02*
X151190819Y-67486880D01*
X151190819Y-67486880D02*
X151190819Y-67391642D01*
X151190819Y-67391642D02*
X151238438Y-67248785D01*
X151238438Y-67248785D02*
X151286057Y-67201166D01*
X151524152Y-66344023D02*
X152190819Y-66344023D01*
X151143200Y-66582118D02*
X151857485Y-66820213D01*
X151857485Y-66820213D02*
X151857485Y-66201166D01*
X192460200Y-53117714D02*
X192507819Y-53212952D01*
X192507819Y-53212952D02*
X192507819Y-53403428D01*
X192507819Y-53403428D02*
X192460200Y-53498666D01*
X192460200Y-53498666D02*
X192364961Y-53546285D01*
X192364961Y-53546285D02*
X191984009Y-53546285D01*
X191984009Y-53546285D02*
X191888771Y-53498666D01*
X191888771Y-53498666D02*
X191841152Y-53403428D01*
X191841152Y-53403428D02*
X191841152Y-53212952D01*
X191841152Y-53212952D02*
X191888771Y-53117714D01*
X191888771Y-53117714D02*
X191984009Y-53070095D01*
X191984009Y-53070095D02*
X192079247Y-53070095D01*
X192079247Y-53070095D02*
X192174485Y-53546285D01*
X192507819Y-52117714D02*
X192507819Y-52689142D01*
X192507819Y-52403428D02*
X191507819Y-52403428D01*
X191507819Y-52403428D02*
X191650676Y-52498666D01*
X191650676Y-52498666D02*
X191745914Y-52593904D01*
X191745914Y-52593904D02*
X191793533Y-52689142D01*
X127059142Y-61721580D02*
X127011523Y-61769200D01*
X127011523Y-61769200D02*
X126868666Y-61816819D01*
X126868666Y-61816819D02*
X126773428Y-61816819D01*
X126773428Y-61816819D02*
X126630571Y-61769200D01*
X126630571Y-61769200D02*
X126535333Y-61673961D01*
X126535333Y-61673961D02*
X126487714Y-61578723D01*
X126487714Y-61578723D02*
X126440095Y-61388247D01*
X126440095Y-61388247D02*
X126440095Y-61245390D01*
X126440095Y-61245390D02*
X126487714Y-61054914D01*
X126487714Y-61054914D02*
X126535333Y-60959676D01*
X126535333Y-60959676D02*
X126630571Y-60864438D01*
X126630571Y-60864438D02*
X126773428Y-60816819D01*
X126773428Y-60816819D02*
X126868666Y-60816819D01*
X126868666Y-60816819D02*
X127011523Y-60864438D01*
X127011523Y-60864438D02*
X127059142Y-60912057D01*
X128011523Y-61816819D02*
X127440095Y-61816819D01*
X127725809Y-61816819D02*
X127725809Y-60816819D01*
X127725809Y-60816819D02*
X127630571Y-60959676D01*
X127630571Y-60959676D02*
X127535333Y-61054914D01*
X127535333Y-61054914D02*
X127440095Y-61102533D01*
X128630571Y-60816819D02*
X128725809Y-60816819D01*
X128725809Y-60816819D02*
X128821047Y-60864438D01*
X128821047Y-60864438D02*
X128868666Y-60912057D01*
X128868666Y-60912057D02*
X128916285Y-61007295D01*
X128916285Y-61007295D02*
X128963904Y-61197771D01*
X128963904Y-61197771D02*
X128963904Y-61435866D01*
X128963904Y-61435866D02*
X128916285Y-61626342D01*
X128916285Y-61626342D02*
X128868666Y-61721580D01*
X128868666Y-61721580D02*
X128821047Y-61769200D01*
X128821047Y-61769200D02*
X128725809Y-61816819D01*
X128725809Y-61816819D02*
X128630571Y-61816819D01*
X128630571Y-61816819D02*
X128535333Y-61769200D01*
X128535333Y-61769200D02*
X128487714Y-61721580D01*
X128487714Y-61721580D02*
X128440095Y-61626342D01*
X128440095Y-61626342D02*
X128392476Y-61435866D01*
X128392476Y-61435866D02*
X128392476Y-61197771D01*
X128392476Y-61197771D02*
X128440095Y-61007295D01*
X128440095Y-61007295D02*
X128487714Y-60912057D01*
X128487714Y-60912057D02*
X128535333Y-60864438D01*
X128535333Y-60864438D02*
X128630571Y-60816819D01*
X107354476Y-51266819D02*
X107354476Y-51981104D01*
X107354476Y-51981104D02*
X107306857Y-52123961D01*
X107306857Y-52123961D02*
X107211619Y-52219200D01*
X107211619Y-52219200D02*
X107068762Y-52266819D01*
X107068762Y-52266819D02*
X106973524Y-52266819D01*
X108354476Y-52266819D02*
X107783048Y-52266819D01*
X108068762Y-52266819D02*
X108068762Y-51266819D01*
X108068762Y-51266819D02*
X107973524Y-51409676D01*
X107973524Y-51409676D02*
X107878286Y-51504914D01*
X107878286Y-51504914D02*
X107783048Y-51552533D01*
X108735429Y-51362057D02*
X108783048Y-51314438D01*
X108783048Y-51314438D02*
X108878286Y-51266819D01*
X108878286Y-51266819D02*
X109116381Y-51266819D01*
X109116381Y-51266819D02*
X109211619Y-51314438D01*
X109211619Y-51314438D02*
X109259238Y-51362057D01*
X109259238Y-51362057D02*
X109306857Y-51457295D01*
X109306857Y-51457295D02*
X109306857Y-51552533D01*
X109306857Y-51552533D02*
X109259238Y-51695390D01*
X109259238Y-51695390D02*
X108687810Y-52266819D01*
X108687810Y-52266819D02*
X109306857Y-52266819D01*
X107354476Y-90542819D02*
X107354476Y-91257104D01*
X107354476Y-91257104D02*
X107306857Y-91399961D01*
X107306857Y-91399961D02*
X107211619Y-91495200D01*
X107211619Y-91495200D02*
X107068762Y-91542819D01*
X107068762Y-91542819D02*
X106973524Y-91542819D01*
X108354476Y-91542819D02*
X107783048Y-91542819D01*
X108068762Y-91542819D02*
X108068762Y-90542819D01*
X108068762Y-90542819D02*
X107973524Y-90685676D01*
X107973524Y-90685676D02*
X107878286Y-90780914D01*
X107878286Y-90780914D02*
X107783048Y-90828533D01*
X109211619Y-90876152D02*
X109211619Y-91542819D01*
X108973524Y-90495200D02*
X108735429Y-91209485D01*
X108735429Y-91209485D02*
X109354476Y-91209485D01*
X107354476Y-80542819D02*
X107354476Y-81257104D01*
X107354476Y-81257104D02*
X107306857Y-81399961D01*
X107306857Y-81399961D02*
X107211619Y-81495200D01*
X107211619Y-81495200D02*
X107068762Y-81542819D01*
X107068762Y-81542819D02*
X106973524Y-81542819D01*
X108354476Y-81542819D02*
X107783048Y-81542819D01*
X108068762Y-81542819D02*
X108068762Y-80542819D01*
X108068762Y-80542819D02*
X107973524Y-80685676D01*
X107973524Y-80685676D02*
X107878286Y-80780914D01*
X107878286Y-80780914D02*
X107783048Y-80828533D01*
X108687810Y-80542819D02*
X109306857Y-80542819D01*
X109306857Y-80542819D02*
X108973524Y-80923771D01*
X108973524Y-80923771D02*
X109116381Y-80923771D01*
X109116381Y-80923771D02*
X109211619Y-80971390D01*
X109211619Y-80971390D02*
X109259238Y-81019009D01*
X109259238Y-81019009D02*
X109306857Y-81114247D01*
X109306857Y-81114247D02*
X109306857Y-81352342D01*
X109306857Y-81352342D02*
X109259238Y-81447580D01*
X109259238Y-81447580D02*
X109211619Y-81495200D01*
X109211619Y-81495200D02*
X109116381Y-81542819D01*
X109116381Y-81542819D02*
X108830667Y-81542819D01*
X108830667Y-81542819D02*
X108735429Y-81495200D01*
X108735429Y-81495200D02*
X108687810Y-81447580D01*
X137501333Y-99132819D02*
X137168000Y-98656628D01*
X136929905Y-99132819D02*
X136929905Y-98132819D01*
X136929905Y-98132819D02*
X137310857Y-98132819D01*
X137310857Y-98132819D02*
X137406095Y-98180438D01*
X137406095Y-98180438D02*
X137453714Y-98228057D01*
X137453714Y-98228057D02*
X137501333Y-98323295D01*
X137501333Y-98323295D02*
X137501333Y-98466152D01*
X137501333Y-98466152D02*
X137453714Y-98561390D01*
X137453714Y-98561390D02*
X137406095Y-98609009D01*
X137406095Y-98609009D02*
X137310857Y-98656628D01*
X137310857Y-98656628D02*
X136929905Y-98656628D01*
X138358476Y-98132819D02*
X138168000Y-98132819D01*
X138168000Y-98132819D02*
X138072762Y-98180438D01*
X138072762Y-98180438D02*
X138025143Y-98228057D01*
X138025143Y-98228057D02*
X137929905Y-98370914D01*
X137929905Y-98370914D02*
X137882286Y-98561390D01*
X137882286Y-98561390D02*
X137882286Y-98942342D01*
X137882286Y-98942342D02*
X137929905Y-99037580D01*
X137929905Y-99037580D02*
X137977524Y-99085200D01*
X137977524Y-99085200D02*
X138072762Y-99132819D01*
X138072762Y-99132819D02*
X138263238Y-99132819D01*
X138263238Y-99132819D02*
X138358476Y-99085200D01*
X138358476Y-99085200D02*
X138406095Y-99037580D01*
X138406095Y-99037580D02*
X138453714Y-98942342D01*
X138453714Y-98942342D02*
X138453714Y-98704247D01*
X138453714Y-98704247D02*
X138406095Y-98609009D01*
X138406095Y-98609009D02*
X138358476Y-98561390D01*
X138358476Y-98561390D02*
X138263238Y-98513771D01*
X138263238Y-98513771D02*
X138072762Y-98513771D01*
X138072762Y-98513771D02*
X137977524Y-98561390D01*
X137977524Y-98561390D02*
X137929905Y-98609009D01*
X137929905Y-98609009D02*
X137882286Y-98704247D01*
X144949666Y-30144819D02*
X144949666Y-30859104D01*
X144949666Y-30859104D02*
X144902047Y-31001961D01*
X144902047Y-31001961D02*
X144806809Y-31097200D01*
X144806809Y-31097200D02*
X144663952Y-31144819D01*
X144663952Y-31144819D02*
X144568714Y-31144819D01*
X145854428Y-30478152D02*
X145854428Y-31144819D01*
X145616333Y-30097200D02*
X145378238Y-30811485D01*
X145378238Y-30811485D02*
X145997285Y-30811485D01*
X154789524Y-116213200D02*
X154932381Y-116260819D01*
X154932381Y-116260819D02*
X155170476Y-116260819D01*
X155170476Y-116260819D02*
X155265714Y-116213200D01*
X155265714Y-116213200D02*
X155313333Y-116165580D01*
X155313333Y-116165580D02*
X155360952Y-116070342D01*
X155360952Y-116070342D02*
X155360952Y-115975104D01*
X155360952Y-115975104D02*
X155313333Y-115879866D01*
X155313333Y-115879866D02*
X155265714Y-115832247D01*
X155265714Y-115832247D02*
X155170476Y-115784628D01*
X155170476Y-115784628D02*
X154980000Y-115737009D01*
X154980000Y-115737009D02*
X154884762Y-115689390D01*
X154884762Y-115689390D02*
X154837143Y-115641771D01*
X154837143Y-115641771D02*
X154789524Y-115546533D01*
X154789524Y-115546533D02*
X154789524Y-115451295D01*
X154789524Y-115451295D02*
X154837143Y-115356057D01*
X154837143Y-115356057D02*
X154884762Y-115308438D01*
X154884762Y-115308438D02*
X154980000Y-115260819D01*
X154980000Y-115260819D02*
X155218095Y-115260819D01*
X155218095Y-115260819D02*
X155360952Y-115308438D01*
X156122857Y-115737009D02*
X156265714Y-115784628D01*
X156265714Y-115784628D02*
X156313333Y-115832247D01*
X156313333Y-115832247D02*
X156360952Y-115927485D01*
X156360952Y-115927485D02*
X156360952Y-116070342D01*
X156360952Y-116070342D02*
X156313333Y-116165580D01*
X156313333Y-116165580D02*
X156265714Y-116213200D01*
X156265714Y-116213200D02*
X156170476Y-116260819D01*
X156170476Y-116260819D02*
X155789524Y-116260819D01*
X155789524Y-116260819D02*
X155789524Y-115260819D01*
X155789524Y-115260819D02*
X156122857Y-115260819D01*
X156122857Y-115260819D02*
X156218095Y-115308438D01*
X156218095Y-115308438D02*
X156265714Y-115356057D01*
X156265714Y-115356057D02*
X156313333Y-115451295D01*
X156313333Y-115451295D02*
X156313333Y-115546533D01*
X156313333Y-115546533D02*
X156265714Y-115641771D01*
X156265714Y-115641771D02*
X156218095Y-115689390D01*
X156218095Y-115689390D02*
X156122857Y-115737009D01*
X156122857Y-115737009D02*
X155789524Y-115737009D01*
X156980000Y-115260819D02*
X157170476Y-115260819D01*
X157170476Y-115260819D02*
X157265714Y-115308438D01*
X157265714Y-115308438D02*
X157360952Y-115403676D01*
X157360952Y-115403676D02*
X157408571Y-115594152D01*
X157408571Y-115594152D02*
X157408571Y-115927485D01*
X157408571Y-115927485D02*
X157360952Y-116117961D01*
X157360952Y-116117961D02*
X157265714Y-116213200D01*
X157265714Y-116213200D02*
X157170476Y-116260819D01*
X157170476Y-116260819D02*
X156980000Y-116260819D01*
X156980000Y-116260819D02*
X156884762Y-116213200D01*
X156884762Y-116213200D02*
X156789524Y-116117961D01*
X156789524Y-116117961D02*
X156741905Y-115927485D01*
X156741905Y-115927485D02*
X156741905Y-115594152D01*
X156741905Y-115594152D02*
X156789524Y-115403676D01*
X156789524Y-115403676D02*
X156884762Y-115308438D01*
X156884762Y-115308438D02*
X156980000Y-115260819D01*
X158027619Y-115260819D02*
X158218095Y-115260819D01*
X158218095Y-115260819D02*
X158313333Y-115308438D01*
X158313333Y-115308438D02*
X158408571Y-115403676D01*
X158408571Y-115403676D02*
X158456190Y-115594152D01*
X158456190Y-115594152D02*
X158456190Y-115927485D01*
X158456190Y-115927485D02*
X158408571Y-116117961D01*
X158408571Y-116117961D02*
X158313333Y-116213200D01*
X158313333Y-116213200D02*
X158218095Y-116260819D01*
X158218095Y-116260819D02*
X158027619Y-116260819D01*
X158027619Y-116260819D02*
X157932381Y-116213200D01*
X157932381Y-116213200D02*
X157837143Y-116117961D01*
X157837143Y-116117961D02*
X157789524Y-115927485D01*
X157789524Y-115927485D02*
X157789524Y-115594152D01*
X157789524Y-115594152D02*
X157837143Y-115403676D01*
X157837143Y-115403676D02*
X157932381Y-115308438D01*
X157932381Y-115308438D02*
X158027619Y-115260819D01*
X158741905Y-115260819D02*
X159313333Y-115260819D01*
X159027619Y-116260819D02*
X159027619Y-115260819D01*
X160170476Y-116260819D02*
X159599048Y-116260819D01*
X159884762Y-116260819D02*
X159884762Y-115260819D01*
X159884762Y-115260819D02*
X159789524Y-115403676D01*
X159789524Y-115403676D02*
X159694286Y-115498914D01*
X159694286Y-115498914D02*
X159599048Y-115546533D01*
X150018356Y-81390820D02*
X150590776Y-81963240D01*
X150590776Y-81963240D02*
X150691791Y-81996912D01*
X150691791Y-81996912D02*
X150759135Y-81996912D01*
X150759135Y-81996912D02*
X150860150Y-81963240D01*
X150860150Y-81963240D02*
X150994837Y-81828553D01*
X150994837Y-81828553D02*
X151028509Y-81727538D01*
X151028509Y-81727538D02*
X151028509Y-81660194D01*
X151028509Y-81660194D02*
X150994837Y-81559179D01*
X150994837Y-81559179D02*
X150422417Y-80986759D01*
X151836631Y-80986759D02*
X151432570Y-81390820D01*
X151634600Y-81188790D02*
X150927494Y-80481683D01*
X150927494Y-80481683D02*
X150961165Y-80650042D01*
X150961165Y-80650042D02*
X150961165Y-80784729D01*
X150961165Y-80784729D02*
X150927494Y-80885744D01*
X122594476Y-41266819D02*
X122594476Y-41981104D01*
X122594476Y-41981104D02*
X122546857Y-42123961D01*
X122546857Y-42123961D02*
X122451619Y-42219200D01*
X122451619Y-42219200D02*
X122308762Y-42266819D01*
X122308762Y-42266819D02*
X122213524Y-42266819D01*
X123594476Y-42266819D02*
X123023048Y-42266819D01*
X123308762Y-42266819D02*
X123308762Y-41266819D01*
X123308762Y-41266819D02*
X123213524Y-41409676D01*
X123213524Y-41409676D02*
X123118286Y-41504914D01*
X123118286Y-41504914D02*
X123023048Y-41552533D01*
X124499238Y-41266819D02*
X124023048Y-41266819D01*
X124023048Y-41266819D02*
X123975429Y-41743009D01*
X123975429Y-41743009D02*
X124023048Y-41695390D01*
X124023048Y-41695390D02*
X124118286Y-41647771D01*
X124118286Y-41647771D02*
X124356381Y-41647771D01*
X124356381Y-41647771D02*
X124451619Y-41695390D01*
X124451619Y-41695390D02*
X124499238Y-41743009D01*
X124499238Y-41743009D02*
X124546857Y-41838247D01*
X124546857Y-41838247D02*
X124546857Y-42076342D01*
X124546857Y-42076342D02*
X124499238Y-42171580D01*
X124499238Y-42171580D02*
X124451619Y-42219200D01*
X124451619Y-42219200D02*
X124356381Y-42266819D01*
X124356381Y-42266819D02*
X124118286Y-42266819D01*
X124118286Y-42266819D02*
X124023048Y-42219200D01*
X124023048Y-42219200D02*
X123975429Y-42171580D01*
X107442095Y-32322819D02*
X107442095Y-31322819D01*
X107442095Y-31799009D02*
X108013523Y-31799009D01*
X108013523Y-32322819D02*
X108013523Y-31322819D01*
X109013523Y-32322819D02*
X108442095Y-32322819D01*
X108727809Y-32322819D02*
X108727809Y-31322819D01*
X108727809Y-31322819D02*
X108632571Y-31465676D01*
X108632571Y-31465676D02*
X108537333Y-31560914D01*
X108537333Y-31560914D02*
X108442095Y-31608533D01*
X150702261Y-40806057D02*
X150607023Y-40758438D01*
X150607023Y-40758438D02*
X150511785Y-40663200D01*
X150511785Y-40663200D02*
X150368928Y-40520342D01*
X150368928Y-40520342D02*
X150273690Y-40472723D01*
X150273690Y-40472723D02*
X150178452Y-40472723D01*
X150226071Y-40710819D02*
X150130833Y-40663200D01*
X150130833Y-40663200D02*
X150035595Y-40567961D01*
X150035595Y-40567961D02*
X149987976Y-40377485D01*
X149987976Y-40377485D02*
X149987976Y-40044152D01*
X149987976Y-40044152D02*
X150035595Y-39853676D01*
X150035595Y-39853676D02*
X150130833Y-39758438D01*
X150130833Y-39758438D02*
X150226071Y-39710819D01*
X150226071Y-39710819D02*
X150416547Y-39710819D01*
X150416547Y-39710819D02*
X150511785Y-39758438D01*
X150511785Y-39758438D02*
X150607023Y-39853676D01*
X150607023Y-39853676D02*
X150654642Y-40044152D01*
X150654642Y-40044152D02*
X150654642Y-40377485D01*
X150654642Y-40377485D02*
X150607023Y-40567961D01*
X150607023Y-40567961D02*
X150511785Y-40663200D01*
X150511785Y-40663200D02*
X150416547Y-40710819D01*
X150416547Y-40710819D02*
X150226071Y-40710819D01*
X151607023Y-40710819D02*
X151035595Y-40710819D01*
X151321309Y-40710819D02*
X151321309Y-39710819D01*
X151321309Y-39710819D02*
X151226071Y-39853676D01*
X151226071Y-39853676D02*
X151130833Y-39948914D01*
X151130833Y-39948914D02*
X151035595Y-39996533D01*
X145108819Y-42838666D02*
X144632628Y-43171999D01*
X145108819Y-43410094D02*
X144108819Y-43410094D01*
X144108819Y-43410094D02*
X144108819Y-43029142D01*
X144108819Y-43029142D02*
X144156438Y-42933904D01*
X144156438Y-42933904D02*
X144204057Y-42886285D01*
X144204057Y-42886285D02*
X144299295Y-42838666D01*
X144299295Y-42838666D02*
X144442152Y-42838666D01*
X144442152Y-42838666D02*
X144537390Y-42886285D01*
X144537390Y-42886285D02*
X144585009Y-42933904D01*
X144585009Y-42933904D02*
X144632628Y-43029142D01*
X144632628Y-43029142D02*
X144632628Y-43410094D01*
X144537390Y-42267237D02*
X144489771Y-42362475D01*
X144489771Y-42362475D02*
X144442152Y-42410094D01*
X144442152Y-42410094D02*
X144346914Y-42457713D01*
X144346914Y-42457713D02*
X144299295Y-42457713D01*
X144299295Y-42457713D02*
X144204057Y-42410094D01*
X144204057Y-42410094D02*
X144156438Y-42362475D01*
X144156438Y-42362475D02*
X144108819Y-42267237D01*
X144108819Y-42267237D02*
X144108819Y-42076761D01*
X144108819Y-42076761D02*
X144156438Y-41981523D01*
X144156438Y-41981523D02*
X144204057Y-41933904D01*
X144204057Y-41933904D02*
X144299295Y-41886285D01*
X144299295Y-41886285D02*
X144346914Y-41886285D01*
X144346914Y-41886285D02*
X144442152Y-41933904D01*
X144442152Y-41933904D02*
X144489771Y-41981523D01*
X144489771Y-41981523D02*
X144537390Y-42076761D01*
X144537390Y-42076761D02*
X144537390Y-42267237D01*
X144537390Y-42267237D02*
X144585009Y-42362475D01*
X144585009Y-42362475D02*
X144632628Y-42410094D01*
X144632628Y-42410094D02*
X144727866Y-42457713D01*
X144727866Y-42457713D02*
X144918342Y-42457713D01*
X144918342Y-42457713D02*
X145013580Y-42410094D01*
X145013580Y-42410094D02*
X145061200Y-42362475D01*
X145061200Y-42362475D02*
X145108819Y-42267237D01*
X145108819Y-42267237D02*
X145108819Y-42076761D01*
X145108819Y-42076761D02*
X145061200Y-41981523D01*
X145061200Y-41981523D02*
X145013580Y-41933904D01*
X145013580Y-41933904D02*
X144918342Y-41886285D01*
X144918342Y-41886285D02*
X144727866Y-41886285D01*
X144727866Y-41886285D02*
X144632628Y-41933904D01*
X144632628Y-41933904D02*
X144585009Y-41981523D01*
X144585009Y-41981523D02*
X144537390Y-42076761D01*
X152569666Y-30144819D02*
X152569666Y-30859104D01*
X152569666Y-30859104D02*
X152522047Y-31001961D01*
X152522047Y-31001961D02*
X152426809Y-31097200D01*
X152426809Y-31097200D02*
X152283952Y-31144819D01*
X152283952Y-31144819D02*
X152188714Y-31144819D01*
X153522047Y-30144819D02*
X153045857Y-30144819D01*
X153045857Y-30144819D02*
X152998238Y-30621009D01*
X152998238Y-30621009D02*
X153045857Y-30573390D01*
X153045857Y-30573390D02*
X153141095Y-30525771D01*
X153141095Y-30525771D02*
X153379190Y-30525771D01*
X153379190Y-30525771D02*
X153474428Y-30573390D01*
X153474428Y-30573390D02*
X153522047Y-30621009D01*
X153522047Y-30621009D02*
X153569666Y-30716247D01*
X153569666Y-30716247D02*
X153569666Y-30954342D01*
X153569666Y-30954342D02*
X153522047Y-31049580D01*
X153522047Y-31049580D02*
X153474428Y-31097200D01*
X153474428Y-31097200D02*
X153379190Y-31144819D01*
X153379190Y-31144819D02*
X153141095Y-31144819D01*
X153141095Y-31144819D02*
X153045857Y-31097200D01*
X153045857Y-31097200D02*
X152998238Y-31049580D01*
X107354476Y-41266819D02*
X107354476Y-41981104D01*
X107354476Y-41981104D02*
X107306857Y-42123961D01*
X107306857Y-42123961D02*
X107211619Y-42219200D01*
X107211619Y-42219200D02*
X107068762Y-42266819D01*
X107068762Y-42266819D02*
X106973524Y-42266819D01*
X108354476Y-42266819D02*
X107783048Y-42266819D01*
X108068762Y-42266819D02*
X108068762Y-41266819D01*
X108068762Y-41266819D02*
X107973524Y-41409676D01*
X107973524Y-41409676D02*
X107878286Y-41504914D01*
X107878286Y-41504914D02*
X107783048Y-41552533D01*
X109306857Y-42266819D02*
X108735429Y-42266819D01*
X109021143Y-42266819D02*
X109021143Y-41266819D01*
X109021143Y-41266819D02*
X108925905Y-41409676D01*
X108925905Y-41409676D02*
X108830667Y-41504914D01*
X108830667Y-41504914D02*
X108735429Y-41552533D01*
X151456819Y-113466666D02*
X150980628Y-113799999D01*
X151456819Y-114038094D02*
X150456819Y-114038094D01*
X150456819Y-114038094D02*
X150456819Y-113657142D01*
X150456819Y-113657142D02*
X150504438Y-113561904D01*
X150504438Y-113561904D02*
X150552057Y-113514285D01*
X150552057Y-113514285D02*
X150647295Y-113466666D01*
X150647295Y-113466666D02*
X150790152Y-113466666D01*
X150790152Y-113466666D02*
X150885390Y-113514285D01*
X150885390Y-113514285D02*
X150933009Y-113561904D01*
X150933009Y-113561904D02*
X150980628Y-113657142D01*
X150980628Y-113657142D02*
X150980628Y-114038094D01*
X150790152Y-112609523D02*
X151456819Y-112609523D01*
X150409200Y-112847618D02*
X151123485Y-113085713D01*
X151123485Y-113085713D02*
X151123485Y-112466666D01*
X194310095Y-32322819D02*
X194310095Y-31322819D01*
X194310095Y-31799009D02*
X194881523Y-31799009D01*
X194881523Y-32322819D02*
X194881523Y-31322819D01*
X195310095Y-31418057D02*
X195357714Y-31370438D01*
X195357714Y-31370438D02*
X195452952Y-31322819D01*
X195452952Y-31322819D02*
X195691047Y-31322819D01*
X195691047Y-31322819D02*
X195786285Y-31370438D01*
X195786285Y-31370438D02*
X195833904Y-31418057D01*
X195833904Y-31418057D02*
X195881523Y-31513295D01*
X195881523Y-31513295D02*
X195881523Y-31608533D01*
X195881523Y-31608533D02*
X195833904Y-31751390D01*
X195833904Y-31751390D02*
X195262476Y-32322819D01*
X195262476Y-32322819D02*
X195881523Y-32322819D01*
X172574833Y-64211580D02*
X172527214Y-64259200D01*
X172527214Y-64259200D02*
X172384357Y-64306819D01*
X172384357Y-64306819D02*
X172289119Y-64306819D01*
X172289119Y-64306819D02*
X172146262Y-64259200D01*
X172146262Y-64259200D02*
X172051024Y-64163961D01*
X172051024Y-64163961D02*
X172003405Y-64068723D01*
X172003405Y-64068723D02*
X171955786Y-63878247D01*
X171955786Y-63878247D02*
X171955786Y-63735390D01*
X171955786Y-63735390D02*
X172003405Y-63544914D01*
X172003405Y-63544914D02*
X172051024Y-63449676D01*
X172051024Y-63449676D02*
X172146262Y-63354438D01*
X172146262Y-63354438D02*
X172289119Y-63306819D01*
X172289119Y-63306819D02*
X172384357Y-63306819D01*
X172384357Y-63306819D02*
X172527214Y-63354438D01*
X172527214Y-63354438D02*
X172574833Y-63402057D01*
X172908167Y-63306819D02*
X173527214Y-63306819D01*
X173527214Y-63306819D02*
X173193881Y-63687771D01*
X173193881Y-63687771D02*
X173336738Y-63687771D01*
X173336738Y-63687771D02*
X173431976Y-63735390D01*
X173431976Y-63735390D02*
X173479595Y-63783009D01*
X173479595Y-63783009D02*
X173527214Y-63878247D01*
X173527214Y-63878247D02*
X173527214Y-64116342D01*
X173527214Y-64116342D02*
X173479595Y-64211580D01*
X173479595Y-64211580D02*
X173431976Y-64259200D01*
X173431976Y-64259200D02*
X173336738Y-64306819D01*
X173336738Y-64306819D02*
X173051024Y-64306819D01*
X173051024Y-64306819D02*
X172955786Y-64259200D01*
X172955786Y-64259200D02*
X172908167Y-64211580D01*
X199942819Y-86557523D02*
X200657104Y-86557523D01*
X200657104Y-86557523D02*
X200799961Y-86605142D01*
X200799961Y-86605142D02*
X200895200Y-86700380D01*
X200895200Y-86700380D02*
X200942819Y-86843237D01*
X200942819Y-86843237D02*
X200942819Y-86938475D01*
X200942819Y-85557523D02*
X200942819Y-86128951D01*
X200942819Y-85843237D02*
X199942819Y-85843237D01*
X199942819Y-85843237D02*
X200085676Y-85938475D01*
X200085676Y-85938475D02*
X200180914Y-86033713D01*
X200180914Y-86033713D02*
X200228533Y-86128951D01*
X199942819Y-84938475D02*
X199942819Y-84843237D01*
X199942819Y-84843237D02*
X199990438Y-84747999D01*
X199990438Y-84747999D02*
X200038057Y-84700380D01*
X200038057Y-84700380D02*
X200133295Y-84652761D01*
X200133295Y-84652761D02*
X200323771Y-84605142D01*
X200323771Y-84605142D02*
X200561866Y-84605142D01*
X200561866Y-84605142D02*
X200752342Y-84652761D01*
X200752342Y-84652761D02*
X200847580Y-84700380D01*
X200847580Y-84700380D02*
X200895200Y-84747999D01*
X200895200Y-84747999D02*
X200942819Y-84843237D01*
X200942819Y-84843237D02*
X200942819Y-84938475D01*
X200942819Y-84938475D02*
X200895200Y-85033713D01*
X200895200Y-85033713D02*
X200847580Y-85081332D01*
X200847580Y-85081332D02*
X200752342Y-85128951D01*
X200752342Y-85128951D02*
X200561866Y-85176570D01*
X200561866Y-85176570D02*
X200323771Y-85176570D01*
X200323771Y-85176570D02*
X200133295Y-85128951D01*
X200133295Y-85128951D02*
X200038057Y-85081332D01*
X200038057Y-85081332D02*
X199990438Y-85033713D01*
X199990438Y-85033713D02*
X199942819Y-84938475D01*
X137329666Y-30144819D02*
X137329666Y-30859104D01*
X137329666Y-30859104D02*
X137282047Y-31001961D01*
X137282047Y-31001961D02*
X137186809Y-31097200D01*
X137186809Y-31097200D02*
X137043952Y-31144819D01*
X137043952Y-31144819D02*
X136948714Y-31144819D01*
X137710619Y-30144819D02*
X138329666Y-30144819D01*
X138329666Y-30144819D02*
X137996333Y-30525771D01*
X137996333Y-30525771D02*
X138139190Y-30525771D01*
X138139190Y-30525771D02*
X138234428Y-30573390D01*
X138234428Y-30573390D02*
X138282047Y-30621009D01*
X138282047Y-30621009D02*
X138329666Y-30716247D01*
X138329666Y-30716247D02*
X138329666Y-30954342D01*
X138329666Y-30954342D02*
X138282047Y-31049580D01*
X138282047Y-31049580D02*
X138234428Y-31097200D01*
X138234428Y-31097200D02*
X138139190Y-31144819D01*
X138139190Y-31144819D02*
X137853476Y-31144819D01*
X137853476Y-31144819D02*
X137758238Y-31097200D01*
X137758238Y-31097200D02*
X137710619Y-31049580D01*
D14*
G04 #@! TO.C,C2*
X172480248Y-67845000D02*
X173002752Y-67845000D01*
X172480248Y-69315000D02*
X173002752Y-69315000D01*
G04 #@! TO.C,R2*
X186663064Y-49557000D02*
X186208936Y-49557000D01*
X186663064Y-51027000D02*
X186208936Y-51027000D01*
G04 #@! TO.C,C1*
X172480248Y-70893000D02*
X173002752Y-70893000D01*
X172480248Y-72363000D02*
X173002752Y-72363000D01*
G04 #@! TO.C,R3*
X148617000Y-64727064D02*
X148617000Y-64272936D01*
X150087000Y-64727064D02*
X150087000Y-64272936D01*
G04 #@! TO.C,D1*
X150384000Y-74620000D02*
X153069000Y-74620000D01*
X153069000Y-72700000D02*
X150384000Y-72700000D01*
X153069000Y-74620000D02*
X153069000Y-72700000D01*
G04 #@! TO.C,J17*
X119554000Y-81838000D02*
X127354000Y-81838000D01*
X119554000Y-87888000D02*
X119554000Y-81838000D01*
X120904000Y-86778000D02*
X125984000Y-86778000D01*
X120904000Y-87788000D02*
X120904000Y-86778000D01*
X125984000Y-86778000D02*
X125984000Y-87788000D01*
X127354000Y-81838000D02*
X127354000Y-87888000D01*
X127354000Y-87888000D02*
X119554000Y-87888000D01*
G04 #@! TO.C,J16*
X119554000Y-52562000D02*
X127354000Y-52562000D01*
X119554000Y-58612000D02*
X119554000Y-52562000D01*
X120904000Y-57502000D02*
X125984000Y-57502000D01*
X120904000Y-58512000D02*
X120904000Y-57502000D01*
X125984000Y-57502000D02*
X125984000Y-58512000D01*
X127354000Y-52562000D02*
X127354000Y-58612000D01*
X127354000Y-58612000D02*
X119554000Y-58612000D01*
G04 #@! TO.C,C6*
X143502748Y-113057000D02*
X144025252Y-113057000D01*
X143502748Y-114527000D02*
X144025252Y-114527000D01*
G04 #@! TO.C,R7*
X142521000Y-42883064D02*
X142521000Y-42428936D01*
X143991000Y-42883064D02*
X143991000Y-42428936D01*
G04 #@! TO.C,R5*
X160301000Y-113072936D02*
X160301000Y-113527064D01*
X161771000Y-113072936D02*
X161771000Y-113527064D01*
G04 #@! TO.C,J18*
X119554000Y-91838000D02*
X127354000Y-91838000D01*
X119554000Y-97888000D02*
X119554000Y-91838000D01*
X120904000Y-96778000D02*
X125984000Y-96778000D01*
X120904000Y-97788000D02*
X120904000Y-96778000D01*
X125984000Y-96778000D02*
X125984000Y-97788000D01*
X127354000Y-91838000D02*
X127354000Y-97888000D01*
X127354000Y-97888000D02*
X119554000Y-97888000D01*
G04 #@! TO.C,SRST1*
X142878000Y-121256000D02*
X142878000Y-119056000D01*
X143348000Y-123226000D02*
X148548000Y-123226000D01*
X143948000Y-116986000D02*
X148348000Y-116986000D01*
X149118000Y-119056000D02*
X149118000Y-121256000D01*
X147412214Y-120106000D02*
G75*
G02*
X144583786Y-120106000I-1414214J0D01*
G01*
X144583786Y-120106000D02*
G75*
G02*
X147412214Y-120106000I1414214J0D01*
G01*
G04 #@! TO.C,C7*
X155208248Y-113057000D02*
X155730752Y-113057000D01*
X155208248Y-114527000D02*
X155730752Y-114527000D01*
G04 #@! TO.C,R1*
X186663064Y-46001000D02*
X186208936Y-46001000D01*
X186663064Y-47471000D02*
X186208936Y-47471000D01*
G04 #@! TO.C,J2*
X127443000Y-31690000D02*
X128773000Y-31690000D01*
X127443000Y-33020000D02*
X127443000Y-31690000D01*
X127443000Y-34290000D02*
X127443000Y-34350000D01*
X127443000Y-34290000D02*
X130043000Y-34290000D01*
X127443000Y-34350000D02*
X132643000Y-34350000D01*
X130043000Y-31690000D02*
X132643000Y-31690000D01*
X130043000Y-34290000D02*
X130043000Y-31690000D01*
X132643000Y-31690000D02*
X132643000Y-34350000D01*
G04 #@! TO.C,J8*
X180212000Y-69304000D02*
X181212000Y-69804000D01*
X180212000Y-70304000D02*
X180212000Y-69304000D01*
X181212000Y-69804000D02*
X180212000Y-70304000D01*
X181602000Y-67984000D02*
X181602000Y-85644000D01*
X181602000Y-103304000D02*
X181602000Y-85644000D01*
X188222000Y-67984000D02*
X181602000Y-67984000D01*
X188222000Y-85644000D02*
X188222000Y-67984000D01*
X188222000Y-85644000D02*
X188222000Y-103304000D01*
X188222000Y-103304000D02*
X181602000Y-103304000D01*
G04 #@! TO.C,C11*
X102469000Y-71377000D02*
X102469000Y-69847000D01*
X102509000Y-71710000D02*
X102509000Y-69514000D01*
X102549000Y-71963000D02*
X102549000Y-69261000D01*
X102589000Y-72176000D02*
X102589000Y-69048000D01*
X102629000Y-72364000D02*
X102629000Y-68860000D01*
X102669000Y-72532000D02*
X102669000Y-68692000D01*
X102709000Y-72686000D02*
X102709000Y-68538000D01*
X102749000Y-72830000D02*
X102749000Y-68394000D01*
X102789000Y-72963000D02*
X102789000Y-68261000D01*
X102829000Y-73090000D02*
X102829000Y-68134000D01*
X102869000Y-73209000D02*
X102869000Y-68015000D01*
X102909000Y-73323000D02*
X102909000Y-67901000D01*
X102949000Y-73432000D02*
X102949000Y-67792000D01*
X102989000Y-73536000D02*
X102989000Y-67688000D01*
X103029000Y-73636000D02*
X103029000Y-67588000D01*
X103069000Y-73732000D02*
X103069000Y-67492000D01*
X103109000Y-73825000D02*
X103109000Y-67399000D01*
X103149000Y-73915000D02*
X103149000Y-67309000D01*
X103189000Y-74002000D02*
X103189000Y-67222000D01*
X103229000Y-74087000D02*
X103229000Y-67137000D01*
X103269000Y-74169000D02*
X103269000Y-67055000D01*
X103309000Y-74249000D02*
X103309000Y-66975000D01*
X103349000Y-74327000D02*
X103349000Y-66897000D01*
X103389000Y-74402000D02*
X103389000Y-66822000D01*
X103429000Y-74476000D02*
X103429000Y-66748000D01*
X103469000Y-74548000D02*
X103469000Y-66676000D01*
X103509000Y-74619000D02*
X103509000Y-66605000D01*
X103549000Y-74688000D02*
X103549000Y-66536000D01*
X103589000Y-74755000D02*
X103589000Y-66469000D01*
X103629000Y-74821000D02*
X103629000Y-66403000D01*
X103669000Y-74885000D02*
X103669000Y-66339000D01*
X103709000Y-74948000D02*
X103709000Y-66276000D01*
X103749000Y-75010000D02*
X103749000Y-66214000D01*
X103789000Y-75071000D02*
X103789000Y-66153000D01*
X103829000Y-75131000D02*
X103829000Y-66093000D01*
X103869000Y-75189000D02*
X103869000Y-66035000D01*
X103909000Y-75246000D02*
X103909000Y-65978000D01*
X103949000Y-75303000D02*
X103949000Y-65921000D01*
X103989000Y-75358000D02*
X103989000Y-65866000D01*
X104029000Y-75412000D02*
X104029000Y-65812000D01*
X104069000Y-75466000D02*
X104069000Y-65758000D01*
X104109000Y-75518000D02*
X104109000Y-65706000D01*
X104149000Y-75570000D02*
X104149000Y-65654000D01*
X104189000Y-75621000D02*
X104189000Y-65603000D01*
X104229000Y-75671000D02*
X104229000Y-65553000D01*
X104269000Y-75720000D02*
X104269000Y-65504000D01*
X104309000Y-75768000D02*
X104309000Y-65456000D01*
X104349000Y-75816000D02*
X104349000Y-65408000D01*
X104389000Y-75863000D02*
X104389000Y-65361000D01*
X104429000Y-75909000D02*
X104429000Y-65315000D01*
X104469000Y-75955000D02*
X104469000Y-65269000D01*
X104509000Y-76000000D02*
X104509000Y-65224000D01*
X104549000Y-76044000D02*
X104549000Y-65180000D01*
X104589000Y-76087000D02*
X104589000Y-65137000D01*
X104629000Y-76130000D02*
X104629000Y-65094000D01*
X104669000Y-76172000D02*
X104669000Y-65052000D01*
X104709000Y-76214000D02*
X104709000Y-65010000D01*
X104749000Y-76255000D02*
X104749000Y-64969000D01*
X104789000Y-76296000D02*
X104789000Y-64928000D01*
X104829000Y-76336000D02*
X104829000Y-64888000D01*
X104869000Y-76375000D02*
X104869000Y-64849000D01*
X104909000Y-76414000D02*
X104909000Y-64810000D01*
X104949000Y-76452000D02*
X104949000Y-64772000D01*
X104989000Y-76490000D02*
X104989000Y-64734000D01*
X105029000Y-76528000D02*
X105029000Y-64696000D01*
X105069000Y-76564000D02*
X105069000Y-64660000D01*
X105109000Y-76601000D02*
X105109000Y-64623000D01*
X105149000Y-76637000D02*
X105149000Y-64587000D01*
X105189000Y-76672000D02*
X105189000Y-64552000D01*
X105229000Y-76707000D02*
X105229000Y-64517000D01*
X105269000Y-76741000D02*
X105269000Y-64483000D01*
X105309000Y-76775000D02*
X105309000Y-64449000D01*
X105349000Y-76809000D02*
X105349000Y-64415000D01*
X105389000Y-69172000D02*
X105389000Y-64382000D01*
X105389000Y-76842000D02*
X105389000Y-72052000D01*
X105429000Y-69172000D02*
X105429000Y-64349000D01*
X105429000Y-76875000D02*
X105429000Y-72052000D01*
X105469000Y-69172000D02*
X105469000Y-64317000D01*
X105469000Y-76907000D02*
X105469000Y-72052000D01*
X105509000Y-69172000D02*
X105509000Y-64285000D01*
X105509000Y-76939000D02*
X105509000Y-72052000D01*
X105549000Y-69172000D02*
X105549000Y-64254000D01*
X105549000Y-76970000D02*
X105549000Y-72052000D01*
X105589000Y-69172000D02*
X105589000Y-64222000D01*
X105589000Y-77002000D02*
X105589000Y-72052000D01*
X105629000Y-69172000D02*
X105629000Y-64192000D01*
X105629000Y-77032000D02*
X105629000Y-72052000D01*
X105669000Y-69172000D02*
X105669000Y-64162000D01*
X105669000Y-77062000D02*
X105669000Y-72052000D01*
X105709000Y-69172000D02*
X105709000Y-64132000D01*
X105709000Y-77092000D02*
X105709000Y-72052000D01*
X105749000Y-69172000D02*
X105749000Y-64102000D01*
X105749000Y-77122000D02*
X105749000Y-72052000D01*
X105789000Y-69172000D02*
X105789000Y-64073000D01*
X105789000Y-77151000D02*
X105789000Y-72052000D01*
X105829000Y-69172000D02*
X105829000Y-64044000D01*
X105829000Y-77180000D02*
X105829000Y-72052000D01*
X105869000Y-69172000D02*
X105869000Y-64016000D01*
X105869000Y-77208000D02*
X105869000Y-72052000D01*
X105909000Y-69172000D02*
X105909000Y-63988000D01*
X105909000Y-77236000D02*
X105909000Y-72052000D01*
X105949000Y-69172000D02*
X105949000Y-63960000D01*
X105949000Y-77264000D02*
X105949000Y-72052000D01*
X105989000Y-69172000D02*
X105989000Y-63933000D01*
X105989000Y-77291000D02*
X105989000Y-72052000D01*
X106029000Y-69172000D02*
X106029000Y-63906000D01*
X106029000Y-77318000D02*
X106029000Y-72052000D01*
X106069000Y-69172000D02*
X106069000Y-63879000D01*
X106069000Y-77345000D02*
X106069000Y-72052000D01*
X106109000Y-69172000D02*
X106109000Y-63853000D01*
X106109000Y-77371000D02*
X106109000Y-72052000D01*
X106149000Y-69172000D02*
X106149000Y-63827000D01*
X106149000Y-77397000D02*
X106149000Y-72052000D01*
X106189000Y-69172000D02*
X106189000Y-63801000D01*
X106189000Y-77423000D02*
X106189000Y-72052000D01*
X106229000Y-69172000D02*
X106229000Y-63776000D01*
X106229000Y-77448000D02*
X106229000Y-72052000D01*
X106269000Y-69172000D02*
X106269000Y-63751000D01*
X106269000Y-77473000D02*
X106269000Y-72052000D01*
X106309000Y-69172000D02*
X106309000Y-63726000D01*
X106309000Y-77498000D02*
X106309000Y-72052000D01*
X106349000Y-69172000D02*
X106349000Y-63702000D01*
X106349000Y-77522000D02*
X106349000Y-72052000D01*
X106389000Y-69172000D02*
X106389000Y-63678000D01*
X106389000Y-77546000D02*
X106389000Y-72052000D01*
X106429000Y-69172000D02*
X106429000Y-63654000D01*
X106429000Y-77570000D02*
X106429000Y-72052000D01*
X106469000Y-69172000D02*
X106469000Y-63631000D01*
X106469000Y-77593000D02*
X106469000Y-72052000D01*
X106509000Y-69172000D02*
X106509000Y-63608000D01*
X106509000Y-77616000D02*
X106509000Y-72052000D01*
X106549000Y-69172000D02*
X106549000Y-63585000D01*
X106549000Y-77639000D02*
X106549000Y-72052000D01*
X106589000Y-69172000D02*
X106589000Y-63563000D01*
X106589000Y-77661000D02*
X106589000Y-72052000D01*
X106629000Y-69172000D02*
X106629000Y-63540000D01*
X106629000Y-77684000D02*
X106629000Y-72052000D01*
X106669000Y-69172000D02*
X106669000Y-63518000D01*
X106669000Y-77706000D02*
X106669000Y-72052000D01*
X106709000Y-69172000D02*
X106709000Y-63497000D01*
X106709000Y-77727000D02*
X106709000Y-72052000D01*
X106749000Y-69172000D02*
X106749000Y-63476000D01*
X106749000Y-77748000D02*
X106749000Y-72052000D01*
X106789000Y-69172000D02*
X106789000Y-63455000D01*
X106789000Y-77769000D02*
X106789000Y-72052000D01*
X106829000Y-69172000D02*
X106829000Y-63434000D01*
X106829000Y-77790000D02*
X106829000Y-72052000D01*
X106869000Y-69172000D02*
X106869000Y-63413000D01*
X106869000Y-77811000D02*
X106869000Y-72052000D01*
X106909000Y-69172000D02*
X106909000Y-63393000D01*
X106909000Y-77831000D02*
X106909000Y-72052000D01*
X106949000Y-69172000D02*
X106949000Y-63373000D01*
X106949000Y-77851000D02*
X106949000Y-72052000D01*
X106989000Y-69172000D02*
X106989000Y-63354000D01*
X106989000Y-77870000D02*
X106989000Y-72052000D01*
X107029000Y-69172000D02*
X107029000Y-63334000D01*
X107029000Y-77890000D02*
X107029000Y-72052000D01*
X107069000Y-69172000D02*
X107069000Y-63315000D01*
X107069000Y-77909000D02*
X107069000Y-72052000D01*
X107109000Y-69172000D02*
X107109000Y-63296000D01*
X107109000Y-77928000D02*
X107109000Y-72052000D01*
X107149000Y-69172000D02*
X107149000Y-63278000D01*
X107149000Y-77946000D02*
X107149000Y-72052000D01*
X107189000Y-69172000D02*
X107189000Y-63259000D01*
X107189000Y-77965000D02*
X107189000Y-72052000D01*
X107229000Y-69172000D02*
X107229000Y-63241000D01*
X107229000Y-77983000D02*
X107229000Y-72052000D01*
X107269000Y-69172000D02*
X107269000Y-63223000D01*
X107269000Y-78001000D02*
X107269000Y-72052000D01*
X107309000Y-69172000D02*
X107309000Y-63206000D01*
X107309000Y-78018000D02*
X107309000Y-72052000D01*
X107349000Y-69172000D02*
X107349000Y-63189000D01*
X107349000Y-78035000D02*
X107349000Y-72052000D01*
X107389000Y-69172000D02*
X107389000Y-63172000D01*
X107389000Y-78052000D02*
X107389000Y-72052000D01*
X107429000Y-69172000D02*
X107429000Y-63155000D01*
X107429000Y-78069000D02*
X107429000Y-72052000D01*
X107469000Y-69172000D02*
X107469000Y-63138000D01*
X107469000Y-78086000D02*
X107469000Y-72052000D01*
X107509000Y-69172000D02*
X107509000Y-63122000D01*
X107509000Y-78102000D02*
X107509000Y-72052000D01*
X107549000Y-69172000D02*
X107549000Y-63106000D01*
X107549000Y-78118000D02*
X107549000Y-72052000D01*
X107589000Y-69172000D02*
X107589000Y-63090000D01*
X107589000Y-78134000D02*
X107589000Y-72052000D01*
X107629000Y-69172000D02*
X107629000Y-63075000D01*
X107629000Y-78149000D02*
X107629000Y-72052000D01*
X107669000Y-69172000D02*
X107669000Y-63059000D01*
X107669000Y-78165000D02*
X107669000Y-72052000D01*
X107709000Y-69172000D02*
X107709000Y-63044000D01*
X107709000Y-78180000D02*
X107709000Y-72052000D01*
X107749000Y-69172000D02*
X107749000Y-63030000D01*
X107749000Y-78194000D02*
X107749000Y-72052000D01*
X107789000Y-69172000D02*
X107789000Y-63015000D01*
X107789000Y-78209000D02*
X107789000Y-72052000D01*
X107829000Y-69172000D02*
X107829000Y-63001000D01*
X107829000Y-78223000D02*
X107829000Y-72052000D01*
X107869000Y-69172000D02*
X107869000Y-62987000D01*
X107869000Y-78237000D02*
X107869000Y-72052000D01*
X107909000Y-69172000D02*
X107909000Y-62973000D01*
X107909000Y-78251000D02*
X107909000Y-72052000D01*
X107949000Y-69172000D02*
X107949000Y-62959000D01*
X107949000Y-78265000D02*
X107949000Y-72052000D01*
X107989000Y-69172000D02*
X107989000Y-62946000D01*
X107989000Y-78278000D02*
X107989000Y-72052000D01*
X108029000Y-69172000D02*
X108029000Y-62932000D01*
X108029000Y-78292000D02*
X108029000Y-72052000D01*
X108069000Y-69172000D02*
X108069000Y-62919000D01*
X108069000Y-78305000D02*
X108069000Y-72052000D01*
X108109000Y-69172000D02*
X108109000Y-62907000D01*
X108109000Y-78317000D02*
X108109000Y-72052000D01*
X108149000Y-69172000D02*
X108149000Y-62894000D01*
X108149000Y-78330000D02*
X108149000Y-72052000D01*
X108189000Y-69172000D02*
X108189000Y-62882000D01*
X108189000Y-78342000D02*
X108189000Y-72052000D01*
X108229000Y-69172000D02*
X108229000Y-62870000D01*
X108229000Y-78354000D02*
X108229000Y-72052000D01*
X108269000Y-78366000D02*
X108269000Y-62858000D01*
X108309000Y-78377000D02*
X108309000Y-62847000D01*
X108349000Y-78389000D02*
X108349000Y-62835000D01*
X108389000Y-78400000D02*
X108389000Y-62824000D01*
X108429000Y-78411000D02*
X108429000Y-62813000D01*
X108469000Y-78422000D02*
X108469000Y-62802000D01*
X108509000Y-78432000D02*
X108509000Y-62792000D01*
X108549000Y-78442000D02*
X108549000Y-62782000D01*
X108589000Y-78452000D02*
X108589000Y-62772000D01*
X108629000Y-78462000D02*
X108629000Y-62762000D01*
X108669000Y-78472000D02*
X108669000Y-62752000D01*
X108709000Y-78481000D02*
X108709000Y-62743000D01*
X108749000Y-78490000D02*
X108749000Y-62734000D01*
X108789000Y-78499000D02*
X108789000Y-62725000D01*
X108829000Y-78508000D02*
X108829000Y-62716000D01*
X108869000Y-78517000D02*
X108869000Y-62707000D01*
X108909000Y-78525000D02*
X108909000Y-62699000D01*
X108949000Y-78533000D02*
X108949000Y-62691000D01*
X108989000Y-78541000D02*
X108989000Y-62683000D01*
X109029000Y-78549000D02*
X109029000Y-62675000D01*
X109069000Y-78556000D02*
X109069000Y-62668000D01*
X109109000Y-78564000D02*
X109109000Y-62660000D01*
X109149000Y-78571000D02*
X109149000Y-62653000D01*
X109189000Y-78578000D02*
X109189000Y-62646000D01*
X109229000Y-78584000D02*
X109229000Y-62640000D01*
X109269000Y-78591000D02*
X109269000Y-62633000D01*
X109309000Y-78597000D02*
X109309000Y-62627000D01*
X109349000Y-78603000D02*
X109349000Y-62621000D01*
X109389000Y-78609000D02*
X109389000Y-62615000D01*
X109429000Y-78615000D02*
X109429000Y-62609000D01*
X109469000Y-78620000D02*
X109469000Y-62604000D01*
X109509000Y-78626000D02*
X109509000Y-62598000D01*
X109549000Y-78631000D02*
X109549000Y-62593000D01*
X109589000Y-78636000D02*
X109589000Y-62588000D01*
X109629000Y-78640000D02*
X109629000Y-62584000D01*
X109669000Y-78645000D02*
X109669000Y-62579000D01*
X109709000Y-78649000D02*
X109709000Y-62575000D01*
X109749000Y-78653000D02*
X109749000Y-62571000D01*
X109789000Y-78657000D02*
X109789000Y-62567000D01*
X109829000Y-78661000D02*
X109829000Y-62563000D01*
X109870000Y-78664000D02*
X109870000Y-62560000D01*
X109910000Y-78667000D02*
X109910000Y-62557000D01*
X109950000Y-78670000D02*
X109950000Y-62554000D01*
X109990000Y-78673000D02*
X109990000Y-62551000D01*
X110030000Y-78676000D02*
X110030000Y-62548000D01*
X110070000Y-78678000D02*
X110070000Y-62546000D01*
X110110000Y-78681000D02*
X110110000Y-62543000D01*
X110150000Y-78683000D02*
X110150000Y-62541000D01*
X110190000Y-78685000D02*
X110190000Y-62539000D01*
X110230000Y-78686000D02*
X110230000Y-62538000D01*
X110270000Y-78688000D02*
X110270000Y-62536000D01*
X110310000Y-78689000D02*
X110310000Y-62535000D01*
X110350000Y-78690000D02*
X110350000Y-62534000D01*
X110390000Y-78691000D02*
X110390000Y-62533000D01*
X110430000Y-78692000D02*
X110430000Y-62532000D01*
X110470000Y-78692000D02*
X110470000Y-62532000D01*
X110510000Y-78692000D02*
X110510000Y-62532000D01*
X110550000Y-78693000D02*
X110550000Y-62531000D01*
X118439491Y-75967000D02*
X118439491Y-74367000D01*
X119239491Y-75167000D02*
X117639491Y-75167000D01*
X118670000Y-70612000D02*
G75*
G02*
X102430000Y-70612000I-8120000J0D01*
G01*
X102430000Y-70612000D02*
G75*
G02*
X118670000Y-70612000I8120000J0D01*
G01*
D15*
G04 #@! TO.C,U2*
X155636000Y-56706000D02*
X155636000Y-67246000D01*
X155636000Y-67246000D02*
X160336000Y-67246000D01*
X160336000Y-56706000D02*
X155636000Y-56706000D01*
X160336000Y-67246000D02*
X160336000Y-56706000D01*
D16*
X161136000Y-64516000D02*
G75*
G02*
X160936000Y-64516000I-100000J0D01*
G01*
X160936000Y-64516000D02*
G75*
G02*
X161136000Y-64516000I100000J0D01*
G01*
D14*
G04 #@! TO.C,C5*
X153189000Y-60169248D02*
X153189000Y-60691752D01*
X154659000Y-60169248D02*
X154659000Y-60691752D01*
G04 #@! TO.C,C4*
X152681000Y-67295752D02*
X152681000Y-66773248D01*
X154151000Y-67295752D02*
X154151000Y-66773248D01*
G04 #@! TO.C,e1*
X195703000Y-57412000D02*
X197623000Y-57412000D01*
X197623000Y-48252000D02*
X195703000Y-48252000D01*
X199633000Y-48252000D02*
X201338000Y-48252000D01*
X201338000Y-48252000D02*
X201338000Y-57412000D01*
X201338000Y-57412000D02*
X199633000Y-57412000D01*
G04 #@! TO.C,C9*
X147093000Y-60169248D02*
X147093000Y-60691752D01*
X148563000Y-60169248D02*
X148563000Y-60691752D01*
G04 #@! TO.C,C10*
X119012509Y-66057000D02*
X120612509Y-66057000D01*
X119812509Y-65257000D02*
X119812509Y-66857000D01*
X127702000Y-62531000D02*
X127702000Y-78693000D01*
X127742000Y-62532000D02*
X127742000Y-78692000D01*
X127782000Y-62532000D02*
X127782000Y-78692000D01*
X127822000Y-62532000D02*
X127822000Y-78692000D01*
X127862000Y-62533000D02*
X127862000Y-78691000D01*
X127902000Y-62534000D02*
X127902000Y-78690000D01*
X127942000Y-62535000D02*
X127942000Y-78689000D01*
X127982000Y-62536000D02*
X127982000Y-78688000D01*
X128022000Y-62538000D02*
X128022000Y-78686000D01*
X128062000Y-62539000D02*
X128062000Y-78685000D01*
X128102000Y-62541000D02*
X128102000Y-78683000D01*
X128142000Y-62543000D02*
X128142000Y-78681000D01*
X128182000Y-62546000D02*
X128182000Y-78678000D01*
X128222000Y-62548000D02*
X128222000Y-78676000D01*
X128262000Y-62551000D02*
X128262000Y-78673000D01*
X128302000Y-62554000D02*
X128302000Y-78670000D01*
X128342000Y-62557000D02*
X128342000Y-78667000D01*
X128382000Y-62560000D02*
X128382000Y-78664000D01*
X128423000Y-62563000D02*
X128423000Y-78661000D01*
X128463000Y-62567000D02*
X128463000Y-78657000D01*
X128503000Y-62571000D02*
X128503000Y-78653000D01*
X128543000Y-62575000D02*
X128543000Y-78649000D01*
X128583000Y-62579000D02*
X128583000Y-78645000D01*
X128623000Y-62584000D02*
X128623000Y-78640000D01*
X128663000Y-62588000D02*
X128663000Y-78636000D01*
X128703000Y-62593000D02*
X128703000Y-78631000D01*
X128743000Y-62598000D02*
X128743000Y-78626000D01*
X128783000Y-62604000D02*
X128783000Y-78620000D01*
X128823000Y-62609000D02*
X128823000Y-78615000D01*
X128863000Y-62615000D02*
X128863000Y-78609000D01*
X128903000Y-62621000D02*
X128903000Y-78603000D01*
X128943000Y-62627000D02*
X128943000Y-78597000D01*
X128983000Y-62633000D02*
X128983000Y-78591000D01*
X129023000Y-62640000D02*
X129023000Y-78584000D01*
X129063000Y-62646000D02*
X129063000Y-78578000D01*
X129103000Y-62653000D02*
X129103000Y-78571000D01*
X129143000Y-62660000D02*
X129143000Y-78564000D01*
X129183000Y-62668000D02*
X129183000Y-78556000D01*
X129223000Y-62675000D02*
X129223000Y-78549000D01*
X129263000Y-62683000D02*
X129263000Y-78541000D01*
X129303000Y-62691000D02*
X129303000Y-78533000D01*
X129343000Y-62699000D02*
X129343000Y-78525000D01*
X129383000Y-62707000D02*
X129383000Y-78517000D01*
X129423000Y-62716000D02*
X129423000Y-78508000D01*
X129463000Y-62725000D02*
X129463000Y-78499000D01*
X129503000Y-62734000D02*
X129503000Y-78490000D01*
X129543000Y-62743000D02*
X129543000Y-78481000D01*
X129583000Y-62752000D02*
X129583000Y-78472000D01*
X129623000Y-62762000D02*
X129623000Y-78462000D01*
X129663000Y-62772000D02*
X129663000Y-78452000D01*
X129703000Y-62782000D02*
X129703000Y-78442000D01*
X129743000Y-62792000D02*
X129743000Y-78432000D01*
X129783000Y-62802000D02*
X129783000Y-78422000D01*
X129823000Y-62813000D02*
X129823000Y-78411000D01*
X129863000Y-62824000D02*
X129863000Y-78400000D01*
X129903000Y-62835000D02*
X129903000Y-78389000D01*
X129943000Y-62847000D02*
X129943000Y-78377000D01*
X129983000Y-62858000D02*
X129983000Y-78366000D01*
X130023000Y-62870000D02*
X130023000Y-69172000D01*
X130023000Y-72052000D02*
X130023000Y-78354000D01*
X130063000Y-62882000D02*
X130063000Y-69172000D01*
X130063000Y-72052000D02*
X130063000Y-78342000D01*
X130103000Y-62894000D02*
X130103000Y-69172000D01*
X130103000Y-72052000D02*
X130103000Y-78330000D01*
X130143000Y-62907000D02*
X130143000Y-69172000D01*
X130143000Y-72052000D02*
X130143000Y-78317000D01*
X130183000Y-62919000D02*
X130183000Y-69172000D01*
X130183000Y-72052000D02*
X130183000Y-78305000D01*
X130223000Y-62932000D02*
X130223000Y-69172000D01*
X130223000Y-72052000D02*
X130223000Y-78292000D01*
X130263000Y-62946000D02*
X130263000Y-69172000D01*
X130263000Y-72052000D02*
X130263000Y-78278000D01*
X130303000Y-62959000D02*
X130303000Y-69172000D01*
X130303000Y-72052000D02*
X130303000Y-78265000D01*
X130343000Y-62973000D02*
X130343000Y-69172000D01*
X130343000Y-72052000D02*
X130343000Y-78251000D01*
X130383000Y-62987000D02*
X130383000Y-69172000D01*
X130383000Y-72052000D02*
X130383000Y-78237000D01*
X130423000Y-63001000D02*
X130423000Y-69172000D01*
X130423000Y-72052000D02*
X130423000Y-78223000D01*
X130463000Y-63015000D02*
X130463000Y-69172000D01*
X130463000Y-72052000D02*
X130463000Y-78209000D01*
X130503000Y-63030000D02*
X130503000Y-69172000D01*
X130503000Y-72052000D02*
X130503000Y-78194000D01*
X130543000Y-63044000D02*
X130543000Y-69172000D01*
X130543000Y-72052000D02*
X130543000Y-78180000D01*
X130583000Y-63059000D02*
X130583000Y-69172000D01*
X130583000Y-72052000D02*
X130583000Y-78165000D01*
X130623000Y-63075000D02*
X130623000Y-69172000D01*
X130623000Y-72052000D02*
X130623000Y-78149000D01*
X130663000Y-63090000D02*
X130663000Y-69172000D01*
X130663000Y-72052000D02*
X130663000Y-78134000D01*
X130703000Y-63106000D02*
X130703000Y-69172000D01*
X130703000Y-72052000D02*
X130703000Y-78118000D01*
X130743000Y-63122000D02*
X130743000Y-69172000D01*
X130743000Y-72052000D02*
X130743000Y-78102000D01*
X130783000Y-63138000D02*
X130783000Y-69172000D01*
X130783000Y-72052000D02*
X130783000Y-78086000D01*
X130823000Y-63155000D02*
X130823000Y-69172000D01*
X130823000Y-72052000D02*
X130823000Y-78069000D01*
X130863000Y-63172000D02*
X130863000Y-69172000D01*
X130863000Y-72052000D02*
X130863000Y-78052000D01*
X130903000Y-63189000D02*
X130903000Y-69172000D01*
X130903000Y-72052000D02*
X130903000Y-78035000D01*
X130943000Y-63206000D02*
X130943000Y-69172000D01*
X130943000Y-72052000D02*
X130943000Y-78018000D01*
X130983000Y-63223000D02*
X130983000Y-69172000D01*
X130983000Y-72052000D02*
X130983000Y-78001000D01*
X131023000Y-63241000D02*
X131023000Y-69172000D01*
X131023000Y-72052000D02*
X131023000Y-77983000D01*
X131063000Y-63259000D02*
X131063000Y-69172000D01*
X131063000Y-72052000D02*
X131063000Y-77965000D01*
X131103000Y-63278000D02*
X131103000Y-69172000D01*
X131103000Y-72052000D02*
X131103000Y-77946000D01*
X131143000Y-63296000D02*
X131143000Y-69172000D01*
X131143000Y-72052000D02*
X131143000Y-77928000D01*
X131183000Y-63315000D02*
X131183000Y-69172000D01*
X131183000Y-72052000D02*
X131183000Y-77909000D01*
X131223000Y-63334000D02*
X131223000Y-69172000D01*
X131223000Y-72052000D02*
X131223000Y-77890000D01*
X131263000Y-63354000D02*
X131263000Y-69172000D01*
X131263000Y-72052000D02*
X131263000Y-77870000D01*
X131303000Y-63373000D02*
X131303000Y-69172000D01*
X131303000Y-72052000D02*
X131303000Y-77851000D01*
X131343000Y-63393000D02*
X131343000Y-69172000D01*
X131343000Y-72052000D02*
X131343000Y-77831000D01*
X131383000Y-63413000D02*
X131383000Y-69172000D01*
X131383000Y-72052000D02*
X131383000Y-77811000D01*
X131423000Y-63434000D02*
X131423000Y-69172000D01*
X131423000Y-72052000D02*
X131423000Y-77790000D01*
X131463000Y-63455000D02*
X131463000Y-69172000D01*
X131463000Y-72052000D02*
X131463000Y-77769000D01*
X131503000Y-63476000D02*
X131503000Y-69172000D01*
X131503000Y-72052000D02*
X131503000Y-77748000D01*
X131543000Y-63497000D02*
X131543000Y-69172000D01*
X131543000Y-72052000D02*
X131543000Y-77727000D01*
X131583000Y-63518000D02*
X131583000Y-69172000D01*
X131583000Y-72052000D02*
X131583000Y-77706000D01*
X131623000Y-63540000D02*
X131623000Y-69172000D01*
X131623000Y-72052000D02*
X131623000Y-77684000D01*
X131663000Y-63563000D02*
X131663000Y-69172000D01*
X131663000Y-72052000D02*
X131663000Y-77661000D01*
X131703000Y-63585000D02*
X131703000Y-69172000D01*
X131703000Y-72052000D02*
X131703000Y-77639000D01*
X131743000Y-63608000D02*
X131743000Y-69172000D01*
X131743000Y-72052000D02*
X131743000Y-77616000D01*
X131783000Y-63631000D02*
X131783000Y-69172000D01*
X131783000Y-72052000D02*
X131783000Y-77593000D01*
X131823000Y-63654000D02*
X131823000Y-69172000D01*
X131823000Y-72052000D02*
X131823000Y-77570000D01*
X131863000Y-63678000D02*
X131863000Y-69172000D01*
X131863000Y-72052000D02*
X131863000Y-77546000D01*
X131903000Y-63702000D02*
X131903000Y-69172000D01*
X131903000Y-72052000D02*
X131903000Y-77522000D01*
X131943000Y-63726000D02*
X131943000Y-69172000D01*
X131943000Y-72052000D02*
X131943000Y-77498000D01*
X131983000Y-63751000D02*
X131983000Y-69172000D01*
X131983000Y-72052000D02*
X131983000Y-77473000D01*
X132023000Y-63776000D02*
X132023000Y-69172000D01*
X132023000Y-72052000D02*
X132023000Y-77448000D01*
X132063000Y-63801000D02*
X132063000Y-69172000D01*
X132063000Y-72052000D02*
X132063000Y-77423000D01*
X132103000Y-63827000D02*
X132103000Y-69172000D01*
X132103000Y-72052000D02*
X132103000Y-77397000D01*
X132143000Y-63853000D02*
X132143000Y-69172000D01*
X132143000Y-72052000D02*
X132143000Y-77371000D01*
X132183000Y-63879000D02*
X132183000Y-69172000D01*
X132183000Y-72052000D02*
X132183000Y-77345000D01*
X132223000Y-63906000D02*
X132223000Y-69172000D01*
X132223000Y-72052000D02*
X132223000Y-77318000D01*
X132263000Y-63933000D02*
X132263000Y-69172000D01*
X132263000Y-72052000D02*
X132263000Y-77291000D01*
X132303000Y-63960000D02*
X132303000Y-69172000D01*
X132303000Y-72052000D02*
X132303000Y-77264000D01*
X132343000Y-63988000D02*
X132343000Y-69172000D01*
X132343000Y-72052000D02*
X132343000Y-77236000D01*
X132383000Y-64016000D02*
X132383000Y-69172000D01*
X132383000Y-72052000D02*
X132383000Y-77208000D01*
X132423000Y-64044000D02*
X132423000Y-69172000D01*
X132423000Y-72052000D02*
X132423000Y-77180000D01*
X132463000Y-64073000D02*
X132463000Y-69172000D01*
X132463000Y-72052000D02*
X132463000Y-77151000D01*
X132503000Y-64102000D02*
X132503000Y-69172000D01*
X132503000Y-72052000D02*
X132503000Y-77122000D01*
X132543000Y-64132000D02*
X132543000Y-69172000D01*
X132543000Y-72052000D02*
X132543000Y-77092000D01*
X132583000Y-64162000D02*
X132583000Y-69172000D01*
X132583000Y-72052000D02*
X132583000Y-77062000D01*
X132623000Y-64192000D02*
X132623000Y-69172000D01*
X132623000Y-72052000D02*
X132623000Y-77032000D01*
X132663000Y-64222000D02*
X132663000Y-69172000D01*
X132663000Y-72052000D02*
X132663000Y-77002000D01*
X132703000Y-64254000D02*
X132703000Y-69172000D01*
X132703000Y-72052000D02*
X132703000Y-76970000D01*
X132743000Y-64285000D02*
X132743000Y-69172000D01*
X132743000Y-72052000D02*
X132743000Y-76939000D01*
X132783000Y-64317000D02*
X132783000Y-69172000D01*
X132783000Y-72052000D02*
X132783000Y-76907000D01*
X132823000Y-64349000D02*
X132823000Y-69172000D01*
X132823000Y-72052000D02*
X132823000Y-76875000D01*
X132863000Y-64382000D02*
X132863000Y-69172000D01*
X132863000Y-72052000D02*
X132863000Y-76842000D01*
X132903000Y-64415000D02*
X132903000Y-76809000D01*
X132943000Y-64449000D02*
X132943000Y-76775000D01*
X132983000Y-64483000D02*
X132983000Y-76741000D01*
X133023000Y-64517000D02*
X133023000Y-76707000D01*
X133063000Y-64552000D02*
X133063000Y-76672000D01*
X133103000Y-64587000D02*
X133103000Y-76637000D01*
X133143000Y-64623000D02*
X133143000Y-76601000D01*
X133183000Y-64660000D02*
X133183000Y-76564000D01*
X133223000Y-64696000D02*
X133223000Y-76528000D01*
X133263000Y-64734000D02*
X133263000Y-76490000D01*
X133303000Y-64772000D02*
X133303000Y-76452000D01*
X133343000Y-64810000D02*
X133343000Y-76414000D01*
X133383000Y-64849000D02*
X133383000Y-76375000D01*
X133423000Y-64888000D02*
X133423000Y-76336000D01*
X133463000Y-64928000D02*
X133463000Y-76296000D01*
X133503000Y-64969000D02*
X133503000Y-76255000D01*
X133543000Y-65010000D02*
X133543000Y-76214000D01*
X133583000Y-65052000D02*
X133583000Y-76172000D01*
X133623000Y-65094000D02*
X133623000Y-76130000D01*
X133663000Y-65137000D02*
X133663000Y-76087000D01*
X133703000Y-65180000D02*
X133703000Y-76044000D01*
X133743000Y-65224000D02*
X133743000Y-76000000D01*
X133783000Y-65269000D02*
X133783000Y-75955000D01*
X133823000Y-65315000D02*
X133823000Y-75909000D01*
X133863000Y-65361000D02*
X133863000Y-75863000D01*
X133903000Y-65408000D02*
X133903000Y-75816000D01*
X133943000Y-65456000D02*
X133943000Y-75768000D01*
X133983000Y-65504000D02*
X133983000Y-75720000D01*
X134023000Y-65553000D02*
X134023000Y-75671000D01*
X134063000Y-65603000D02*
X134063000Y-75621000D01*
X134103000Y-65654000D02*
X134103000Y-75570000D01*
X134143000Y-65706000D02*
X134143000Y-75518000D01*
X134183000Y-65758000D02*
X134183000Y-75466000D01*
X134223000Y-65812000D02*
X134223000Y-75412000D01*
X134263000Y-65866000D02*
X134263000Y-75358000D01*
X134303000Y-65921000D02*
X134303000Y-75303000D01*
X134343000Y-65978000D02*
X134343000Y-75246000D01*
X134383000Y-66035000D02*
X134383000Y-75189000D01*
X134423000Y-66093000D02*
X134423000Y-75131000D01*
X134463000Y-66153000D02*
X134463000Y-75071000D01*
X134503000Y-66214000D02*
X134503000Y-75010000D01*
X134543000Y-66276000D02*
X134543000Y-74948000D01*
X134583000Y-66339000D02*
X134583000Y-74885000D01*
X134623000Y-66403000D02*
X134623000Y-74821000D01*
X134663000Y-66469000D02*
X134663000Y-74755000D01*
X134703000Y-66536000D02*
X134703000Y-74688000D01*
X134743000Y-66605000D02*
X134743000Y-74619000D01*
X134783000Y-66676000D02*
X134783000Y-74548000D01*
X134823000Y-66748000D02*
X134823000Y-74476000D01*
X134863000Y-66822000D02*
X134863000Y-74402000D01*
X134903000Y-66897000D02*
X134903000Y-74327000D01*
X134943000Y-66975000D02*
X134943000Y-74249000D01*
X134983000Y-67055000D02*
X134983000Y-74169000D01*
X135023000Y-67137000D02*
X135023000Y-74087000D01*
X135063000Y-67222000D02*
X135063000Y-74002000D01*
X135103000Y-67309000D02*
X135103000Y-73915000D01*
X135143000Y-67399000D02*
X135143000Y-73825000D01*
X135183000Y-67492000D02*
X135183000Y-73732000D01*
X135223000Y-67588000D02*
X135223000Y-73636000D01*
X135263000Y-67688000D02*
X135263000Y-73536000D01*
X135303000Y-67792000D02*
X135303000Y-73432000D01*
X135343000Y-67901000D02*
X135343000Y-73323000D01*
X135383000Y-68015000D02*
X135383000Y-73209000D01*
X135423000Y-68134000D02*
X135423000Y-73090000D01*
X135463000Y-68261000D02*
X135463000Y-72963000D01*
X135503000Y-68394000D02*
X135503000Y-72830000D01*
X135543000Y-68538000D02*
X135543000Y-72686000D01*
X135583000Y-68692000D02*
X135583000Y-72532000D01*
X135623000Y-68860000D02*
X135623000Y-72364000D01*
X135663000Y-69048000D02*
X135663000Y-72176000D01*
X135703000Y-69261000D02*
X135703000Y-71963000D01*
X135743000Y-69514000D02*
X135743000Y-71710000D01*
X135783000Y-69847000D02*
X135783000Y-71377000D01*
X135822000Y-70612000D02*
G75*
G02*
X119582000Y-70612000I-8120000J0D01*
G01*
X119582000Y-70612000D02*
G75*
G02*
X135822000Y-70612000I8120000J0D01*
G01*
G04 #@! TO.C,J12*
X104314000Y-52562000D02*
X112114000Y-52562000D01*
X104314000Y-58612000D02*
X104314000Y-52562000D01*
X105664000Y-57502000D02*
X110744000Y-57502000D01*
X105664000Y-58512000D02*
X105664000Y-57502000D01*
X110744000Y-57502000D02*
X110744000Y-58512000D01*
X112114000Y-52562000D02*
X112114000Y-58612000D01*
X112114000Y-58612000D02*
X104314000Y-58612000D01*
G04 #@! TO.C,J14*
X104314000Y-91838000D02*
X112114000Y-91838000D01*
X104314000Y-97888000D02*
X104314000Y-91838000D01*
X105664000Y-96778000D02*
X110744000Y-96778000D01*
X105664000Y-97788000D02*
X105664000Y-96778000D01*
X110744000Y-96778000D02*
X110744000Y-97788000D01*
X112114000Y-91838000D02*
X112114000Y-97888000D01*
X112114000Y-97888000D02*
X104314000Y-97888000D01*
G04 #@! TO.C,J13*
X104314000Y-81838000D02*
X112114000Y-81838000D01*
X104314000Y-87888000D02*
X104314000Y-81838000D01*
X105664000Y-86778000D02*
X110744000Y-86778000D01*
X105664000Y-87788000D02*
X105664000Y-86778000D01*
X110744000Y-86778000D02*
X110744000Y-87788000D01*
X112114000Y-81838000D02*
X112114000Y-87888000D01*
X112114000Y-87888000D02*
X104314000Y-87888000D01*
G04 #@! TO.C,R6*
X137895064Y-96293000D02*
X137440936Y-96293000D01*
X137895064Y-97763000D02*
X137440936Y-97763000D01*
G04 #@! TO.C,J4*
X142683000Y-31690000D02*
X144013000Y-31690000D01*
X142683000Y-33020000D02*
X142683000Y-31690000D01*
X142683000Y-34290000D02*
X142683000Y-34350000D01*
X142683000Y-34290000D02*
X145283000Y-34290000D01*
X142683000Y-34350000D02*
X147883000Y-34350000D01*
X145283000Y-31690000D02*
X147883000Y-31690000D01*
X145283000Y-34290000D02*
X145283000Y-31690000D01*
X147883000Y-31690000D02*
X147883000Y-34350000D01*
G04 #@! TO.C,SBOOT1*
X154360000Y-121256000D02*
X154360000Y-119056000D01*
X154830000Y-123226000D02*
X160030000Y-123226000D01*
X155430000Y-116986000D02*
X159830000Y-116986000D01*
X160600000Y-119056000D02*
X160600000Y-121256000D01*
X158894214Y-120106000D02*
G75*
G02*
X156065786Y-120106000I-1414214J0D01*
G01*
X156065786Y-120106000D02*
G75*
G02*
X158894214Y-120106000I1414214J0D01*
G01*
G04 #@! TO.C,U1*
X150765829Y-83252828D02*
X151826489Y-84313488D01*
X151472936Y-82545721D02*
X150765829Y-83252828D01*
X163776594Y-96263593D02*
X162715934Y-95202933D01*
X163776594Y-96263593D02*
X164483701Y-95556486D01*
X164625122Y-69393535D02*
X177635887Y-82404300D01*
X177635887Y-82404300D02*
X177140912Y-82899275D01*
X164094792Y-69923865D02*
X163741239Y-69570312D01*
X164448345Y-69570312D01*
X164094792Y-69923865D01*
G36*
X164094792Y-69923865D02*
G01*
X163741239Y-69570312D01*
X164448345Y-69570312D01*
X164094792Y-69923865D01*
G37*
G04 #@! TO.C,J15*
X119554000Y-42562000D02*
X127354000Y-42562000D01*
X119554000Y-48612000D02*
X119554000Y-42562000D01*
X120904000Y-47502000D02*
X125984000Y-47502000D01*
X120904000Y-48512000D02*
X120904000Y-47502000D01*
X125984000Y-47502000D02*
X125984000Y-48512000D01*
X127354000Y-42562000D02*
X127354000Y-48612000D01*
X127354000Y-48612000D02*
X119554000Y-48612000D01*
G04 #@! TO.C,Q1*
X150797500Y-41096000D02*
X150147500Y-41096000D01*
X150797500Y-41096000D02*
X151447500Y-41096000D01*
X150797500Y-44216000D02*
X150147500Y-44216000D01*
X150797500Y-44216000D02*
X151447500Y-44216000D01*
X149635000Y-41146000D02*
X149395000Y-40816000D01*
X149875000Y-40816000D01*
X149635000Y-41146000D01*
G36*
X149635000Y-41146000D02*
G01*
X149395000Y-40816000D01*
X149875000Y-40816000D01*
X149635000Y-41146000D01*
G37*
G04 #@! TO.C,R8*
X145569000Y-42899064D02*
X145569000Y-42444936D01*
X147039000Y-42899064D02*
X147039000Y-42444936D01*
G04 #@! TO.C,J5*
X150303000Y-31690000D02*
X151633000Y-31690000D01*
X150303000Y-33020000D02*
X150303000Y-31690000D01*
X150303000Y-34290000D02*
X150303000Y-34350000D01*
X150303000Y-34290000D02*
X152903000Y-34290000D01*
X150303000Y-34350000D02*
X155503000Y-34350000D01*
X152903000Y-31690000D02*
X155503000Y-31690000D01*
X152903000Y-34290000D02*
X152903000Y-31690000D01*
X155503000Y-31690000D02*
X155503000Y-34350000D01*
G04 #@! TO.C,J11*
X104314000Y-42562000D02*
X112114000Y-42562000D01*
X104314000Y-48612000D02*
X104314000Y-42562000D01*
X105664000Y-47502000D02*
X110744000Y-47502000D01*
X105664000Y-48512000D02*
X105664000Y-47502000D01*
X110744000Y-47502000D02*
X110744000Y-48512000D01*
X112114000Y-42562000D02*
X112114000Y-48612000D01*
X112114000Y-48612000D02*
X104314000Y-48612000D01*
G04 #@! TO.C,R4*
X148617000Y-113072936D02*
X148617000Y-113527064D01*
X150087000Y-113072936D02*
X150087000Y-113527064D01*
G04 #@! TO.C,C3*
X172480248Y-64797000D02*
X173002752Y-64797000D01*
X172480248Y-66267000D02*
X173002752Y-66267000D01*
G04 #@! TO.C,J10*
X191388000Y-69408000D02*
X192388000Y-69908000D01*
X191388000Y-70408000D02*
X191388000Y-69408000D01*
X192388000Y-69908000D02*
X191388000Y-70408000D01*
X192778000Y-68088000D02*
X192778000Y-85748000D01*
X192778000Y-103408000D02*
X192778000Y-85748000D01*
X199398000Y-68088000D02*
X192778000Y-68088000D01*
X199398000Y-85748000D02*
X199398000Y-68088000D01*
X199398000Y-85748000D02*
X199398000Y-103408000D01*
X199398000Y-103408000D02*
X192778000Y-103408000D01*
G04 #@! TO.C,J3*
X135063000Y-31690000D02*
X136393000Y-31690000D01*
X135063000Y-33020000D02*
X135063000Y-31690000D01*
X135063000Y-34290000D02*
X135063000Y-34350000D01*
X135063000Y-34290000D02*
X137663000Y-34290000D01*
X135063000Y-34350000D02*
X140263000Y-34350000D01*
X137663000Y-31690000D02*
X140263000Y-31690000D01*
X137663000Y-34290000D02*
X137663000Y-31690000D01*
X140263000Y-31690000D02*
X140263000Y-34350000D01*
G04 #@! TO.C,C8*
X150141000Y-60169248D02*
X150141000Y-60691752D01*
X151611000Y-60169248D02*
X151611000Y-60691752D01*
G04 #@! TD*
M02*
