<?xml version="1.0" encoding="UTF-8" standalone="no"?>
<!DOCTYPE svg PUBLIC "-//W3C//DTD SVG 1.1//EN"
 "http://www.w3.org/Graphics/SVG/1.1/DTD/svg11.dtd">
<!-- Generated by graphviz version 14.1.1 (0)
 -->
<!-- Title: BetaSpray Pages: 1 -->
<svg width="1353pt" height="1327pt"
 viewBox="0.00 0.00 1353.00 1327.00" xmlns="http://www.w3.org/2000/svg" xmlns:xlink="http://www.w3.org/1999/xlink">
<g id="graph0" class="graph" transform="scale(1 1) rotate(0) translate(4 1322.75)">
<title>BetaSpray</title>
<polygon fill="white" stroke="none" points="-4,4 -4,-1322.75 1348.52,-1322.75 1348.52,4 -4,4"/>
<g id="clust1" class="cluster">
<title>cluster_power</title>
<polygon fill="lightyellow" stroke="black" points="515,-955.25 515,-1194 659,-1194 659,-955.25 515,-955.25"/>
<text xml:space="preserve" text-anchor="middle" x="587" y="-1176.7" font-family="Times,serif" font-size="14.00">Power Subsystem</text>
</g>
<g id="clust2" class="cluster">
<title>cluster_vision</title>
<polygon fill="lightcyan" stroke="black" points="184,-639.25 184,-878 394,-878 394,-639.25 184,-639.25"/>
<text xml:space="preserve" text-anchor="middle" x="289" y="-860.7" font-family="Times,serif" font-size="14.00">Vision Mapping Subsystem</text>
</g>
<g id="clust3" class="cluster">
<title>cluster_mcu</title>
<polygon fill="lavender" stroke="black" points="415,-465.5 415,-562 537,-562 537,-465.5 415,-465.5"/>
<text xml:space="preserve" text-anchor="middle" x="476" y="-544.7" font-family="Times,serif" font-size="14.00">Control Unit</text>
</g>
<g id="clust4" class="cluster">
<title>cluster_projection</title>
<polygon fill="mistyrose" stroke="black" points="8,-307.5 8,-388.25 683,-388.25 683,-307.5 8,-307.5"/>
<text xml:space="preserve" text-anchor="middle" x="345.5" y="-370.95" font-family="Times,serif" font-size="14.00">Projection Subsystem</text>
</g>
<g id="clust5" class="cluster">
<title>cluster_ui</title>
<polygon fill="honeydew" stroke="black" points="723,-8 723,-388.25 926,-388.25 926,-8 723,-8"/>
<text xml:space="preserve" text-anchor="middle" x="824.5" y="-370.95" font-family="Times,serif" font-size="14.00">User Interface Subsystem</text>
</g>
<!-- Wall -->
<g id="node1" class="node">
<title>Wall</title>
<path fill="red" stroke="black" d="M629.38,-1318.75C629.38,-1318.75 570.62,-1318.75 570.62,-1318.75 564.62,-1318.75 558.62,-1312.75 558.62,-1306.75 558.62,-1306.75 558.62,-1291.25 558.62,-1291.25 558.62,-1285.25 564.62,-1279.25 570.62,-1279.25 570.62,-1279.25 629.38,-1279.25 629.38,-1279.25 635.38,-1279.25 641.38,-1285.25 641.38,-1291.25 641.38,-1291.25 641.38,-1306.75 641.38,-1306.75 641.38,-1312.75 635.38,-1318.75 629.38,-1318.75"/>
<text xml:space="preserve" text-anchor="middle" x="600" y="-1301.45" font-family="Arial" font-size="14.00" fill="white">120V AC</text>
<text xml:space="preserve" text-anchor="middle" x="600" y="-1285.7" font-family="Arial" font-size="14.00" fill="white">Wall Outlet</text>
</g>
<!-- AC_DC -->
<g id="node2" class="node">
<title>AC_DC</title>
<path fill="lightgreen" stroke="black" d="M634.25,-1160.75C634.25,-1160.75 565.75,-1160.75 565.75,-1160.75 559.75,-1160.75 553.75,-1154.75 553.75,-1148.75 553.75,-1148.75 553.75,-1133.25 553.75,-1133.25 553.75,-1127.25 559.75,-1121.25 565.75,-1121.25 565.75,-1121.25 634.25,-1121.25 634.25,-1121.25 640.25,-1121.25 646.25,-1127.25 646.25,-1133.25 646.25,-1133.25 646.25,-1148.75 646.25,-1148.75 646.25,-1154.75 640.25,-1160.75 634.25,-1160.75"/>
<text xml:space="preserve" text-anchor="middle" x="600" y="-1143.45" font-family="Arial" font-size="14.00">5V AC&#45;DC</text>
<text xml:space="preserve" text-anchor="middle" x="600" y="-1127.7" font-family="Arial" font-size="14.00">Wall Adapter</text>
</g>
<!-- Wall&#45;&gt;AC_DC -->
<g id="edge5" class="edge">
<title>Wall&#45;&gt;AC_DC</title>
<path fill="none" stroke="red" stroke-width="3" d="M600,-1278.87C600,-1253 600,-1206.47 600,-1174.93"/>
<polygon fill="red" stroke="red" stroke-width="3" points="603.5,-1175.34 600,-1165.34 596.5,-1175.34 603.5,-1175.34"/>
<text xml:space="preserve" text-anchor="middle" x="618.38" y="-1216.7" font-family="Arial" font-size="9.00">120V AC</text>
</g>
<!-- LDO -->
<g id="node3" class="node">
<title>LDO</title>
<path fill="lightgreen" stroke="black" d="M626,-1002.75C626,-1002.75 574,-1002.75 574,-1002.75 568,-1002.75 562,-996.75 562,-990.75 562,-990.75 562,-975.25 562,-975.25 562,-969.25 568,-963.25 574,-963.25 574,-963.25 626,-963.25 626,-963.25 632,-963.25 638,-969.25 638,-975.25 638,-975.25 638,-990.75 638,-990.75 638,-996.75 632,-1002.75 626,-1002.75"/>
<text xml:space="preserve" text-anchor="middle" x="600" y="-985.45" font-family="Arial" font-size="14.00">3.3V LDO</text>
<text xml:space="preserve" text-anchor="middle" x="600" y="-969.7" font-family="Arial" font-size="14.00">Regulator</text>
</g>
<!-- AC_DC&#45;&gt;LDO -->
<g id="edge1" class="edge">
<title>AC_DC&#45;&gt;LDO</title>
<path fill="none" stroke="red" stroke-width="2" d="M600,-1120.87C600,-1094.65 600,-1047.2 600,-1015.64"/>
<polygon fill="red" stroke="red" stroke-width="2" points="603.5,-1015.82 600,-1005.82 596.5,-1015.82 603.5,-1015.82"/>
<text xml:space="preserve" text-anchor="middle" x="605.62" y="-1058.7" font-family="Arial" font-size="9.00">5V</text>
</g>
<!-- Servo1 -->
<g id="node7" class="node">
<title>Servo1</title>
<path fill="orange" stroke="black" d="M114.25,-355C114.25,-355 27.75,-355 27.75,-355 21.75,-355 15.75,-349 15.75,-343 15.75,-343 15.75,-327.5 15.75,-327.5 15.75,-321.5 21.75,-315.5 27.75,-315.5 27.75,-315.5 114.25,-315.5 114.25,-315.5 120.25,-315.5 126.25,-321.5 126.25,-327.5 126.25,-327.5 126.25,-343 126.25,-343 126.25,-349 120.25,-355 114.25,-355"/>
<text xml:space="preserve" text-anchor="middle" x="71" y="-337.7" font-family="Arial" font-size="14.00">Servo Gimbal 1</text>
<text xml:space="preserve" text-anchor="middle" x="71" y="-321.95" font-family="Arial" font-size="14.00">+ Laser 1</text>
</g>
<!-- AC_DC&#45;&gt;Servo1 -->
<g id="edge8" class="edge">
<title>AC_DC&#45;&gt;Servo1</title>
<path fill="none" stroke="red" stroke-width="2" d="M611.71,-1120.82C667.03,-1027.54 891.32,-617.35 691,-409 670.65,-387.84 191.24,-396.27 163,-388.25 143.5,-382.71 123.69,-372.26 107.48,-362.18"/>
<polygon fill="red" stroke="red" stroke-width="2" points="109.71,-359.46 99.41,-356.96 105.91,-365.33 109.71,-359.46"/>
<text xml:space="preserve" text-anchor="middle" x="767.33" y="-742.7" font-family="Arial" font-size="9.00">5V</text>
</g>
<!-- Servo2 -->
<g id="node8" class="node">
<title>Servo2</title>
<path fill="orange" stroke="black" d="M297.25,-355C297.25,-355 210.75,-355 210.75,-355 204.75,-355 198.75,-349 198.75,-343 198.75,-343 198.75,-327.5 198.75,-327.5 198.75,-321.5 204.75,-315.5 210.75,-315.5 210.75,-315.5 297.25,-315.5 297.25,-315.5 303.25,-315.5 309.25,-321.5 309.25,-327.5 309.25,-327.5 309.25,-343 309.25,-343 309.25,-349 303.25,-355 297.25,-355"/>
<text xml:space="preserve" text-anchor="middle" x="254" y="-337.7" font-family="Arial" font-size="14.00">Servo Gimbal 2</text>
<text xml:space="preserve" text-anchor="middle" x="254" y="-321.95" font-family="Arial" font-size="14.00">+ Laser 2</text>
</g>
<!-- AC_DC&#45;&gt;Servo2 -->
<g id="edge9" class="edge">
<title>AC_DC&#45;&gt;Servo2</title>
<path fill="none" stroke="red" stroke-width="2" d="M646.51,-1125.17C679.25,-1113.15 722.79,-1093.83 755,-1067.25 782.36,-1044.67 783.72,-1033.15 802,-1002.75 877.38,-877.41 1187.96,-513.86 1086,-409 1057.33,-379.51 385.62,-399.27 346,-388.25 326.47,-382.82 306.66,-372.39 290.45,-362.28"/>
<polygon fill="red" stroke="red" stroke-width="2" points="292.68,-359.56 282.39,-357.06 288.87,-365.43 292.68,-359.56"/>
<text xml:space="preserve" text-anchor="middle" x="987.66" y="-742.7" font-family="Arial" font-size="9.00">5V</text>
</g>
<!-- Servo3 -->
<g id="node9" class="node">
<title>Servo3</title>
<path fill="orange" stroke="black" d="M480.25,-355C480.25,-355 393.75,-355 393.75,-355 387.75,-355 381.75,-349 381.75,-343 381.75,-343 381.75,-327.5 381.75,-327.5 381.75,-321.5 387.75,-315.5 393.75,-315.5 393.75,-315.5 480.25,-315.5 480.25,-315.5 486.25,-315.5 492.25,-321.5 492.25,-327.5 492.25,-327.5 492.25,-343 492.25,-343 492.25,-349 486.25,-355 480.25,-355"/>
<text xml:space="preserve" text-anchor="middle" x="437" y="-337.7" font-family="Arial" font-size="14.00">Servo Gimbal 3</text>
<text xml:space="preserve" text-anchor="middle" x="437" y="-321.95" font-family="Arial" font-size="14.00">+ Laser 3</text>
</g>
<!-- AC_DC&#45;&gt;Servo3 -->
<g id="edge10" class="edge">
<title>AC_DC&#45;&gt;Servo3</title>
<path fill="none" stroke="red" stroke-width="2" d="M646.61,-1136.87C706.96,-1131 813.56,-1114.3 891,-1067.25 1134.34,-919.39 1169.68,-413.84 1165,-409 1140.41,-383.6 563.04,-397.8 529,-388.25 509.48,-382.77 489.67,-372.34 473.46,-362.24"/>
<polygon fill="red" stroke="red" stroke-width="2" points="475.69,-359.52 465.4,-357.02 471.89,-365.39 475.69,-359.52"/>
<text xml:space="preserve" text-anchor="middle" x="1109.46" y="-742.7" font-family="Arial" font-size="9.00">5V</text>
</g>
<!-- Servo4 -->
<g id="node10" class="node">
<title>Servo4</title>
<path fill="orange" stroke="black" d="M663.25,-355C663.25,-355 576.75,-355 576.75,-355 570.75,-355 564.75,-349 564.75,-343 564.75,-343 564.75,-327.5 564.75,-327.5 564.75,-321.5 570.75,-315.5 576.75,-315.5 576.75,-315.5 663.25,-315.5 663.25,-315.5 669.25,-315.5 675.25,-321.5 675.25,-327.5 675.25,-327.5 675.25,-343 675.25,-343 675.25,-349 669.25,-355 663.25,-355"/>
<text xml:space="preserve" text-anchor="middle" x="620" y="-337.7" font-family="Arial" font-size="14.00">Servo Gimbal 4</text>
<text xml:space="preserve" text-anchor="middle" x="620" y="-321.95" font-family="Arial" font-size="14.00">+ Laser 4</text>
</g>
<!-- AC_DC&#45;&gt;Servo4 -->
<g id="edge11" class="edge">
<title>AC_DC&#45;&gt;Servo4</title>
<path fill="none" stroke="red" stroke-width="2" d="M646.59,-1135.87C743.97,-1126.64 965.51,-1102.38 1032,-1067.25 1303.77,-923.69 1457.11,-630.47 1244,-409 1223.22,-387.41 733.68,-396.93 705,-388.25 687.05,-382.82 669.07,-372.67 654.3,-362.77"/>
<polygon fill="red" stroke="red" stroke-width="2" points="656.35,-359.94 646.16,-357.06 652.34,-365.67 656.35,-359.94"/>
<text xml:space="preserve" text-anchor="middle" x="1333.77" y="-742.7" font-family="Arial" font-size="9.00">5V</text>
</g>
<!-- Camera -->
<g id="node4" class="node">
<title>Camera</title>
<path fill="wheat" stroke="black" d="M373.75,-844.75C373.75,-844.75 284.25,-844.75 284.25,-844.75 278.25,-844.75 272.25,-838.75 272.25,-832.75 272.25,-832.75 272.25,-817.25 272.25,-817.25 272.25,-811.25 278.25,-805.25 284.25,-805.25 284.25,-805.25 373.75,-805.25 373.75,-805.25 379.75,-805.25 385.75,-811.25 385.75,-817.25 385.75,-817.25 385.75,-832.75 385.75,-832.75 385.75,-838.75 379.75,-844.75 373.75,-844.75"/>
<text xml:space="preserve" text-anchor="middle" x="329" y="-827.45" font-family="Arial" font-size="14.00">Camera Module</text>
<text xml:space="preserve" text-anchor="middle" x="329" y="-811.7" font-family="Arial" font-size="14.00">(5MP)</text>
</g>
<!-- LDO&#45;&gt;Camera -->
<g id="edge6" class="edge">
<title>LDO&#45;&gt;Camera</title>
<path fill="none" stroke="blue" stroke-width="2" d="M566.77,-962.87C518.08,-934.84 427.27,-882.57 373.06,-851.36"/>
<polygon fill="blue" stroke="blue" stroke-width="2" points="375.11,-848.51 364.7,-846.55 371.62,-854.57 375.11,-848.51"/>
<text xml:space="preserve" text-anchor="middle" x="482" y="-900.7" font-family="Arial" font-size="9.00">3.3V</text>
</g>
<!-- ESP32 -->
<g id="node6" class="node">
<title>ESP32</title>
<path fill="cornflowerblue" stroke="black" d="M516.62,-528.75C516.62,-528.75 435.38,-528.75 435.38,-528.75 429.38,-528.75 423.38,-522.75 423.38,-516.75 423.38,-516.75 423.38,-485.5 423.38,-485.5 423.38,-479.5 429.38,-473.5 435.38,-473.5 435.38,-473.5 516.62,-473.5 516.62,-473.5 522.62,-473.5 528.62,-479.5 528.62,-485.5 528.62,-485.5 528.62,-516.75 528.62,-516.75 528.62,-522.75 522.62,-528.75 516.62,-528.75"/>
<text xml:space="preserve" text-anchor="middle" x="476" y="-511.45" font-family="Arial" font-size="14.00" fill="white">ESP32&#45;S3</text>
<text xml:space="preserve" text-anchor="middle" x="476" y="-495.7" font-family="Arial" font-size="14.00" fill="white">Microcontroller</text>
<text xml:space="preserve" text-anchor="middle" x="476" y="-479.95" font-family="Arial" font-size="14.00" fill="white">(Dual&#45;Core)</text>
</g>
<!-- LDO&#45;&gt;ESP32 -->
<g id="edge7" class="edge">
<title>LDO&#45;&gt;ESP32</title>
<path fill="none" stroke="blue" stroke-width="2" d="M595.06,-962.89C576.63,-891.56 511.61,-639.94 486.24,-541.77"/>
<polygon fill="blue" stroke="blue" stroke-width="2" points="489.65,-540.97 483.76,-532.17 482.88,-542.73 489.65,-540.97"/>
<text xml:space="preserve" text-anchor="middle" x="548.81" y="-742.7" font-family="Arial" font-size="9.00">3.3V</text>
</g>
<!-- CV -->
<g id="node5" class="node">
<title>CV</title>
<path fill="wheat" stroke="black" d="M319.5,-686.75C319.5,-686.75 204.5,-686.75 204.5,-686.75 198.5,-686.75 192.5,-680.75 192.5,-674.75 192.5,-674.75 192.5,-659.25 192.5,-659.25 192.5,-653.25 198.5,-647.25 204.5,-647.25 204.5,-647.25 319.5,-647.25 319.5,-647.25 325.5,-647.25 331.5,-653.25 331.5,-659.25 331.5,-659.25 331.5,-674.75 331.5,-674.75 331.5,-680.75 325.5,-686.75 319.5,-686.75"/>
<text xml:space="preserve" text-anchor="middle" x="262" y="-669.45" font-family="Arial" font-size="14.00">OpenCV Processing</text>
<text xml:space="preserve" text-anchor="middle" x="262" y="-653.7" font-family="Arial" font-size="14.00">(ESP32/Offload)</text>
</g>
<!-- Camera&#45;&gt;CV -->
<g id="edge2" class="edge">
<title>Camera&#45;&gt;CV</title>
<path fill="none" stroke="black" d="M320.78,-804.87C309.22,-777.94 288.04,-728.63 274.51,-697.13"/>
<polygon fill="black" stroke="black" points="277.83,-696 270.67,-688.19 271.4,-698.76 277.83,-696"/>
<text xml:space="preserve" text-anchor="middle" x="321.13" y="-742.7" font-family="Arial" font-size="9.00">Image Data</text>
</g>
<!-- Camera&#45;&gt;ESP32 -->
<g id="edge12" class="edge">
<title>Camera&#45;&gt;ESP32</title>
<path fill="none" stroke="green" stroke-width="1.5" d="M338,-804.88C344.88,-790.22 354.59,-769.48 363,-751.25 397.45,-676.6 436.99,-588.98 458.97,-540.08"/>
<polygon fill="green" stroke="green" stroke-width="1.5" points="462.07,-541.72 462.98,-531.16 455.69,-538.85 462.07,-541.72"/>
<text xml:space="preserve" text-anchor="middle" x="429.01" y="-663.7" font-family="Arial" font-size="9.00">CSI/SPI</text>
</g>
<!-- CV&#45;&gt;ESP32 -->
<g id="edge13" class="edge">
<title>CV&#45;&gt;ESP32</title>
<path fill="none" stroke="purple" d="M287.4,-639.09C304.12,-622.05 326.94,-600.03 349,-582.75 370.85,-565.63 396.44,-548.83 418.91,-535.04"/>
<polygon fill="purple" stroke="purple" points="285.21,-636.32 280.76,-645.94 290.23,-641.2 285.21,-636.32"/>
<polygon fill="purple" stroke="purple" points="420.63,-538.09 427.36,-529.91 417,-532.1 420.63,-538.09"/>
<text xml:space="preserve" text-anchor="middle" x="385" y="-584.7" font-family="Arial" font-size="9.00">Hold Coordinates</text>
</g>
<!-- ESP32&#45;&gt;Servo1 -->
<g id="edge14" class="edge">
<title>ESP32&#45;&gt;Servo1</title>
<path fill="none" stroke="brown" stroke-width="1.5" d="M423.13,-484.28C360.01,-464.68 251.82,-428.86 163,-388.25 145.92,-380.44 127.79,-370.56 112.17,-361.52"/>
<polygon fill="brown" stroke="brown" stroke-width="1.5" points="114.16,-358.63 103.77,-356.57 110.62,-364.66 114.16,-358.63"/>
<text xml:space="preserve" text-anchor="middle" x="260.35" y="-410.95" font-family="Arial" font-size="9.00">PWM + Enable</text>
</g>
<!-- ESP32&#45;&gt;Servo2 -->
<g id="edge15" class="edge">
<title>ESP32&#45;&gt;Servo2</title>
<path fill="none" stroke="brown" stroke-width="1.5" d="M439.14,-473.11C417.82,-457.47 390.5,-437.4 366.25,-419.5 340.52,-400.51 311.53,-379 289.45,-362.61"/>
<polygon fill="brown" stroke="brown" stroke-width="1.5" points="291.77,-359.97 281.66,-356.82 287.6,-365.59 291.77,-359.97"/>
<text xml:space="preserve" text-anchor="middle" x="396.62" y="-410.95" font-family="Arial" font-size="9.00">PWM + Enable</text>
</g>
<!-- ESP32&#45;&gt;Servo3 -->
<g id="edge16" class="edge">
<title>ESP32&#45;&gt;Servo3</title>
<path fill="none" stroke="brown" stroke-width="1.5" d="M464.77,-473.33C458.71,-457.85 451.6,-437.87 447.25,-419.5 443.2,-402.39 440.69,-382.91 439.17,-367.09"/>
<polygon fill="brown" stroke="brown" stroke-width="1.5" points="442.69,-367.23 438.34,-357.57 435.72,-367.83 442.69,-367.23"/>
<text xml:space="preserve" text-anchor="middle" x="477.62" y="-410.95" font-family="Arial" font-size="9.00">PWM + Enable</text>
</g>
<!-- ESP32&#45;&gt;Servo4 -->
<g id="edge17" class="edge">
<title>ESP32&#45;&gt;Servo4</title>
<path fill="none" stroke="brown" stroke-width="1.5" d="M499.78,-473.06C526.16,-443.04 568.53,-394.83 595.28,-364.38"/>
<polygon fill="brown" stroke="brown" stroke-width="1.5" points="597.91,-366.69 601.88,-356.87 592.65,-362.07 597.91,-366.69"/>
<text xml:space="preserve" text-anchor="middle" x="582.69" y="-410.95" font-family="Arial" font-size="9.00">PWM + Enable</text>
</g>
<!-- Storage -->
<g id="node11" class="node">
<title>Storage</title>
<path fill="lightgray" stroke="black" d="M813.12,-355C813.12,-355 758.88,-355 758.88,-355 752.88,-355 746.88,-349 746.88,-343 746.88,-343 746.88,-327.5 746.88,-327.5 746.88,-321.5 752.88,-315.5 758.88,-315.5 758.88,-315.5 813.12,-315.5 813.12,-315.5 819.12,-315.5 825.12,-321.5 825.12,-327.5 825.12,-327.5 825.12,-343 825.12,-343 825.12,-349 819.12,-355 813.12,-355"/>
<text xml:space="preserve" text-anchor="middle" x="786" y="-337.7" font-family="Arial" font-size="14.00">SPI Flash/</text>
<text xml:space="preserve" text-anchor="middle" x="786" y="-321.95" font-family="Arial" font-size="14.00">SD Card</text>
</g>
<!-- ESP32&#45;&gt;Storage -->
<g id="edge18" class="edge">
<title>ESP32&#45;&gt;Storage</title>
<path fill="none" stroke="purple" d="M539.27,-470.5C584.78,-448.74 647.34,-417.93 701,-388.25 716.13,-379.88 732.4,-370.12 746.61,-361.33"/>
<polygon fill="purple" stroke="purple" points="537.84,-467.3 530.32,-474.76 540.86,-473.62 537.84,-467.3"/>
<polygon fill="purple" stroke="purple" points="748.17,-364.49 754.8,-356.23 744.46,-358.55 748.17,-364.49"/>
<text xml:space="preserve" text-anchor="middle" x="665.77" y="-410.95" font-family="Arial" font-size="9.00">SPI</text>
</g>
<!-- WiFi -->
<g id="node12" class="node">
<title>WiFi</title>
<path fill="skyblue" stroke="black" d="M874.25,-206.5C874.25,-206.5 793.75,-206.5 793.75,-206.5 787.75,-206.5 781.75,-200.5 781.75,-194.5 781.75,-194.5 781.75,-182.5 781.75,-182.5 781.75,-176.5 787.75,-170.5 793.75,-170.5 793.75,-170.5 874.25,-170.5 874.25,-170.5 880.25,-170.5 886.25,-176.5 886.25,-182.5 886.25,-182.5 886.25,-194.5 886.25,-194.5 886.25,-200.5 880.25,-206.5 874.25,-206.5"/>
<text xml:space="preserve" text-anchor="middle" x="834" y="-183.07" font-family="Arial" font-size="14.00">Wi&#45;Fi Interface</text>
</g>
<!-- ESP32&#45;&gt;WiFi -->
<g id="edge19" class="edge">
<title>ESP32&#45;&gt;WiFi</title>
<path fill="none" stroke="blue" d="M529.01,-492.61C624.89,-477.8 820.93,-441.62 861,-388.25 899,-337.64 869.43,-258.71 849.08,-217.18"/>
<polygon fill="blue" stroke="blue" points="852.24,-215.67 844.59,-208.34 846,-218.84 852.24,-215.67"/>
<text xml:space="preserve" text-anchor="middle" x="902.24" y="-331.95" font-family="Arial" font-size="9.00">Wi&#45;Fi Stack</text>
</g>
<!-- Storage&#45;&gt;WiFi -->
<!-- Device -->
<g id="node13" class="node">
<title>Device</title>
<path fill="gold" stroke="black" d="M872,-52C872,-52 796,-52 796,-52 790,-52 784,-46 784,-40 784,-40 784,-28 784,-28 784,-22 790,-16 796,-16 796,-16 872,-16 872,-16 878,-16 884,-22 884,-28 884,-28 884,-40 884,-40 884,-46 878,-52 872,-52"/>
<text xml:space="preserve" text-anchor="middle" x="834" y="-28.57" font-family="Arial" font-size="14.00">Phone/Laptop</text>
</g>
<!-- WiFi&#45;&gt;Device -->
<g id="edge4" class="edge">
<title>WiFi&#45;&gt;Device</title>
<path fill="none" stroke="blue" stroke-width="1.5" d="M834,-158.12C834,-131.15 834,-91.38 834,-64.4"/>
<polygon fill="blue" stroke="blue" stroke-width="1.5" points="830.5,-157.74 834,-167.74 837.5,-157.74 830.5,-157.74"/>
<polygon fill="blue" stroke="blue" stroke-width="1.5" points="837.5,-64.56 834,-54.56 830.5,-64.56 837.5,-64.56"/>
<text xml:space="preserve" text-anchor="middle" x="845.62" y="-107.95" font-family="Arial" font-size="9.00">HTTP</text>
</g>
</g>
</svg>
